<svg width="80" height="79" viewBox="0 0 80 79" fill="none" xmlns="http://www.w3.org/2000/svg">
<g clip-path="url(#clip0_3842_3560)">
<path d="M63.8744 42.505C63.5649 42.505 63.2474 42.5494 62.9307 42.6366L61.1388 43.1298L58.8458 37.5448C57.7908 34.9745 54.6718 32.8829 51.8935 32.8829H28.069C25.2906 32.8829 22.1717 34.9745 21.1166 37.5448L18.8277 43.1207L17.0695 42.6366C16.7622 42.5507 16.4447 42.5064 16.1255 42.505C14.4306 42.505 13.2002 43.7996 13.2002 45.5837V45.6494C13.2002 47.4905 14.525 49.0258 16.2706 49.3576C15.3172 51.762 14.5508 55.6905 14.5508 58.2195V69.8196C14.5508 71.902 16.2455 73.5966 18.3279 73.5966H20.5041C22.5865 73.5966 24.2812 71.902 24.2812 69.8196V67.3981H55.6819V69.8196C55.6819 71.902 57.3765 73.5966 59.459 73.5966H61.6352C63.7176 73.5966 65.4123 71.902 65.4123 69.8196V58.2195C65.4123 55.692 64.6468 51.767 63.6943 49.3629C65.4573 49.0444 66.7997 47.5021 66.7997 45.6491V45.5833C66.7997 43.7999 65.5693 42.505 63.8744 42.505ZM21.2561 46.9985L24.8978 38.1261C25.5289 36.5886 27.4051 35.3308 29.0667 35.3308H50.8957C52.5573 35.3308 54.4336 36.5886 55.0646 38.1261L58.707 46.9985C59.3381 48.5361 58.4945 49.7938 56.8329 49.7938H23.1301C21.4685 49.7938 20.625 48.5358 21.2561 46.9985ZM30.3856 60.3193C30.3856 61.1502 29.7057 61.8301 28.8747 61.8301H21.6196C20.7887 61.8301 20.1088 61.1502 20.1088 60.3193V57.2318C20.1088 56.4009 20.7887 55.721 21.6196 55.721H28.875C29.706 55.721 30.3859 56.4009 30.3859 57.2318L30.3856 60.3193ZM59.7784 60.3193C59.7784 61.1502 59.0986 61.8301 58.2676 61.8301H51.0122C50.1812 61.8301 49.5013 61.1502 49.5013 60.3193V57.2318C49.5013 56.4009 50.1812 55.721 51.0122 55.721H58.2676C59.0986 55.721 59.7784 56.4009 59.7784 57.2318V60.3193Z" fill="#19CA32"/>
<path d="M72.418 4.17493H7.58201C3.67715 4.17493 0.5 7.35176 0.5 11.2569V70.8903C0.5 73.0631 2.26169 74.8248 4.43445 74.8248C6.60721 74.8248 8.3689 73.0631 8.3689 70.8903V29.2157H71.6311V70.8906C71.6311 73.0634 73.3928 74.8251 75.5655 74.8251C77.7383 74.8251 79.5 73.0634 79.5 70.8906V11.2569C79.5 7.35208 76.3232 4.17493 72.418 4.17493ZM8.3689 20.1705H71.6311V21.5457H8.3689V20.1705ZM8.3689 17.023V15.9191H71.6311V17.023H8.3689ZM8.3689 26.0681V24.6933H71.6311V26.0681H8.3689Z" fill="#19CA32"/>
</g>
<defs>
<clipPath id="clip0_3842_3560">
<rect width="79" height="79" fill="white" transform="translate(0.5)"/>
</clipPath>
</defs>
</svg>
