<svg width="343" height="309" viewBox="0 0 343 309" fill="none" xmlns="http://www.w3.org/2000/svg">
<path d="M144.812 75.0836C144.812 75.0836 153.286 74.3299 157.335 89.4954C159.125 96.1946 163.67 107.645 164.63 115.208C171.311 122.65 174.148 129.288 176.569 132.935C179.312 137.067 183.89 141.218 186.693 145.59C188.476 148.368 190.826 152.457 192.129 156.877C194.589 165.206 191.984 166.38 188.919 166.367C186.176 166.357 184.819 160.89 183.248 157.297C178.39 153.521 178.372 148.793 177.376 146.781C176.256 144.52 166.048 138.356 161.162 131.211C158.099 126.729 158.239 123.081 157.128 121.245C153.485 115.213 144.306 96.0393 144.306 96.0393L138.258 80.2041L144.812 75.0836Z" fill="#FFB9A4"/>
<path d="M155.366 239.738C159.361 241.177 162.628 241.2 166.796 241.345C166.6 243.641 167.677 246.198 167.634 248.271C167.346 261.626 167.555 265.616 174.545 270.866C180.803 275.566 181.529 276.947 184.416 281.711C186.489 285.133 182.326 286.467 179.219 285.774C172.441 284.262 166.806 276.822 163.178 275.373C159.55 273.924 154.561 272.083 155.476 268.119C156.461 263.851 157.701 265.356 158.063 261.537C158.574 256.146 156.308 247.163 155.366 239.738Z" fill="#FFC9B6"/>
<path d="M156.461 265.07C156.461 265.07 158.221 267.97 158.636 269.602C161.505 271.734 164.95 273.274 168.637 276.391C172.324 279.51 174.672 281.458 177.824 279.732C180.976 278.005 181.427 276.811 181.427 276.811C181.427 276.811 185.697 280.131 186.67 282.161C187.643 284.19 183.398 288.684 177.088 287.332C170.779 285.98 168.64 281.746 165.35 278.68C162.06 275.617 158.951 274.593 155.939 272.156C152.932 269.717 156.461 265.07 156.461 265.07Z" fill="#F9744B"/>
<path d="M90.9662 221.219C90.9662 221.219 91.5977 230.889 92.5678 234.505C93.5379 238.121 99.295 242.706 92.5678 245.589C85.8406 248.471 83.2791 243.221 81.3566 238.159C79.4342 233.097 76.1215 222.023 78.044 218.224C78.925 216.483 79.3807 216.297 81.018 216.103C82.9506 215.874 85.2855 215.125 87.0806 212.958C88.6185 215.68 90.9662 221.219 90.9662 221.219Z" fill="#FFC9B6"/>
<path d="M151.907 128.168C151.907 128.168 160.944 138.83 166.632 166.882C169.028 178.707 172.725 201.939 173.158 205.738C173.655 210.105 171.707 217.155 171.152 224.269C170.52 232.331 168.947 249.427 169.29 261.929C162.413 266.512 158.395 263.474 156.465 261.929C155.375 253.544 149.412 233.65 148.874 227.895C147.741 215.737 152.577 208.185 152.577 208.185C152.577 208.185 137.271 187.555 132.056 174.831C126.842 162.108 124.509 141.814 124.509 141.814L151.907 128.168Z" fill="#301333"/>
<path d="M148.167 132.935C148.167 132.935 149.965 146.346 146.851 156.43C145.463 160.921 143.1 164.756 139.171 166.447C139.207 173.963 136.045 185.134 131.726 194.287C129.61 198.771 127.558 204.129 124.849 208.58C123.634 210.576 120.324 210.983 118.027 211.92C110.042 215.187 95.9868 220.489 92.4628 222.615C88.0654 224.293 84.4956 219.842 84.6076 215.951C84.6636 214.031 86.8636 211.083 93.2954 204.142C94.6449 202.685 99.4167 197.962 102.533 196.77C106.788 195.146 111.797 194.68 111.797 194.68C111.797 194.68 110.452 184.963 109.395 176.665C108.407 168.914 107.72 161.688 108.639 156.2C110.821 143.187 115.038 136.76 115.038 136.76L148.167 132.935Z" fill="#3F1B44"/>
<path d="M142.354 77.6858C142.354 77.6858 144.419 78.3452 148.873 84.8153C153.326 91.2853 159.564 96.4466 160.374 103.477C161.184 110.505 157.981 111.541 156.135 115.21C154.289 118.879 155.623 122.834 157.336 132.359C158.144 136.838 161.166 146.784 161.166 146.784C161.166 146.784 148.628 155.772 134.089 151.68C122.672 148.467 114.906 141.803 114.906 141.803C114.906 141.803 119.754 127.957 121.093 124.443C122.712 120.193 114.531 103.78 113.352 97.6409C112.173 91.5018 124.507 85.2227 131.754 82.0704C138.937 78.9436 142.354 77.6858 142.354 77.6858Z" fill="#F9744B"/>
<path d="M127.471 74.9129C127.845 73.0975 127.257 71.473 127.385 69.7212C130.404 71.9721 134.315 73.6908 138.143 74.0931C138.883 76.0486 140.225 77.7495 142.138 79.1373C142.555 80.9782 143.215 82.7784 143.951 84.5429C145.695 88.8258 145.051 96.2226 144.936 98.2571C142.978 96.1717 138.652 92.7521 136.528 91.1709C132.765 88.37 130 86.8473 125.763 84.8128C128.278 81.1844 127.041 76.9932 127.471 74.9129Z" fill="#FFB9A4"/>
<path d="M121.19 57.1275C122.527 54.5278 131.948 49.173 134.016 48.5237C138.377 47.1513 142.215 48.4906 145.092 51.9866C148.552 56.1905 148.448 65.9809 147.04 72.7234C146.301 76.2474 144.318 80.5175 141.698 80.5175C133.96 80.5175 127.08 76.0437 122.662 68.8098C120.531 65.3265 119.209 60.9826 121.19 57.1275Z" fill="#FFC9B6"/>
<path d="M100.305 76.3412C100.292 73.222 101.43 70.1232 103.587 68.0251C102.665 65.8964 102.818 62.5303 103.528 59.9153C99.9838 55.7903 102.069 51.3725 104.144 48.9892C103.902 48.5793 102.843 45.5976 105.346 44.3474C103.261 39.8787 108.565 35.7079 111.294 37.391C112.695 34.4857 116.669 33.0267 120.782 34.338C123.486 35.2012 127.695 39.372 126.017 43.362C124.01 48.1362 118.734 49.2693 114.454 47.8842C114.441 47.9096 114.431 47.9427 114.416 47.9682C113.55 49.5825 111.849 50.6901 110.044 51.0874C112.252 53.8144 112.621 58.3417 109.945 60.4296C112.005 62.3928 111.86 66.3013 109.833 68.5013C112.458 70.6554 114.001 75.2998 114.278 78.0396C114.444 79.6743 114.556 81.3904 113.219 82.5184C111.419 84.0411 108.211 84.665 105.942 84.7999C101.086 85.0851 100.322 80.4712 100.305 76.3412Z" fill="#301333"/>
<path d="M123.608 42.789C126.246 42.4682 128.747 44.2735 130.702 46.0482C131.201 46.0813 131.67 46.5066 131.695 47.0668C131.835 47.3392 131.721 47.6142 131.474 47.7568C130.758 49.0478 129.218 49.6334 127.975 50.3336C126.493 51.1688 124.627 52.7169 122.928 53.0225C120.313 53.491 119.776 49.4042 119.769 47.604C119.756 45.2258 121.149 43.0869 123.608 42.789Z" fill="#F9744B"/>
<path d="M118.101 54.5373C120.405 49.5161 123.068 46.4402 128.349 47.4459C128.927 44.9964 132.698 43.6928 135.884 44.0493C140.599 44.5789 145.134 47.3823 148.783 50.5117C149.218 49.0628 151.141 48.3957 152.653 48.6427C155.141 49.0501 156.31 51.5225 156.111 53.8651C155.882 56.587 153.975 59.0162 151.571 60.2104C150.013 60.9844 147.861 61.3384 146.002 60.9233C143.156 64.3429 137.725 62.5504 134.229 59.7419C133.966 62.0972 132.568 64.7071 131.443 66.0591C130.287 67.4494 128.482 68.7556 126.585 69.2928C127.229 71.7296 128.166 74.943 127.463 77.3009C123.962 74.3472 113.41 64.7631 118.101 54.5373Z" fill="#301333"/>
<path d="M93.4646 236.27C93.4646 236.27 92.166 238.154 89.4797 238.773C86.7934 239.392 84.9346 238.651 83.9543 237.989C82.9714 237.327 80.3895 227.72 79.8726 225.084C79.3557 222.449 80.802 219.778 81.0083 218.171C81.2145 216.562 81.0159 216.101 81.0159 216.101C81.0159 216.101 76.8757 215.719 76.4632 219.291C76.0507 222.864 78.5282 231.995 79.3557 234.454C80.1832 236.914 82.5309 244.662 86.5617 246.419C90.5899 248.176 95.9879 245.775 97.4342 242.842C98.8805 239.911 93.4646 236.27 93.4646 236.27Z" fill="#F9744B"/>
<path d="M151.463 115.207C151.463 115.207 142.897 125.807 137.461 125.138C132.025 124.471 129.341 119.625 129.341 119.625C129.341 119.625 136.412 121.56 140.402 120.188C144.394 118.815 151.463 115.207 151.463 115.207Z" fill="#F46138"/>
<path d="M135.875 133.602C135.875 133.602 139.114 155.693 138.317 161.412C137.52 167.131 137.339 168.569 135.875 170.37C133.826 172.89 128.285 176.442 123.992 175.635C119.699 174.826 104.849 165.43 99.148 160.551C93.1745 155.438 95.4025 142.997 99.0462 133.602C102.69 124.208 104.714 119.348 104.714 119.348L135.875 133.602Z" fill="#CDCDCD"/>
<path d="M135.875 133.602C135.875 133.602 133.634 135.005 130.128 135.494C126.546 135.437 121.909 133.286 116.895 130.635C105.982 124.865 104.716 119.348 104.716 119.348C104.716 119.348 113.903 121.331 121.234 124.865C123.755 126.08 128.511 129.136 130.202 130.029C134.228 132.155 135.875 133.602 135.875 133.602Z" fill="#AFAFAF"/>
<path d="M131.579 138.758C132.847 138.437 134.008 138.312 134.927 137.757C135.124 140.303 136.404 150.007 136.404 157.109C136.404 165.308 135.493 168.549 133.57 170.168C131.648 171.788 128.162 173.713 128.307 171.587C128.409 170.095 129.669 168.689 131.039 158.288C132.185 149.592 131.752 141.266 131.579 138.758Z" fill="#AFAFAF"/>
<path d="M119.346 87.5044C119.346 87.5044 116.206 88.607 115.17 89.7833C112.583 92.7166 108.835 100.19 107.109 105.438C104.692 112.789 101.069 122.933 99.1235 128.168C98.1508 130.786 101.695 134.702 103.658 137.76C105.749 141.012 115.725 147.367 122.508 149.307C128.584 156.017 133.495 160.641 135.451 159.408C138.262 157.636 137.623 152.905 135.163 151.133C133.047 149.608 129.587 147.255 125.444 145.488C122.422 142.045 117.994 136.426 114.409 132.935C111.409 130.014 109.372 128.168 109.372 128.168C109.372 128.168 113.655 121.018 116.639 116.432C119.57 111.926 121.999 111.926 124.179 108.081C127.188 102.772 130.277 90.9928 119.346 87.5044Z" fill="#FFC9B6"/>
<path d="M122.225 86.8926C126.279 90.8011 129.368 100.316 129.283 108.566C129.215 115.288 127.483 126.854 126.506 131.389C125.553 135.806 125.199 138.246 123.175 137.675C120.298 136.866 124.308 127.814 125.067 119.35C125.673 112.572 125.884 104.732 123.962 97.7855C122.039 90.8393 118.961 87.5724 118.961 87.5724C118.961 87.5724 120.015 84.7588 122.225 86.8926Z" fill="#572D60"/>
<path d="M132.779 131.481C132.779 131.481 134.418 113.173 131.437 102.013C128.455 90.8527 125.542 86.9187 124.073 85.8697C122.331 84.6271 121.234 86.6819 121.234 86.6819C121.234 86.6819 126.635 96.3934 127.62 100.646C128.608 104.898 129.349 110.393 129.822 116.438C130.102 120.025 129.718 129.78 129.718 129.78L132.779 131.481Z" fill="#572D60"/>
<path d="M16.2978 245.531C16.4709 246.229 19.2617 250.723 22.0498 254.886C24.838 259.047 23.85 264.374 20.8887 267.32C17.9249 270.263 11.1034 266.976 8.7354 263.47C5.01786 257.967 5.49149 252.33 4.44752 250.412C3.83897 249.297 3.0012 246.764 1.94959 244.543C1.19336 242.949 0.521124 241.786 0.498207 240.169C0.449827 236.991 3.21 235.349 5.9014 235.247C9.73607 235.102 9.27777 235.827 10.5484 236.757C13.5555 238.959 16.2978 245.531 16.2978 245.531Z" fill="#301333"/>
<path d="M19.0348 250.257C19.0832 250.334 17.1786 252.21 14.1486 253.725C11.4444 255.075 11.3247 255.969 11.6277 256.646C11.9307 257.321 13.7717 257.344 16.9087 255.207C19.5772 253.392 20.0508 251.846 20.0508 251.846L19.0348 250.257Z" fill="white"/>
<path d="M23.0884 263.814C23.0884 263.814 21.0616 264.82 19.1443 266.989C17.4204 268.937 13.13 266.699 10.212 263.814C7.29397 260.929 6.59632 252.677 4.96926 249.715C3.34219 246.754 0.554016 241.837 1.36627 240.169C2.17853 238.501 5.25698 236.2 4.29959 235.492C3.34219 234.784 0.454721 236.294 0.0396805 238.967C-0.37536 241.641 2.50451 246.527 3.70125 249.16C4.89799 251.793 4.42688 261.087 10.212 265.925C13.6851 268.83 17.4689 269.833 20.0508 268.461C22.6301 267.086 24.0255 265.286 23.0884 263.814Z" fill="#FF5E4C"/>
<path d="M84.9571 277.165C91.9823 281.252 94.9461 280.282 98.9921 286.917C101.678 291.325 99.6567 294.803 96.3898 296.863C91.8167 299.748 89.2807 297.803 83.6738 294.472C78.0669 291.139 74.7976 283.444 72.6256 282.538C70.4536 281.631 66.3235 277.774 71.2226 273.471C76.1216 269.167 84.9571 277.165 84.9571 277.165Z" fill="#301333"/>
<path d="M69.5781 275.388C69.5781 275.388 70.7035 276.468 70.5762 278.105C70.4515 279.742 71.0167 281.12 72.9468 282.217C74.6884 283.21 76.5676 285.873 77.9426 287.735C79.6027 289.983 85.9379 295.73 89.5892 296.107C93.2405 296.484 93.7447 295.603 96.6398 293.212C99.5349 290.821 100.235 290.757 100.235 290.757C100.235 290.757 101.363 292.771 100.795 294.345C100.281 295.771 96.487 298.559 93.4926 299.005C90.0933 299.509 84.9473 297.225 82.2865 295.101C79.6256 292.978 77.357 290.184 76.1806 287.798C75.0042 285.413 68.1853 281.188 68.5622 278.545C68.9416 275.902 69.5781 275.388 69.5781 275.388Z" fill="#FF5E4C"/>
<path d="M92.5957 280.842C92.5957 280.842 89.2091 283.394 86.8182 285.235C84.552 286.979 82.841 284.667 84.9569 283.149C87.0703 281.632 89.8534 279.618 89.8534 279.618L92.5957 280.842Z" fill="white"/>
<path d="M91.2625 176.902C91.2625 176.902 93.3555 186.952 93.3555 190.091C93.3555 193.231 88.3597 199.306 84.4308 200.977C80.5019 202.647 78.5082 180.021 78.5082 180.021L91.2625 176.902Z" fill="#FFC9B6"/>
<path d="M70.8586 84.8696C70.8586 84.8696 78.8436 88.6075 82.9227 96.5799C87.0018 104.552 87.3048 116.7 87.6078 124.293C87.9108 131.886 89.3673 151.686 91.524 161.83C93.6807 171.975 94.2256 175.224 91.524 178.763C88.8224 182.302 78.2579 180.966 78.2579 180.966C78.2579 180.966 66.5324 146.82 65.682 137.076C64.8315 127.331 65.682 87.5458 65.682 87.5458L70.8586 84.8696Z" fill="#EF4335"/>
<path d="M74.6007 143.555C74.6007 143.555 82.6571 168.338 83.5458 178.23C84.4344 188.12 86.507 203.135 87.5433 215.589C88.5797 228.043 86.9272 243.927 87.1971 253.368C87.3346 258.173 85.3078 269.14 85.8272 275.992C84.5261 280.348 79.0949 280.539 75.7746 278.123C73.9795 276.817 72.989 273.606 73.0424 272.503C73.1952 269.226 64.2553 243.285 63.9778 234.363C63.7002 225.441 66.1751 219.207 66.1751 219.207C66.1751 219.207 54.8876 190.75 50.9994 179.585C47.1113 168.422 50.9994 155.103 50.9994 155.103L74.6007 143.555Z" fill="#301333"/>
<path d="M38.8335 149.315C37.9754 151.133 33.5856 158.089 30.7159 169.812C27.8463 181.535 28.5389 203.609 28.5389 203.609C28.5389 203.609 20.121 205.658 16.1259 217.127C12.9482 226.255 9.55907 230.905 6.53157 240.232C6.53157 250.389 16.1259 248.408 16.1259 248.408C16.1259 248.408 27.5891 237.166 34.24 230.128C39.1746 224.908 44.0074 221.234 45.9069 217.728C50.3527 209.519 55.3714 181.604 55.3714 181.604C55.3714 181.604 68.5814 180.033 66.5418 159.686C65.1618 145.923 38.8335 149.315 38.8335 149.315Z" fill="#3F1B44"/>
<path d="M52.2217 87.548C54.7348 86.7586 64.5838 83.5682 65.5666 84.0546C72.6198 87.5531 80.5947 101.249 81.6259 110.525C82.0511 114.363 81.2134 124.375 78.9294 130.511C81.2974 134.346 79.3088 137.236 79.1713 138.348C78.937 140.24 79.6627 142.804 80.3833 144.592C81.771 148.037 81.7328 151.462 79.3317 154.054C75.8204 157.84 71.2778 159.569 61.2379 160.959C49.6168 162.568 42.2072 157.639 38.5991 152.829C37.7461 151.691 36.5392 148.228 39.0829 146.606C37.1452 140.716 35.1643 133.368 33.2699 126.305C30.418 115.677 25.6718 104.608 31.8286 96.5796C34.5251 93.0606 46.7421 89.3482 52.2217 87.548Z" fill="#FF5E4C"/>
<path d="M55.3011 84.8696C60.498 89.239 72.2465 98.0364 71.9231 106.111C71.5998 114.185 64.7121 118.198 55.9479 112.769C43.13 104.83 42.6207 90.7973 42.6207 90.7973L55.3011 84.8696Z" fill="white"/>
<path d="M51.5379 77.114C51.5379 77.114 60.269 88.697 63.3195 93.5145C66.3699 98.3295 71.2129 105.426 66.3699 109.63C63.4316 112.179 57.621 110.004 52.8467 104.924C49.7454 101.624 47.5353 96.458 45.2869 92.743C48.2711 91.0955 51.5379 77.114 51.5379 77.114Z" fill="#FFB9A4"/>
<path d="M74.5888 75.749C74.4182 71.6469 73.5295 66.4959 70.3747 63.5677C67.2581 60.6751 61.9058 60.3899 57.8573 60.6726C51.5833 61.1105 47.1681 68.0491 48.2782 76.0724C49.3044 83.4845 54.2518 94.902 62.517 96.4501C71.709 98.1739 74.8485 81.9873 74.5888 75.749Z" fill="#FFC9B6"/>
<path d="M72.3351 63.9257C72.3402 63.9104 72.3504 63.9027 72.3555 63.8875C72.3326 63.9537 72.33 63.9537 72.3351 63.9257Z" fill="#301333"/>
<path d="M43.5679 60.5878C44.0211 57.8913 46.929 54.5939 49.7935 54.1585C51.5657 53.8912 54.802 54.6525 56.643 56.17C57.2083 53.9675 59.3446 52.1037 61.7381 52.3328C65.5269 52.6944 69.0789 55.839 71.0523 59.2968C71.3604 58.0313 71.9715 56.9441 73.4967 56.6589C76.2161 56.1497 78.3728 58.7443 79.0348 61.0665C79.786 63.7019 79.1519 71.0071 76.5776 74.2892C72.3763 79.6491 60.0422 77.4033 54.1476 75.2594C53.8905 77.001 51.5632 84.5074 49.5465 84.3368C44.0746 76.0156 42.1726 68.881 43.5679 60.5878Z" fill="#FF5E4C"/>
<path d="M54.6035 78.5853C54.6035 78.5853 53.0859 75.3235 50.504 77.1135C47.9221 78.9036 52.5537 84.3399 52.5537 84.3399L54.6035 78.5853Z" fill="#FFC9B6"/>
<path d="M36.0737 93.5825C36.0737 93.5825 39.2183 100.063 40.4838 109.537C41.1357 114.421 39.1572 122.992 36.6873 125.179C34.2175 127.366 32.3842 129.717 30.7953 132.013C28.7736 134.931 26.2604 137.987 26.2604 137.987C26.2604 137.987 27.7805 137.564 28.3356 138.695C28.934 139.909 27.8799 141.327 27.8799 141.327C27.8799 141.327 29.3974 142.035 33.7515 148.009C35.0145 149.743 37.1432 154.242 37.1432 154.242C37.1432 154.242 35.1469 154.792 34.1462 157.221C33.1455 159.65 32.2186 160.898 32.2186 160.898C32.2186 160.898 31.3555 161.764 25.7843 158.892C20.8751 156.361 14.4152 150.871 12.3909 146.794C10.3666 142.718 10.7715 143.049 11.5303 137.378C12.289 131.708 19.8362 112.575 21.4378 107.437C23.6301 100.399 29.5476 93.9059 36.0737 93.5825Z" fill="#EF4335"/>
<path d="M87.6992 278.358C87.6992 278.358 87.2587 274.388 83.1032 276.593C78.9477 278.798 77.1883 278.92 75.5179 276.593C73.8476 274.266 73.3256 270.225 72.6203 270.597C71.9149 270.968 71.2173 273.471 71.2173 273.471C71.2173 273.471 72.689 279.259 77.9904 280.728C83.2917 282.198 87.6992 278.358 87.6992 278.358Z" fill="white"/>
<path d="M16.125 248.405C16.125 248.405 15.3127 247.448 13.3368 247.214C11.3609 246.982 11.5239 247.797 10.317 247.214C6.94826 245.587 6.98647 239.167 8.34362 235.226C7.46771 235.59 6.6554 236.466 5.89916 237.451C4.38922 239.427 3.72977 241.286 4.89341 245.003C6.05451 248.721 9.22969 249.999 11.6308 250.233C14.0319 250.47 16.125 248.405 16.125 248.405Z" fill="white"/>
<path d="M36.6795 153.307C37.2778 154.02 39.8725 153.997 41.7287 153.524C43.6511 153.035 45.0134 152.966 47.0835 152.162C49.8284 151.095 49.2682 153.524 47.552 155.102C45.7365 156.773 44.5627 157.269 46.0802 158.382C48.1885 159.928 51.244 159.604 56.306 157.977C60.5506 156.612 62.6132 159.182 58.0273 164.455C53.4415 169.728 44.3411 167.276 39.0958 164.455C33.8505 161.634 32.2133 160.893 32.2133 160.893C32.2133 160.893 31.9103 153.32 36.6795 153.307Z" fill="#FFC9B6"/>
<path d="M313.753 124.558C313.753 124.558 320.51 124.179 325.157 124.558C329.804 124.937 331.475 125.312 332.954 125.745C334.433 126.177 334.841 128.052 332.76 128.316C329.433 128.736 328.748 128.316 327.482 129.391C326.677 130.073 329.835 131.436 333.395 132.683C336.954 133.931 341.42 134.567 342.686 135.456C343.954 136.345 341.418 141.081 334.449 141.096C327.48 141.111 321.728 139.074 319.034 137.182C315.639 134.799 308.793 131.909 308.793 131.909L313.753 124.558Z" fill="#FFC9B6"/>
<path d="M318.428 123.555C311.718 118.646 296.133 113.182 292.996 110.956C291.414 107.883 289.477 101.056 287.636 96.9213C286.23 93.7639 284.751 85.3333 281.828 80.1287C278.561 74.3079 274.879 72.7012 269.616 70.9851C268.2 70.5216 266.721 70.5446 265.621 71.8152C264.129 73.5365 264.432 76.5258 264.414 78.5552C264.383 81.9977 264.429 85.4453 264.452 88.8878C264.48 93.051 270.937 102.964 272.109 104.723C273.53 106.857 277.601 117.849 278.66 120.189C279.236 121.462 284.119 126.129 289.141 128.169C291.066 128.951 306.099 135.683 314.649 137.035C315.011 135.37 317.707 127.487 318.428 123.555Z" fill="#3F1B44"/>
<path d="M274.348 141.452C274.348 141.452 282.591 166.813 283.5 176.935C284.409 187.056 286.53 202.418 287.592 215.162C288.653 227.906 286.96 244.158 287.238 253.819C287.38 258.736 284.791 273.466 285.323 280.478C283.991 284.937 273.22 284.074 272.276 278.744C271.69 275.437 263.758 243.504 263.476 234.376C263.193 225.247 265.724 218.869 265.724 218.869C265.724 218.869 254.174 189.75 250.197 178.325C246.22 166.902 250.197 153.272 250.197 153.272L274.348 141.452Z" fill="#301333"/>
<path d="M272.275 278.743C272.275 278.743 271.47 281.648 270.072 284.599C268.674 287.553 269.153 292.039 269.153 292.039C269.153 292.039 269.532 294.043 272.313 295.044C274.902 295.976 277.158 295.665 277.158 295.665C277.158 295.665 279.3 299.24 282.36 302.191C285.421 305.145 292.703 308.185 294.809 308.185C298.208 308.188 300.383 305.868 300.383 304.16C300.383 302.451 297.174 297.226 294.272 294.733C292.382 293.111 288.314 287.986 287.124 286.239C285.156 283.344 285.322 280.477 285.322 280.477L272.275 278.743Z" fill="#301333"/>
<path d="M204.728 241.409C204.728 241.409 202.207 247.836 202.003 251.696C201.799 255.556 202.612 256.572 203.628 257.993C204.644 259.416 206.067 259.009 206.067 259.009C206.067 259.009 205.721 266.976 209.115 270.589C212.509 274.203 219.274 275.262 222.523 274.45C225.775 273.637 224.352 267.745 221.915 261.853C219.478 255.961 216.244 249.555 215.829 244.429C208.463 242.57 204.728 241.409 204.728 241.409Z" fill="#301333"/>
<path d="M237.744 147.347C236.866 149.208 232.371 156.325 229.438 168.323C226.502 180.319 227.21 202.907 227.21 202.907C227.21 202.907 218.596 205.005 214.509 216.738C211.258 226.08 207.596 232.471 204.497 242.015C204.497 252.408 216.564 248.322 216.564 248.322C216.564 248.322 226.24 237.24 233.046 230.039C238.095 224.697 243.04 220.939 244.983 217.351C249.531 208.951 254.669 180.387 254.669 180.387C254.669 180.387 268.187 178.781 266.099 157.957C264.686 143.877 237.744 147.347 237.744 147.347Z" fill="#3F1B44"/>
<path d="M251.447 77.4608C254.019 76.6511 264.097 73.3893 265.103 73.8859C272.319 77.4659 276.859 90.9586 277.913 100.451C278.348 104.377 277.821 115.199 275.484 121.481C277.908 125.404 276.436 128.343 276.293 129.481C276.054 131.419 279.527 133.998 280.263 135.829C281.681 139.355 281.646 142.859 279.186 145.51C275.593 149.385 272.054 155.926 260.142 157.164C248.203 158.404 239.1 154.282 235.405 149.36C234.532 148.196 235.395 139.546 238 137.889C236.017 131.862 233.992 124.343 232.052 117.114C229.134 106.236 226.504 95.7761 232.801 87.5618C235.566 83.9665 245.84 79.3017 251.447 77.4608Z" fill="#BBD9F9"/>
<path d="M250.226 64.4514C250.226 64.4514 259.884 71.7133 263.006 76.6403C266.125 81.5674 267.23 84.9717 265.59 96.3459C256.755 93.2624 245.925 86.5555 243.827 80.4419C246.883 78.7589 250.226 64.4514 250.226 64.4514Z" fill="#FFB9A4"/>
<path d="M265.066 110.004C264.327 106.057 263.197 102.373 262.395 100.002V99.9971C262.222 99.4904 263.719 94.9072 263.719 94.9072L259.428 93.2139L256.923 96.2261C256.923 96.2261 258.349 99.5745 260.001 100.453C259.91 104.833 259.752 112.856 259.658 120.128C259.507 131.744 259.658 140.098 259.658 140.098C259.658 140.098 262.395 143.971 265.168 145.789C267.093 142.339 267.844 137.944 267.844 137.944C267.844 137.944 266.311 116.655 265.066 110.004Z" fill="#F95555"/>
<path d="M240.812 80.9736C240.812 80.9736 247.98 84.0648 250.982 86.55C255.003 89.8779 256.923 90.7768 258.924 92.6992C259.112 92.218 259.657 83.1787 259.657 83.1787C259.657 83.1787 263.008 83.5989 262.98 83.66C262.952 83.7211 264.897 85.5111 265.659 89.1039C266.42 92.6967 265.063 97.0482 265.063 97.0482L259.489 93.6439L255.672 100.453C255.672 100.453 248.227 94.0767 244.833 90.1937C241.441 86.3081 240.812 80.9736 240.812 80.9736Z" fill="white"/>
<path d="M262.395 75.9398C262.395 75.9398 264.769 70.0783 270.22 75.5196C275.687 80.9737 281.673 95.1463 279.939 107.883C278.865 115.779 280.614 127.423 281.79 136.447C283.048 146.102 289.146 167.381 289.146 167.381C289.146 167.381 287.68 174.187 284.179 177.574C280.683 180.95 274.149 181.622 274.149 181.622C274.149 181.622 271.468 148.096 271.06 144.584C270.656 141.073 269.337 122.526 269.701 117.024C270.062 111.521 266.91 93.1831 265.665 89.109C264.42 85.035 256.926 76.6935 256.926 76.6935L262.395 75.9398Z" fill="#4A2151"/>
<path d="M261.116 81.7455C261.116 81.7455 263.318 84.5642 265.086 88.8241C266.855 93.0814 267.42 102.436 267.925 107.898C268.429 113.36 269.605 118.845 269.605 118.845C269.605 118.845 271.67 112.904 272.047 108.871C272.426 104.838 272.943 101.731 272.943 101.731L270.125 99.526L272.737 93.2164C272.737 93.2164 265.847 78.2138 262.939 77.343C260.029 76.467 261.116 81.7455 261.116 81.7455Z" fill="#572D60"/>
<path d="M243.855 79.1099C243.855 79.1099 252.062 89.9034 254.475 104.832C256.889 119.761 255.364 135.14 254.475 145.807C253.353 159.261 256.92 183.629 256.92 183.629C256.92 183.629 245.047 188.22 231.748 184.51C223.857 182.31 217.98 173.479 217.98 173.479C217.98 173.479 220.651 153.12 227.46 133.266C229.695 126.748 228.277 112.598 225.629 104.455C224.053 99.6124 229.642 88.9079 233.713 84.5029C236.486 81.4983 239.964 81.2411 243.855 79.1099Z" fill="#4A2151"/>
<path d="M246.714 75.8611C246.714 75.8611 241.708 77.2387 239.928 80.806C240.761 82.6495 242.727 85.1066 243.61 89.7026C244.494 94.2986 244.183 99.4421 244.183 99.4421L249.472 101.805L246.381 107.254L255.547 119.114C255.547 119.114 256.92 103.488 253.304 92.2004C249.686 80.9128 246.714 75.8611 246.714 75.8611Z" fill="#572D60"/>
<path d="M233.44 85.1226C227.133 86.1283 223.293 87.264 218.853 97.4159C214.69 106.936 217.87 111.023 215.851 117.442C213.831 123.861 214.672 125.42 214.096 130.604C213.518 135.788 214.926 136.521 216.861 138.072C218.453 139.345 216.253 140.909 228.712 146.625C236.689 150.287 242.077 149.22 242.077 149.22L246.345 139.05C246.345 139.05 247.936 139.101 242.316 133.912C235.961 128.042 231.235 127.23 231.235 127.23C231.235 127.23 233.557 119.574 236.73 112.701C239.903 105.826 237.899 87.0526 233.44 85.1226Z" fill="#3F1B44"/>
<path d="M246.344 139.049C246.344 139.049 243.121 138.049 241.382 142.235C240.103 145.308 240.949 148.012 242.077 149.219C243.767 149.219 246.331 149.787 248.088 151.065C252.027 153.93 256.7 159.45 260.165 161.13C265.176 163.565 266.508 160.346 266.928 157.367C267.348 154.388 264.838 152.078 262.6 150.332C260.165 148.432 258.683 146.879 259.541 146.354C260.109 146.006 262.923 147.225 264.853 146.354C266.857 145.451 266.012 144.004 262.696 143.762C261.011 143.64 260.239 142.484 257.046 142.072C254.551 141.751 253.81 142.999 253.02 142.591C250.408 141.247 247.78 140.093 246.344 139.049Z" fill="#FFC9B6"/>
<path d="M247.278 108.539L244.279 110.271L242.548 107.272L245.547 105.54L247.278 108.539Z" fill="#BBD9F9"/>
<path d="M253.223 111.371L243.803 116.81L240.21 110.588L249.63 105.149L253.223 111.371Z" fill="white"/>
<path d="M273.808 63.0563C273.633 58.8601 272.724 53.5868 269.498 50.5924C266.31 47.6336 260.83 47.3407 256.69 47.631C250.271 48.0792 245.751 55.1782 246.887 63.3899C247.936 70.9727 253 82.6574 261.457 84.2412C265.762 85.0484 269.098 81.8197 271.069 77.682C273.404 72.7779 273.954 66.5192 273.808 63.0563Z" fill="#FFC9B6"/>
<path d="M272.028 53.289C272.034 53.2737 272.044 53.266 272.049 53.2507C272.026 53.3169 272.023 53.317 272.028 53.289Z" fill="#301333"/>
<path d="M253.363 65.9566C253.363 65.9566 251.81 62.6185 249.167 64.4518C246.527 66.2825 251.265 71.8461 251.265 71.8461L253.363 65.9566Z" fill="#FFC9B6"/>
<path d="M241.669 49.6577C242.527 44.0814 250.324 39.3784 256.934 42.6097C259.045 37.8227 265.288 33.8581 270.299 35.5896C272.596 36.384 274.954 38.3931 275.198 40.9546C275.28 41.8152 275.101 42.5817 274.75 43.2691C276.232 43.5263 277.719 44.0763 278.928 44.6441C283.733 46.9001 284.433 50.7348 281.645 55.2773C277.658 61.7728 265.031 66.3382 258.602 61.261C258.726 67.1734 253.412 74.7587 247.482 73.8319C247.864 68.9431 239.403 64.3675 241.669 49.6577Z" fill="#421E47"/>
<path d="M258.07 69.7223C258.07 69.7223 254.134 62.7149 250.864 66.6642C247.592 70.6134 253.355 73.9108 253.355 73.9108L258.07 69.7223Z" fill="#FFC9B6"/>
<path d="M161.715 43.7954C161.608 31.1022 173.904 13.7342 189.181 5.00302C198.712 -0.44343 207.148 -1.24038 212.171 2.0112L212.174 2.00863L212.192 2.01881C212.199 2.02391 212.207 2.02905 212.217 2.03668L218.051 5.96557C218.051 5.96557 217.012 9.54811 217.223 9.86639C217.251 9.90968 217.093 9.82569 216.818 9.66273C216.943 10.4572 217.025 11.2872 217.032 12.1759C217.139 24.869 204.843 42.237 189.566 50.9682C184.168 54.0542 179.136 55.6176 174.861 55.829L173.888 56.8628L173.932 56.8653L169.264 69.5966L164.699 66.7652L166.756 54.0568C163.624 52.1191 161.758 48.6613 161.715 43.7954Z" fill="#95BFE5"/>
<path d="M166.285 46.7392C166.392 59.4323 178.861 62.6431 194.138 53.912C209.413 45.1808 221.712 27.8127 221.605 15.1222C221.498 2.42906 209.029 -0.781735 193.751 7.9494C178.476 16.6805 166.178 34.0461 166.285 46.7392Z" fill="#BBD9F9"/>
<path d="M181.365 56.7157L169.27 69.5998L171.975 53.0491L181.365 56.7157Z" fill="#BBD9F9"/>
</svg>
