<svg width="322" height="252" viewBox="0 0 322 252" fill="none" xmlns="http://www.w3.org/2000/svg">
<path d="M127.099 68.6924C130.542 69.6097 137.334 75.367 139.399 77.166C137.389 80.3454 134 85.4587 132.993 85.4569C131.529 85.4534 126.27 79.6357 124.237 74.5527C123.268 72.1326 123.47 70.1846 124.334 68.916C125.136 68.5576 126.059 68.4157 127.099 68.6924Z" fill="#7F64C1"/>
<path d="M131.498 67.1723C135.27 69.0955 142.601 74.2478 142.601 74.2478C142.601 74.2478 140.307 75.731 139.401 77.1664C137.337 75.3673 130.544 69.61 127.1 68.6928C126.06 68.416 125.138 68.5579 124.336 68.9163C125.418 67.3284 129.045 65.9232 131.498 67.1723Z" fill="#967FDD"/>
<path d="M342.107 120.565L335.26 116.042L320.973 97.4415C320.973 97.4415 333.266 94.161 339.653 99.6823C346.039 105.205 342.107 120.565 342.107 120.565Z" fill="#644DAD"/>
<path d="M213.519 194.497L191.438 179.406L192.383 171.34C192.383 171.34 204.677 168.06 211.064 173.581C217.447 179.103 213.519 194.497 213.519 194.497Z" fill="#644DAD"/>
<path d="M167.438 211.168C167.438 198.183 175.333 183.1 185.071 177.478C187.532 176.056 190.454 175.327 192.775 175.333C194.595 175.336 199.247 175.514 204.075 178.498C209.623 181.927 210.371 189.718 210.371 189.718L190.562 230.407C190.562 230.407 184.182 233.539 177.629 229.95C173.55 227.716 171.089 224.026 169.968 221.982C169.476 221.086 168.731 219.28 168.509 218.598C167.815 216.487 167.438 213.998 167.438 211.168Z" fill="#3F1B44"/>
<path d="M207.489 211.59C213.343 197.833 211.78 183.996 203.996 180.684C196.213 177.372 185.158 185.839 179.303 199.595C173.449 213.352 175.013 227.19 182.796 230.502C190.579 233.814 201.635 225.347 207.489 211.59Z" fill="#4F2556"/>
<path d="M207.547 197.542C207.547 207.811 201.303 219.739 193.602 224.185C185.9 228.631 179.656 223.912 179.656 213.643C179.656 203.374 185.9 191.446 193.602 186.999C201.303 182.553 207.547 187.273 207.547 197.542Z" fill="#6E4977"/>
<path d="M194.083 189.132C187.165 193.126 181.559 203.84 181.559 213.063C181.559 222.285 187.167 226.525 194.083 222.531C201 218.538 206.607 207.823 206.607 198.601C206.609 189.377 201 185.138 194.083 189.132ZM191.368 192.226C191.675 191.783 193.029 190.704 194.019 190.159C195.092 189.57 196.238 188.697 198.658 188.878C199.182 188.917 199.714 189.226 199.971 189.501C200.362 189.918 200.284 190.436 199.845 191.286C199.432 192.088 198.829 193.245 198.259 194.093C197.975 194.517 197.801 194.323 197.214 194.378C196.625 194.432 195.99 194.479 195.529 194.676C194.388 195.166 193.547 195.704 192.745 196.348C192.342 196.671 192.144 196.566 191.982 196.337C191.551 195.729 191.224 194.891 190.973 194.055C190.822 193.552 190.855 192.966 191.368 192.226ZM200.754 201.981C200.754 206.894 197.768 212.599 194.083 214.727C190.399 216.854 187.412 214.595 187.412 209.684C187.412 204.772 190.398 199.066 194.083 196.939C197.768 194.811 200.754 197.068 200.754 201.981ZM183.379 205.84C184.302 201.933 185.237 200.485 185.994 199.034C186.693 197.694 187.823 196.004 188.183 195.704C188.785 195.205 189.102 195.395 189.301 195.849C189.629 196.598 189.928 197.467 190.064 198.406C190.116 198.759 190.087 199.116 189.748 199.619C189.078 200.618 188.443 201.725 187.71 203.326C187.413 203.971 187.121 204.96 186.846 205.868C186.571 206.775 186.599 207.13 186.258 207.401C185.577 207.947 184.724 208.416 184.131 208.733C183.505 209.069 183.203 208.977 183.15 208.182C183.118 207.657 183.18 206.684 183.379 205.84ZM186.164 221.701C185.829 221.698 184.905 220.88 184.381 220.058C183.815 219.168 183.058 218.438 182.731 215.064C182.66 214.335 182.758 213.346 182.884 212.756C183.074 211.858 183.414 211.492 184.028 211.301C184.608 211.12 185.446 210.87 186.083 210.857C186.4 210.85 186.312 211.253 186.452 211.984C186.592 212.717 186.739 213.517 186.947 213.95C187.461 215.018 187.955 215.648 188.505 216.127C188.781 216.368 188.751 216.726 188.638 217.15C188.332 218.277 187.866 219.471 187.387 220.562C187.098 221.222 186.723 221.706 186.164 221.701ZM197.7 218.091C197.377 218.612 196.755 219.411 196.187 219.913C193.563 222.233 192.482 222.304 191.43 222.617C190.46 222.904 189.193 222.938 188.939 222.73C188.517 222.386 188.579 221.79 188.829 221.112C189.241 219.996 189.734 218.811 190.3 217.78C190.513 217.392 190.744 217.106 191.12 217.099C191.87 217.085 192.681 216.921 193.82 216.444C194.28 216.253 194.954 215.743 195.577 215.284C196.198 214.826 196.414 214.468 196.648 214.672C197.115 215.08 197.564 215.791 197.871 216.288C198.194 216.813 198.19 217.299 197.7 218.091ZM204.714 206.773C204.206 208.329 203.828 210.006 201.676 213.407C201.211 214.141 200.559 214.872 200.158 215.218C199.551 215.742 199.27 215.596 199.07 214.922C198.88 214.285 198.612 213.355 198.524 212.495C198.479 212.065 198.752 211.835 199.208 211.003C199.666 210.169 200.168 209.267 200.422 208.604C201.052 206.961 201.398 205.737 201.641 204.562C201.763 203.971 201.999 203.698 202.288 203.485C203.058 202.918 203.892 202.511 204.661 202.213C205.127 202.032 205.489 202.119 205.555 202.893C205.597 203.354 205.182 205.338 204.714 206.773ZM204.678 200.448C203.906 200.781 203.083 201.055 202.361 201.097C202.09 201.113 201.886 201.021 201.864 200.489C201.822 199.431 201.676 198.408 201.304 197.176C201.153 196.679 200.78 196.137 200.443 195.627C200.106 195.12 199.856 195.104 199.984 194.604C200.239 193.601 200.699 192.375 201.022 191.527C201.362 190.631 201.692 190.236 202.248 190.284C202.613 190.315 203.181 190.546 203.545 190.942C205.228 192.773 205.324 194.256 205.58 195.498C205.817 196.644 205.895 198.425 205.766 198.958C205.553 199.843 205.147 200.246 204.678 200.448Z" fill="white"/>
<path d="M194.794 199.474C191.794 201.206 189.363 205.853 189.363 209.854C189.363 213.853 191.796 215.692 194.794 213.959C197.794 212.227 200.227 207.581 200.227 203.58C200.227 199.581 197.794 197.743 194.794 199.474Z" fill="#916A9B"/>
<path d="M184.129 208.732C184.72 208.415 185.575 207.946 186.257 207.4C186.595 207.126 186.569 206.773 186.844 205.867C187.119 204.958 187.412 203.97 187.708 203.324C188.441 201.726 189.076 200.619 189.746 199.618C190.084 199.116 190.112 198.758 190.062 198.404C189.927 197.466 189.628 196.597 189.299 195.848C189.101 195.394 188.781 195.202 188.182 195.702C187.821 196 186.691 197.691 185.992 199.033C185.235 200.486 184.3 201.933 183.377 205.838C183.178 206.683 183.114 207.655 183.15 208.179C183.201 208.975 183.503 209.067 184.129 208.732Z" fill="#4F2556"/>
<path d="M191.986 196.339C192.147 196.567 192.346 196.672 192.749 196.349C193.551 195.705 194.393 195.168 195.533 194.678C195.992 194.481 196.629 194.433 197.218 194.38C197.805 194.327 197.977 194.518 198.263 194.094C198.833 193.246 199.436 192.089 199.849 191.287C200.287 190.437 200.365 189.919 199.975 189.503C199.718 189.228 199.186 188.919 198.662 188.88C196.244 188.699 195.098 189.57 194.023 190.161C193.031 190.705 191.677 191.784 191.372 192.228C190.859 192.969 190.826 193.553 190.978 194.06C191.227 194.891 191.555 195.73 191.986 196.339Z" fill="#4F2556"/>
<path d="M205.579 195.497C205.322 194.255 205.226 192.771 203.544 190.94C203.18 190.545 202.612 190.314 202.247 190.282C201.692 190.234 201.362 190.63 201.021 191.526C200.698 192.374 200.239 193.6 199.983 194.602C199.855 195.103 200.107 195.119 200.442 195.626C200.78 196.134 201.154 196.676 201.303 197.175C201.676 198.406 201.821 199.43 201.864 200.487C201.885 201.02 202.089 201.112 202.36 201.096C203.083 201.053 203.906 200.78 204.678 200.447C205.146 200.244 205.552 199.843 205.765 198.956C205.895 198.426 205.817 196.644 205.579 195.497Z" fill="#4F2556"/>
<path d="M204.665 202.214C203.897 202.512 203.063 202.916 202.293 203.486C202.004 203.699 201.768 203.972 201.645 204.563C201.402 205.737 201.056 206.961 200.427 208.604C200.173 209.268 199.671 210.169 199.213 211.003C198.755 211.835 198.484 212.066 198.528 212.495C198.617 213.357 198.885 214.285 199.075 214.922C199.275 215.596 199.555 215.742 200.162 215.219C200.561 214.873 201.216 214.142 201.681 213.407C203.833 210.004 204.211 208.329 204.718 206.773C205.187 205.338 205.602 203.354 205.561 202.893C205.494 202.12 205.132 202.033 204.665 202.214Z" fill="#4F2556"/>
<path d="M196.645 214.67C196.413 214.466 196.195 214.823 195.574 215.282C194.953 215.742 194.279 216.249 193.817 216.443C192.678 216.92 191.867 217.081 191.117 217.097C190.739 217.104 190.51 217.392 190.297 217.779C189.731 218.811 189.238 219.996 188.826 221.111C188.576 221.788 188.514 222.384 188.936 222.729C189.19 222.934 190.457 222.902 191.427 222.615C192.478 222.303 193.558 222.232 196.184 219.911C196.752 219.409 197.374 218.611 197.697 218.089C198.187 217.3 198.191 216.812 197.866 216.286C197.561 215.79 197.112 215.078 196.645 214.67Z" fill="#4F2556"/>
<path d="M188.504 216.125C187.954 215.645 187.461 215.017 186.946 213.949C186.739 213.517 186.593 212.715 186.451 211.983C186.311 211.252 186.4 210.849 186.082 210.856C185.446 210.87 184.608 211.12 184.028 211.3C183.414 211.489 183.073 211.857 182.884 212.754C182.758 213.345 182.66 214.333 182.731 215.063C183.057 218.439 183.815 219.168 184.381 220.057C184.903 220.879 185.829 221.696 186.164 221.7C186.723 221.707 187.097 221.221 187.387 220.559C187.866 219.468 188.332 218.274 188.637 217.147C188.751 216.725 188.781 216.367 188.504 216.125Z" fill="#4F2556"/>
<path d="M297.508 135.519C297.508 122.534 305.403 107.451 315.14 101.829C317.601 100.407 320.523 99.6783 322.843 99.6836C324.664 99.6872 329.316 99.8646 334.143 102.847C339.691 106.277 340.44 114.067 340.44 114.067L320.631 154.757C320.631 154.757 314.251 157.888 307.697 154.299C303.618 152.065 301.157 148.375 300.036 146.331C299.545 145.433 298.799 143.629 298.578 142.948C297.887 140.838 297.508 138.347 297.508 135.519Z" fill="#3F1B44"/>
<path d="M337.559 135.929C343.414 122.172 341.85 108.335 334.067 105.023C326.283 101.711 315.228 110.178 309.374 123.934C303.519 137.691 305.083 151.528 312.866 154.841C320.65 158.153 331.705 149.686 337.559 135.929Z" fill="#4F2556"/>
<path d="M337.617 121.891C337.617 132.161 331.374 144.089 323.672 148.535C315.97 152.981 309.727 148.261 309.727 137.992C309.727 127.723 315.97 115.795 323.672 111.349C331.374 106.903 337.617 111.622 337.617 121.891Z" fill="#6E4977"/>
<path d="M324.161 113.481C317.243 117.475 311.637 128.19 311.637 137.412C311.637 146.634 317.245 150.875 324.161 146.881C331.078 142.887 336.685 132.173 336.685 122.95C336.687 113.728 331.078 109.488 324.161 113.481ZM321.444 116.576C321.751 116.132 323.105 115.053 324.095 114.509C325.169 113.92 326.315 113.047 328.735 113.228C329.258 113.267 329.79 113.575 330.048 113.85C330.438 114.267 330.36 114.785 329.922 115.635C329.508 116.437 328.905 117.594 328.336 118.442C328.052 118.866 327.878 118.673 327.291 118.728C326.701 118.781 326.066 118.829 325.605 119.026C324.464 119.515 323.623 120.053 322.821 120.697C322.419 121.02 322.22 120.915 322.058 120.686C321.627 120.078 321.301 119.24 321.049 118.405C320.9 117.901 320.934 117.317 321.444 116.576ZM330.832 126.33C330.832 131.243 327.846 136.949 324.161 139.076C320.476 141.203 317.49 138.945 317.49 134.034C317.49 129.121 320.476 123.415 324.161 121.288C327.846 119.161 330.832 121.419 330.832 126.33ZM313.457 130.189C314.38 126.282 315.315 124.835 316.072 123.383C316.771 122.044 317.901 120.353 318.262 120.053C318.863 119.555 319.181 119.744 319.379 120.199C319.708 120.947 320.006 121.815 320.142 122.755C320.194 123.108 320.165 123.465 319.826 123.969C319.154 124.968 318.521 126.075 317.788 127.675C317.492 128.321 317.199 129.309 316.924 130.217C316.649 131.124 316.677 131.479 316.337 131.75C315.655 132.297 314.802 132.765 314.209 133.083C313.583 133.418 313.281 133.326 313.228 132.531C313.194 132.006 313.258 131.034 313.457 130.189ZM316.243 146.05C315.907 146.047 314.983 145.229 314.461 144.408C313.895 143.517 313.138 142.788 312.811 139.413C312.74 138.684 312.838 137.696 312.964 137.105C313.154 136.207 313.494 135.842 314.108 135.65C314.688 135.469 315.526 135.219 316.163 135.207C316.48 135.199 316.392 135.602 316.532 136.333C316.672 137.066 316.819 137.866 317.027 138.299C317.541 139.367 318.034 139.997 318.584 140.476C318.861 140.717 318.831 141.076 318.718 141.5C318.414 142.626 317.946 143.82 317.467 144.911C317.174 145.571 316.801 146.056 316.243 146.05ZM327.777 142.44C327.454 142.962 326.831 143.76 326.263 144.262C323.639 146.583 322.559 146.654 321.507 146.966C320.536 147.253 319.269 147.287 319.016 147.08C318.593 146.735 318.655 146.139 318.906 145.461C319.317 144.345 319.81 143.16 320.376 142.129C320.589 141.741 320.82 141.455 321.196 141.448C321.947 141.434 322.757 141.271 323.896 140.794C324.356 140.6 325.03 140.093 325.653 139.633C326.274 139.175 326.49 138.817 326.725 139.021C327.191 139.429 327.64 140.141 327.947 140.637C328.272 141.163 328.268 141.65 327.777 142.44ZM334.792 131.124C334.284 132.68 333.907 134.357 331.754 137.758C331.29 138.492 330.637 139.223 330.236 139.569C329.629 140.093 329.349 139.947 329.148 139.273C328.958 138.636 328.69 137.706 328.602 136.846C328.557 136.417 328.831 136.186 329.287 135.354C329.744 134.52 330.246 133.619 330.5 132.955C331.13 131.314 331.476 130.088 331.719 128.913C331.841 128.323 332.077 128.051 332.367 127.836C333.137 127.269 333.97 126.862 334.739 126.564C335.205 126.383 335.567 126.47 335.633 127.244C335.674 127.705 335.258 129.689 334.792 131.124ZM334.756 124.797C333.985 125.131 333.161 125.404 332.439 125.447C332.168 125.463 331.964 125.37 331.943 124.838C331.9 123.781 331.754 122.757 331.382 121.526C331.231 121.029 330.858 120.486 330.521 119.977C330.184 119.469 329.934 119.453 330.06 118.953C330.316 117.951 330.775 116.725 331.098 115.877C331.439 114.981 331.769 114.583 332.324 114.633C332.691 114.665 333.257 114.895 333.621 115.291C335.305 117.122 335.4 118.604 335.656 119.847C335.892 120.993 335.972 122.775 335.842 123.307C335.629 124.192 335.225 124.595 334.756 124.797Z" fill="white"/>
<path d="M324.872 123.825C321.872 125.556 319.441 130.203 319.441 134.204C319.441 138.203 321.874 140.043 324.872 138.309C327.872 136.578 330.303 131.931 330.303 127.93C330.303 123.931 327.871 122.093 324.872 123.825Z" fill="#916A9B"/>
<path d="M314.207 133.082C314.798 132.764 315.653 132.296 316.335 131.749C316.674 131.476 316.647 131.123 316.922 130.216C317.197 129.308 317.49 128.32 317.786 127.674C318.519 126.075 319.154 124.968 319.825 123.968C320.162 123.466 320.19 123.107 320.14 122.754C320.006 121.816 319.706 120.946 319.377 120.197C319.179 119.743 318.859 119.552 318.26 120.052C317.9 120.35 316.769 122.041 316.07 123.382C315.313 124.835 314.378 126.283 313.455 130.188C313.256 131.033 313.193 132.005 313.228 132.528C313.278 133.325 313.581 133.417 314.207 133.082Z" fill="#4F2556"/>
<path d="M322.064 120.688C322.225 120.917 322.424 121.022 322.827 120.699C323.628 120.055 324.471 119.517 325.61 119.027C326.07 118.831 326.707 118.783 327.296 118.729C327.883 118.676 328.055 118.868 328.341 118.444C328.91 117.596 329.514 116.439 329.927 115.637C330.363 114.787 330.443 114.269 330.053 113.852C329.796 113.577 329.263 113.268 328.74 113.229C326.322 113.048 325.176 113.92 324.1 114.51C323.109 115.055 321.755 116.134 321.45 116.577C320.939 117.319 320.903 117.903 321.056 118.41C321.306 119.242 321.632 120.08 322.064 120.688Z" fill="#4F2556"/>
<path d="M326.723 139.02C326.491 138.816 326.273 139.172 325.652 139.632C325.031 140.091 324.357 140.599 323.895 140.792C322.756 141.269 321.946 141.431 321.195 141.447C320.817 141.454 320.588 141.741 320.375 142.128C319.809 143.161 319.316 144.346 318.905 145.46C318.654 146.138 318.592 146.734 319.015 147.078C319.268 147.284 320.535 147.252 321.505 146.965C322.558 146.652 323.636 146.581 326.262 144.261C326.83 143.759 327.453 142.96 327.776 142.439C328.265 141.649 328.271 141.161 327.946 140.636C327.639 140.139 327.19 139.43 326.723 139.02Z" fill="#4F2556"/>
<path d="M318.582 140.474C318.032 139.993 317.539 139.365 317.025 138.297C316.817 137.865 316.672 137.064 316.53 136.331C316.389 135.6 316.478 135.197 316.161 135.204C315.524 135.218 314.686 135.469 314.106 135.648C313.492 135.838 313.152 136.205 312.962 137.103C312.836 137.693 312.738 138.682 312.809 139.411C313.136 142.787 313.893 143.516 314.459 144.405C314.981 145.227 315.907 146.045 316.24 146.048C316.799 146.055 317.174 145.569 317.465 144.907C317.944 143.816 318.41 142.622 318.715 141.496C318.829 141.075 318.859 140.717 318.582 140.474Z" fill="#4F2556"/>
<path d="M275.58 17.1711C273.623 16.0977 268.41 14.1124 267.764 13.8321C261.006 10.9082 255.293 7.16815 250.288 4.8191C242.72 1.26892 237.259 -0.239111 236.134 0.0305684C234.76 0.358796 233.228 0.857339 231.618 1.4517C234.145 2.59429 236.627 3.80429 239.006 4.87769C245.549 7.83174 252.011 10.9809 258.347 14.359C271.048 21.1294 289.899 33.1425 297.995 38.4243C284.639 40.3121 273.433 33.8966 260.847 31.7729C248.262 29.6491 232.521 27.9175 219.756 28.652C206.863 29.3936 195.048 32.6049 183.167 37.4982C177.333 39.9022 169.243 42.4606 162.802 40.3866C160.453 42.6043 158.418 45.0457 156.451 47.7478C147.31 60.2985 139.638 74.7991 132.651 83.3916C131.812 84.0214 130.831 84.763 129.752 85.5756C123.092 90.5966 112.362 98.7207 103.624 105.541C90.6862 115.64 81.0771 124.09 73.6379 136.009C74.3387 137.061 75.1672 138.202 76.0597 139.38C74.855 138.213 73.7922 137.093 72.9175 136.048C71.1487 138.882 67.7777 145.139 66.6014 147.95C62.6804 157.317 64.6285 165.585 64.6285 170.281C64.6285 173.968 67.1265 176.308 70.8719 178.024L77.5801 181.879L146.54 221.499C146.54 221.499 139.115 202.391 171.169 180.141C203.224 157.892 253.977 124.257 287.367 101.526C320.758 78.7946 351.418 60.8822 351.418 60.8822C351.418 60.8822 293.545 27.4278 275.58 17.1711Z" fill="#7F64C1"/>
<path d="M258.345 14.3595C271.047 21.1298 289.898 33.143 297.993 38.4248C284.637 40.3143 273.431 33.897 260.845 31.7733C248.261 29.6496 232.52 27.918 219.755 28.6525C206.861 29.3941 195.047 32.6054 183.165 37.4986C177.332 39.9027 169.241 42.4611 162.801 40.387C164.969 38.3414 167.401 36.4838 170.322 34.8054C173.847 32.781 199.302 18.1669 207.536 13.4369C209.446 12.3405 222.042 4.98459 231.617 1.45215C234.145 2.59474 236.625 3.80474 239.005 4.87814C245.55 7.83396 252.01 10.9832 258.345 14.3595Z" fill="#967FDD"/>
<path d="M142.932 191.748C149.055 177.12 163.942 161.84 179.953 149.341C190.106 141.416 202.964 131.72 208.982 127.192C215.969 118.601 223.641 104.099 232.781 91.548C236.564 86.3549 240.568 82.1022 246.654 78.607C250.179 76.5826 275.634 61.9685 283.868 57.2384C286.098 55.9575 302.923 46.1195 312.464 43.8326C314.333 43.3855 324.156 46.6784 340.437 56.1225C343.197 57.7228 349.185 59.2309 351.419 60.8809C354.44 63.1111 354.817 70.089 354.675 82.3151C354.632 86.0001 355.175 104.102 351.206 109.405C351.201 109.404 351.197 109.4 351.192 109.398C349.657 112.464 347.757 115.216 345.603 117.483C345.612 117.107 345.646 116.726 345.646 116.353C345.646 97.5856 334.234 88.9594 320.159 97.0853C306.892 104.746 296.002 124.555 294.793 142.521C289.522 145.574 277.944 152.242 260.933 161.801C239.231 173.997 221.221 184.036 216.18 186.844C214.64 170.929 203.922 164.093 190.903 171.611C176.826 179.737 165.417 201.54 165.417 220.307C165.417 220.652 165.448 220.967 165.456 221.304C161.625 222.933 156.755 224.833 155.087 224.408C147.385 222.442 140.964 219.992 140.964 214.078C140.961 209.384 139.011 201.116 142.932 191.748Z" fill="#644DAD"/>
<path d="M190.898 171.611C203.917 164.094 214.635 170.93 216.175 186.844C221.216 184.038 239.226 173.997 260.928 161.802C277.941 152.24 289.519 145.575 294.788 142.521C294.796 142.094 294.847 141.57 294.897 141.075C296.571 123.504 307.242 104.541 320.154 97.0856C334.231 88.958 345.641 97.586 345.641 116.353C345.641 116.728 345.607 117.109 345.598 117.484C344.534 118.603 343.412 119.615 342.231 120.47C342.184 120.503 342.144 120.532 342.098 120.565C342.115 120.072 342.153 119.575 342.153 119.088C342.153 103.125 332.448 95.7887 320.475 102.699C308.503 109.611 298.798 128.155 298.798 144.118C298.798 144.743 298.839 145.332 298.867 145.93L296.669 147.186L294.762 148.271L216.306 192.907L213.51 194.497C213.533 193.948 213.571 193.398 213.571 192.855C213.571 176.893 203.866 169.557 191.893 176.467C179.921 183.379 170.216 201.923 170.216 217.886C170.216 218.353 170.252 218.787 170.268 219.238C169.606 219.476 167.706 220.341 165.445 221.303C165.438 220.966 165.406 220.65 165.406 220.306C165.41 201.54 176.822 179.739 190.898 171.611Z" fill="#4F3D9B"/>
<path d="M163.767 49.0376C167.059 51.596 173.382 56.1273 183.686 62.0762C200.483 71.774 231.735 86.9985 231.735 86.9985L208.971 121.856C195.73 110.262 151.671 84.7098 142.965 80.1146C145.717 75.0652 155.773 59.6864 163.767 49.0376Z" fill="#BBD9F9"/>
<path d="M160.669 103.667C137.849 90.4653 134.531 85.5436 134.531 85.5436L160.917 46.6797C160.917 46.6797 161.801 47.5064 163.772 49.0376C155.777 59.6863 145.721 75.0652 142.968 80.1163C151.675 84.7115 195.732 110.264 208.973 121.858L206.168 126.26C206.168 126.26 185.046 117.77 160.669 103.667Z" fill="#95BFE5"/>
<path opacity="0.5" d="M230.455 88.9695C230.455 88.9695 195.575 83.9591 176.46 75.6203C154.329 65.9669 150.074 62.6509 150.074 62.6509L160.918 46.6777C160.918 46.6777 172.092 55.2259 187.404 64.1838C196.752 69.6519 231.741 86.9966 231.741 86.9966L230.455 88.9695Z" fill="white"/>
<path d="M77.9802 159.227C77.7318 155.208 76.1882 149.797 73.6369 148.965C73.5269 148.929 73.275 149.208 72.9609 149.637C72.968 149.142 72.9858 148.649 73.0213 148.157C74.2153 147.352 77.2226 145.083 77.2421 145.214C83.9202 157.401 114.626 175.581 135.55 175.826C137.414 175.847 130.752 181.22 130.291 181.085C125.956 179.809 120.33 180.15 115.945 181.944C109.77 178.454 103.174 175.686 97.0671 171.997C92.0887 168.99 84.2751 163.742 77.9802 159.227Z" fill="#3F1B44"/>
<path d="M99.8376 185.12C93.202 181.845 84.5972 176.008 78.4513 172.071C77.2626 171.309 77.0745 169.376 77.2164 167.261C83.9247 172.984 97.0911 180.638 108.324 185.808C105.621 187.006 102.683 186.525 99.8376 185.12Z" fill="#3F1B44"/>
<path d="M114.152 182.79C113.274 183.263 111.802 184.025 110.288 184.818C104.746 181.862 98.9617 179.311 93.5575 176.046C88.0965 172.748 82.6018 169.276 77.3945 165.514C77.6003 163.9 77.8877 162.338 77.9818 161.24C86.961 168.234 102.947 177.753 114.152 182.79Z" fill="#3F1B44"/>
<path d="M110.289 184.817C109.806 185.071 109.32 185.326 108.853 185.575C108.681 185.667 108.504 185.729 108.33 185.805C97.0973 180.635 83.9309 172.981 77.2227 167.258C77.2617 166.683 77.3221 166.097 77.3966 165.514C82.6039 169.275 88.0985 172.747 93.5595 176.045C98.962 179.31 104.746 181.861 110.289 184.817Z" fill="#4F2556"/>
<path d="M78.0085 160.779C78.0245 160.298 78.0121 159.775 77.9783 159.227C84.2732 163.74 92.0868 168.99 97.0652 171.997C103.172 175.684 109.769 178.454 115.943 181.943C115.361 182.181 114.795 182.44 114.263 182.729C114.232 182.747 114.181 182.772 114.147 182.79C102.941 177.751 86.9558 168.234 77.9766 161.242C77.9908 161.081 78.0032 160.921 78.0085 160.779Z" fill="#4F2556"/>
<path d="M127.876 182.671C130.449 176.172 138.442 171.899 145.686 170.56C148.837 169.978 159.31 168.033 161.751 172.508C162.374 173.65 160.275 175.783 157.759 177.245C152.584 180.251 147.909 185.174 146.149 189.624C145.333 191.685 144.401 193.607 142.968 195.191C141.105 197.251 133.971 193.715 131.804 192.186C128.167 189.62 125.845 187.8 127.876 182.671Z" fill="#BBD9F9"/>
<path d="M81.3058 125.674C82.5566 133.979 76.652 146.876 73.643 152.954C72.0001 156.274 67.8023 156.293 65.1055 152.503C66.1877 147.431 70.7528 135.702 81.3058 125.674Z" fill="#BBD9F9"/>
<path d="M64.1629 158.431C64.2978 158.13 64.7378 157.879 65.066 157.913C69.3454 158.359 71.2225 161.763 72.1238 165.667C73.2593 170.593 74.205 173.654 79.0627 176.516C82.6413 178.624 86.3103 180.595 89.9333 182.628C96.0135 186.041 102.094 189.457 108.174 192.872C111.311 193.708 114.311 193.793 116.781 192.398C120.302 190.411 122.76 188.689 126.262 191.85C130.733 195.885 134.212 202.084 134.445 207.949C134.531 210.133 134.452 210.634 131.425 209.15C124.177 205.599 116.023 199.866 110.528 200.801C107.702 199.222 85.2103 186.801 78.2182 182.238C77.6221 180.453 76.1228 179.079 74.3699 177.912C70.4649 175.309 66.6859 173.326 64.6242 169.639C64.147 166.809 63.5154 163.472 64.1629 158.431Z" fill="#3F1B44"/>
<path d="M122.261 193.588C124.042 194.617 125.486 197.376 125.486 199.751C125.486 202.127 124.042 203.218 122.261 202.191C120.479 201.162 119.035 198.403 119.035 196.027C119.035 193.651 120.479 192.56 122.261 193.588Z" fill="#916A9B"/>
<path d="M68.4352 163.025C70.0515 163.958 71.3627 166.464 71.3627 168.617C71.3627 170.771 70.0515 171.763 68.4352 170.83C66.8189 169.897 65.5078 167.391 65.5078 165.238C65.5078 163.082 66.8189 162.092 68.4352 163.025Z" fill="#916A9B"/>
<path d="M129.358 200.574C130.52 201.245 131.462 203.045 131.462 204.594C131.462 206.143 130.52 206.856 129.358 206.184C128.196 205.513 127.254 203.714 127.254 202.164C127.254 200.613 128.196 199.903 129.358 200.574Z" fill="#916A9B"/>
<path d="M296.281 62.4298C303.811 58.4414 311.429 57.4673 317.866 64.2058C319.684 66.1095 321.081 68.4018 322.663 70.5308L217.82 131.107V122.016C221.885 115.393 226.823 107.498 231.232 100.864C246.302 91.5391 259.619 85.2035 273.491 76.5489C281.023 71.8508 288.435 66.585 296.281 62.4298Z" fill="#95BFE5"/>
<path d="M241.528 87.2451C248.135 82.0662 272.112 67.4574 291.467 56.6915C302.414 50.6024 307.653 47.4781 312.647 48.2552C317.017 48.9347 318.882 51.1525 321.976 55.0752C326.2 60.4316 330.029 66.2758 330.029 66.2758L322.666 70.5303C321.084 68.4013 319.687 66.109 317.869 64.2053C311.432 57.4669 303.814 58.4409 296.284 62.4293C288.438 66.5845 281.026 71.8503 273.494 76.5467C259.622 85.1995 246.304 91.5352 231.234 100.862C235.684 94.1699 239.596 88.7603 241.528 87.2451Z" fill="#74A9D1"/>
<path opacity="0.5" d="M135.064 97.5C140.754 101.396 152.191 109.126 163.29 116.081C164.323 116.727 163.821 118.198 162.698 118.269C151.634 118.964 141.329 115.407 132.639 109.007C124.731 103.185 135.047 97.5142 135.064 97.5Z" fill="white"/>
<path d="M129.363 182.749C130.132 180.646 133.618 176.645 137.653 177.02C141.999 177.424 147.533 177.988 144.49 182.727C142.587 185.69 141.896 188.525 141.063 190.278C140.099 192.306 138.559 194.199 135.882 192.702C131.377 190.186 127.364 188.227 129.363 182.749Z" fill="white"/>
<path d="M75.2764 138.512C76.6833 139.731 74.4496 145.989 72.8404 149.967C71.2312 153.944 70.2696 153.999 68.1405 152.873C66.0115 151.746 67.1381 147.027 69.2671 143.521C71.3979 140.015 73.3993 136.884 75.2764 138.512Z" fill="white"/>
<path d="M264.145 71.352C264.145 71.352 266.137 95.1885 266.137 106.96C266.137 118.269 273.486 107.386 273.59 105.207C274.061 95.3268 269.469 68.8291 269.469 68.8291L264.145 71.352Z" fill="#644DAD"/>
<path d="M146.075 211.525C147.078 212.861 148.167 214.115 149.414 215.23C150.555 216.248 152.023 216.983 153.03 218.129C153.314 218.452 153.032 218.867 152.635 218.808C151.047 218.574 149.571 217.274 148.448 216.195C147.172 214.969 146.12 213.539 145.346 211.949C145.103 211.454 145.752 211.096 146.075 211.525Z" fill="#4F3D9B"/>
<path d="M155.247 215.096C155.724 214.078 156.775 213.297 157.582 212.54C158.396 211.775 159.202 210.867 160.192 210.336C160.545 210.146 160.905 210.522 160.728 210.872C160.217 211.876 159.322 212.703 158.575 213.535C157.836 214.36 157.078 215.423 156.072 215.921C155.513 216.196 154.99 215.646 155.247 215.096Z" fill="#4F3D9B"/>
<path opacity="0.5" d="M297.511 118.355C297.511 118.355 288.83 118.776 263.274 132.194C235.467 146.796 229.846 150.394 210.367 168.312C216.863 171.818 218.853 179.59 218.853 179.59C218.853 179.59 272.322 148.221 291.638 137.403C292.323 130.182 293.462 125.486 297.511 118.355Z" fill="#7F64C1"/>
<path d="M308.492 46.7964C308.492 46.7964 317.732 67.952 319.437 75.5438C320.239 79.1135 315.978 82.6229 315.593 81.0545C313.738 73.4893 309.857 57.8106 306.046 47.7278C305.813 47.1157 308.492 46.7964 308.492 46.7964Z" fill="#644DAD"/>
<path d="M267.478 70.8374C267.478 70.8374 270.805 95.0322 271.605 107.613C273.092 130.937 270.094 154.96 270.094 154.96C270.094 154.96 270.232 140.973 269.927 134.271C269.384 122.321 269.318 106.916 268.3 98.5061C267.063 88.308 266.141 71.6517 266.141 71.6517L267.478 70.8374Z" fill="#4F3D9B"/>
<path d="M260.808 110.232C263.136 109.332 264.651 109.057 265.073 110.43C265.671 112.373 262.91 113.793 261.924 114.309C259.667 115.49 256.827 117.593 255.716 115.276C254.587 112.923 258.924 110.959 260.808 110.232Z" fill="#4F2556"/>
<path d="M312.1 80.3845C314.428 79.485 315.943 79.21 316.366 80.5832C316.963 82.526 314.203 83.9454 313.216 84.4616C310.96 85.6433 308.119 87.7457 307.008 85.4268C305.882 83.076 310.216 81.1119 312.1 80.3845Z" fill="#4F2556"/>
<path d="M220.186 172.754C221.42 173.369 222.526 174.231 223.658 175.017C224.568 175.651 225.849 176.227 226.362 177.237C226.557 177.62 226.237 178.019 225.822 177.938C224.72 177.721 223.801 176.63 222.953 175.931C221.891 175.056 220.764 174.228 219.836 173.208C219.611 172.961 219.889 172.604 220.186 172.754Z" fill="#4F3D9B"/>
<path d="M247.059 162.079C247.536 160.625 247.77 159.124 248.155 157.646C248.296 157.104 249.089 157.236 249.108 157.775C249.165 159.345 248.819 160.944 248.397 162.448C248.079 163.577 247.744 165.255 246.633 165.826C246.445 165.924 246.179 165.848 246.127 165.621C245.856 164.441 246.693 163.194 247.059 162.079Z" fill="#4F3D9B"/>
<path d="M243.459 157.749C243.675 158.652 243.892 159.557 244.108 160.46C244.287 161.21 244.529 161.932 244.371 162.701C244.28 163.141 243.732 163.103 243.512 162.812C243.038 162.186 242.964 161.366 242.799 160.612C242.616 159.768 242.433 158.925 242.251 158.081C242.082 157.298 243.271 156.963 243.459 157.749Z" fill="#4F3D9B"/>
<path d="M258.437 157.461C259.047 156.35 259.881 155.38 260.426 154.228C261.061 152.885 261.418 151.358 261.512 149.876C261.535 149.514 262.124 149.378 262.188 149.784C262.645 152.663 261.732 156.552 258.854 157.878C258.586 158.002 258.281 157.745 258.437 157.461Z" fill="#4F3D9B"/>
<path d="M282.763 137.826C283.59 138.472 284.267 139.249 285.069 139.934C285.745 140.512 286.927 140.986 287.305 141.811C287.447 142.121 287.276 142.446 286.927 142.471C285.908 142.54 284.908 141.422 284.26 140.743C283.464 139.907 282.837 139.05 282.592 137.927C282.571 137.819 282.685 137.766 282.763 137.826Z" fill="#4F3D9B"/>
<path d="M278.078 146.527C278.422 145.76 279.116 145.217 279.463 144.428C279.815 143.629 279.854 142.824 280.053 141.994C280.145 141.61 280.762 141.495 280.94 141.878C281.726 143.576 280.746 146.926 278.759 147.412C278.211 147.545 277.868 146.995 278.078 146.527Z" fill="#4F3D9B"/>
<path opacity="0.5" d="M231.43 11.8663C231.496 11.0804 233.268 9.57585 233.534 9.49601C237.374 7.97729 241.16 9.46939 244.454 11.4831C247.359 13.2573 251.281 15.6276 253.671 18.5941C254.764 19.9478 255.401 21.3069 252.467 21.3033C249.683 21.2998 235.358 16.5289 232.771 14.9233C231.242 13.9705 230.978 12.8226 231.43 11.8663Z" fill="white"/>
<path d="M263.399 55.872C276.757 49.696 287.732 41.831 301.998 38.0909C302.436 37.9756 302.756 38.6427 302.317 38.8485C289.747 44.769 242.91 69.6434 232.082 77.677C236.477 70.8374 252.398 60.9569 263.399 55.872Z" fill="#4F3D9B"/>
<path d="M200.484 19.9516C213.842 13.7756 224.818 5.91055 239.084 2.17052C239.522 2.0552 239.842 2.7223 239.403 2.92811C226.833 8.84863 179.996 33.7229 169.168 41.7565C173.564 34.917 189.486 25.0365 200.484 19.9516Z" fill="#4F3D9B"/>
<path d="M91.5948 166.714C90.5391 168.541 91.648 171.158 94.0698 172.556C96.4916 173.954 99.3108 173.606 100.366 171.777C101.422 169.95 100.313 167.333 97.8914 165.935C95.4697 164.537 92.6504 164.884 91.5948 166.714Z" fill="white"/>
<path d="M220.663 133.455C220.663 133.455 213.575 134.878 212.075 133.978C210.576 133.078 210.681 130.224 212.62 129.672C214.559 129.12 218.754 129.672 218.754 129.672L220.663 133.455Z" fill="#4F2556"/>
<path d="M230.202 131.657C226.32 127.93 219.422 123.868 216.773 122.843C216.976 122.625 217.173 122.398 217.391 122.208C219.298 120.54 220.797 122.029 222.674 122.923C227.11 125.039 233.518 128.671 236.199 133.978C238.415 138.362 238.043 141.355 234.567 141.79C235.36 138.887 233.706 135.023 230.202 131.657Z" fill="#967FDD"/>
<path d="M221.953 138.257C215.36 135.138 213.802 130.701 214.564 127.064C214.908 125.421 215.736 123.964 216.776 122.841C219.425 123.867 226.323 127.928 230.205 131.656C233.709 135.021 235.363 138.885 234.569 141.788C232.057 142.104 227.938 141.091 221.953 138.257Z" fill="#7F64C1"/>
<path d="M107.268 123.173C117.853 114.824 133.433 102.988 142.586 96.0668C136.679 91.7679 132.43 88.5708 132.43 88.5708C132.43 88.5708 109.52 105.312 96.9655 116.318C92.0616 120.617 89.0401 123.576 85.7259 128.045C85.5786 131.918 82.5785 141.641 82.1367 144.795C83.0859 146.138 84.4112 147.552 85.9885 148.984C88.1442 143.539 93.5998 133.955 107.268 123.173Z" fill="#4F2556"/>
<path d="M122.262 125.449C125.816 127.623 162.31 148.738 169.366 152.818C182.649 142.977 199.525 129.2 199.525 129.2C199.525 129.2 178.359 120.37 164.845 111.582C157.737 106.961 149.143 100.836 142.589 96.0669C133.436 102.988 117.857 114.824 107.272 123.173C93.6036 133.955 88.1478 143.539 85.9922 148.984C88.4459 151.209 91.5153 153.478 94.7603 155.599C95.9881 151.685 99.7866 141.121 106.901 134.131C115.776 125.416 118.327 123.042 122.262 125.449Z" fill="#3F1B44"/>
<path d="M134.463 171.01C137.103 169.246 142.601 167.261 152.081 165.517C153.997 164.03 155.204 162.858 163.159 157.302C165.066 155.97 167.169 154.448 169.363 152.819C162.307 148.737 125.814 127.622 122.26 125.45C118.325 123.044 115.774 125.418 106.903 134.133C99.788 141.124 95.9895 151.685 94.7617 155.601C97.9553 157.688 101.317 159.632 104.428 161.245C114.81 166.631 126.614 169.933 134.463 171.01Z" fill="#4F2556"/>
<path d="M120.21 127.853C118.035 126.567 112.201 132.587 108.333 136.985C104.464 141.383 100.768 148.42 102.579 149.923C103.72 150.868 106.264 148.837 109.566 145.209C111.505 143.078 116.053 137.688 118.106 135.951C123.646 131.256 123.985 130.087 120.21 127.853Z" fill="#3F1B44"/>
<path d="M130.507 133.298C128.331 132.012 122.5 138.032 118.63 142.43C114.761 146.828 111.065 153.865 112.876 155.367C114.017 156.313 116.561 154.28 119.863 150.653C121.802 148.523 126.35 143.132 128.402 141.396C133.945 136.701 134.284 135.534 130.507 133.298Z" fill="#3F1B44"/>
<path d="M142.268 139.394C140.093 138.108 134.26 144.128 130.392 148.526C126.522 152.924 122.827 159.961 124.638 161.464C125.779 162.409 128.323 160.376 131.625 156.75C133.564 154.619 138.111 149.229 140.164 147.492C145.705 142.797 146.044 141.628 142.268 139.394Z" fill="#3F1B44"/>
<path d="M153.167 145.965C150.992 144.678 145.16 150.698 141.29 155.096C137.421 159.495 133.725 166.531 135.536 168.034C136.677 168.98 139.222 166.948 142.523 163.32C144.463 161.189 149.01 155.799 151.063 154.062C156.605 149.367 156.944 148.198 153.167 145.965Z" fill="#3F1B44"/>
<path d="M179.287 118.356C159.127 107.961 133.327 87.0799 120.423 79.6282C109.316 73.2163 102.251 71.7259 97.7361 72.1464C96.9998 74.6817 97.4114 78.0439 101.941 81.4379C111.108 88.3041 143.835 110.027 162.695 118.269C162.695 118.269 175.815 124.134 181.555 126.51C185.403 128.103 197.168 131.103 197.168 131.103L199.517 129.198C199.517 129.198 188.627 123.173 179.287 118.356Z" fill="#644DAD"/>
<path d="M97.7344 72.1479C93.8063 72.5134 91.8068 74.3231 90.76 75.6006C85.982 81.4377 85.3096 82.9547 94.9152 90.4205C107.127 99.9125 134.75 117.433 143.438 118.355C154.99 119.58 162.692 118.268 162.692 118.268C143.832 110.027 111.105 88.3038 101.937 81.4377C97.4079 78.0454 96.9963 74.6833 97.7344 72.1479Z" fill="#7F64C1"/>
<path d="M76.1197 122.572C76.1197 122.572 69.9188 116.888 64.9599 121.832C60.0028 126.777 59.7225 132.678 62.5239 136.455C65.329 140.231 76.1197 122.572 76.1197 122.572Z" fill="#E83A3A"/>
<path d="M80.8717 223.841C80.4689 224.987 79.5144 227.312 78.3062 229.354C76.7608 231.967 78.5581 233.397 80.5186 234.603C82.4809 235.81 85.7631 234.855 90.8604 232.139C95.9595 229.423 98.1914 226.735 98.3724 224.986C98.5534 223.236 95.9861 220.696 91.5825 222.071C87.179 223.447 84.9435 224.485 84.9435 224.485L80.8717 223.841Z" fill="#F95555"/>
<path d="M56.6772 162.528C56.6772 162.528 51.7627 175.648 58.4089 178.907C58.3663 186.827 63.7421 192.585 65.1775 195.524C64.8971 195.945 61.8118 196.241 59.1416 198.493C56.7943 200.473 54.7327 204.094 52.3517 206.489C48.7004 210.163 47.3733 211.166 45.1289 213.128C45.1218 216.598 48.8814 218.259 48.8814 218.259C48.8814 218.259 58.235 212.635 62.6332 209.436C68.9494 204.841 74.5648 201.743 74.7475 198.319C74.9302 194.895 71.3978 181.808 71.3978 181.808C71.3978 181.808 79.3586 191.25 89.0156 195.526C87.1332 198.342 85.6535 200.487 84.3583 207.983C83.4021 213.52 80.8685 223.843 80.8685 223.843C80.8685 223.843 84.2448 227.011 87.0623 225.122C90.0891 217.019 100.702 197.244 100.449 193.216C100.195 189.189 80.6219 164.279 80.6219 164.279L56.6772 162.528Z" fill="#6E57B5"/>
<path d="M86.2882 125.752L81.3471 129.804C78.6822 128.857 76.6543 125.708 75.5117 122.693C76.4875 121.913 79.9436 119.936 80.1867 118.891C79.1594 116.017 80.7137 113.597 83.3821 111.017C86.1765 108.311 91.2205 108.338 94.2455 110.728C94.6873 110.9 96.9441 112.525 96.6425 115.266C96.3054 118.323 94.5596 125.67 91.9604 126.994C90.1471 127.915 88.0341 126.412 86.2882 125.752Z" fill="#FFC9B6"/>
<path d="M79.181 110.973C79.4418 108.64 80.7104 106.548 83.2138 105.402C86.033 104.11 91.0646 103.926 93.3338 106.468C93.3764 106.388 93.3941 106.296 93.4509 106.223C94.1517 105.322 95.3032 105.462 96.13 106.089C96.7811 106.582 97.2708 107.302 97.5866 108.101C98.0728 107.943 98.621 107.934 99.0858 108.125C100.723 108.803 100.661 111.126 100.083 112.481C98.8835 115.293 94.4445 118.368 91.1711 117.601C91.3343 119.239 90.5359 120.126 89.223 121.2C87.1738 122.876 84.2268 122.965 81.9062 121.815C79.2786 120.513 76.8887 117.504 77.0768 114.44C77.1655 113.001 77.9976 111.647 79.181 110.973Z" fill="#301333"/>
<path d="M92.3276 118.339C92.3276 118.339 91.7332 116.423 89.9271 117.622C88.1209 118.822 90.2819 122.395 90.2819 122.395L92.3276 118.339Z" fill="#FFC9B6"/>
<path d="M74.2388 121.454C77.2673 122.765 77.0562 123.313 83.3546 128.158C89.6531 133.004 89.9813 135.857 89.4065 138.858C88.8334 141.86 88.3987 143.4 85.9467 149.254C82.8259 156.707 78.8286 160.756 78.8286 160.756C78.8286 160.756 80.9755 161.416 81.9442 162.019C82.9129 162.622 83.1524 165.938 82.0684 166.957C78.9688 169.87 66.1059 177.235 55.5156 166.63C55.9964 158.293 59.0019 141.454 61.1363 134.877C63.5528 127.44 71.5828 120.304 74.2388 121.454Z" fill="#F95555"/>
<path d="M82.4699 133.17C85.6954 131.464 88.5979 132.319 90.5673 136.387C91.7436 138.82 91.8075 141.658 93.1825 143.926C94.6197 146.292 96.9776 148.594 98.5193 151.14C101.952 151.606 109.645 158.249 111.558 159.228C113.471 160.208 118.009 160.699 120.017 162.282C121.352 163.332 122.258 168.309 122.258 168.309C122.258 168.309 120.106 168.908 118.211 168.309C115.949 167.592 114.645 165.713 112.667 164.817C109.931 163.577 107.321 163.147 103.352 162.282C100.815 161.728 95.5759 158.825 94.3038 157.144C93.8177 156.501 88.7736 153.46 85.6971 150.929C77.8037 144.437 76.4535 136.353 82.4699 133.17Z" fill="#FFB9A4"/>
<path d="M78.0945 162.546C78.0945 162.546 74.1718 164.68 70.5507 165.638C66.9295 166.596 66.4771 166.469 63.8867 166.971C64.8927 166.971 70.5223 167.531 72.8376 166.144C75.1512 164.758 78.0945 162.546 78.0945 162.546Z" fill="#E83A3A"/>
<path d="M65.7969 160.823C65.7969 160.823 67.8833 162.546 70.99 162.244C74.0948 161.942 76.0571 161.565 76.0571 161.565C76.0571 161.565 72.7127 160.608 70.99 160.823C69.2672 161.036 65.7969 160.823 65.7969 160.823Z" fill="#E83A3A"/>
<path d="M45.1296 213.128C45.1296 213.128 40.6373 215.819 39.0281 216.825C38.9979 217.542 39.8992 219.616 42.3778 224.043C44.8563 228.469 49.283 230.772 52.9041 228.414C56.5253 226.055 58.9825 222.263 55.9433 221.243C52.9041 220.221 50.2889 221.243 50.2889 221.243C50.2889 221.243 49.2723 218.813 48.1723 216.197C47.0705 213.58 45.1296 213.128 45.1296 213.128Z" fill="#F95555"/>
<path d="M39.026 216.824C39.026 216.824 42.9949 217.131 44.2014 221.24C45.4078 225.349 47.6983 228.415 48.7061 229.245C45.1257 228.819 44.0186 227.584 41.7867 223.387C39.9007 219.842 38.0218 217.503 39.026 216.824Z" fill="#301333"/>
<path d="M49.624 219.657C49.4147 219.664 49.9984 221.165 49.6329 222.558C49.2266 224.109 49.4377 225.07 50.4189 224.089C51.4 223.108 50.8358 221.073 50.8358 221.073C50.8358 221.073 50.559 219.624 49.624 219.657Z" fill="#301333"/>
<path d="M88.0508 223.256C88.5227 223.623 90.6056 224.478 91.8635 226.068C93.1214 227.657 94.4982 226.355 93.5934 224.744C92.6885 223.135 90.3519 222.464 90.3519 222.464C90.3519 222.464 88.4872 222.8 88.0508 223.256Z" fill="#301333"/>
<path d="M89.2 133.667C91.7921 137.56 96.2915 144.994 96.2915 144.994C96.2915 144.994 97.4856 148.379 93.9283 152.236C90.371 156.095 85.6977 154.596 85.6977 154.596C85.6977 154.596 80.5259 151.269 78.0953 143.963C76.0762 137.888 76.5854 134.17 81.0635 131.544C83.2972 130.234 86.6079 129.777 89.2 133.667Z" fill="#E83A3A"/>
<path d="M54.4909 93.4785C54.4909 93.4785 58.0393 93.2797 60.4788 93.4785C62.9184 93.6772 63.7966 93.8741 64.5719 94.1012C65.3473 94.3283 65.5619 95.313 64.4708 95.4514C62.7232 95.6714 62.3631 95.4514 61.6977 96.0156C61.2755 96.3739 62.9344 97.0889 64.8026 97.7436C66.6708 98.3983 69.0163 98.7336 69.6817 99.1985C70.347 99.6651 69.0163 102.153 65.3561 102.16C61.6959 102.167 58.6763 101.099 57.2604 100.105C55.4774 98.8543 51.8828 97.3374 51.8828 97.3374L54.4909 93.4785Z" fill="#FFC9B6"/>
<path d="M10.6976 179.61C10.6976 179.61 9.79626 182.958 9.90804 184.898C10.0216 186.835 10.4829 187.298 11.0684 187.951C11.6539 188.604 12.3423 188.323 12.3423 188.323C12.3423 188.323 12.6119 192.319 14.5068 193.935C16.4016 195.55 19.8365 195.704 21.4138 195.117C22.9911 194.531 21.9549 191.668 20.4096 188.863C18.866 186.058 16.8966 183.038 16.4034 180.503C12.6279 179.983 10.6976 179.61 10.6976 179.61Z" fill="#301333"/>
<path d="M38.923 153.553C39.9609 147.449 41.1691 147.861 41.1424 142.189C41.13 139.402 40.1329 133.027 38.1157 119.793C37.0689 112.92 35.4331 111.767 33.2703 107.434C33.0468 106.987 26.0883 110.553 22.9143 112.233C22.6269 112.386 19.8591 119.713 21.0709 125.435C21.5357 127.63 28.7319 142.478 31.2087 145.23C25.0238 151.333 26.5301 156.961 28.4055 172.132C29.9863 174.256 32.8534 174.054 35.724 172.379C35.7258 169.258 38.2257 157.651 38.923 153.553Z" fill="#301333"/>
<path d="M26.7304 125.181C30.6212 120.423 29.8193 116.809 27.951 111.147C27.8481 110.837 11.6727 108.672 11.4757 109.018C5.34055 119.77 8.81622 137.393 13.289 147.919C11.2025 153.017 9.55606 153.464 7.99654 160.188C6.65169 165.988 10.5407 172.499 10.8778 179.745C13.0938 181.26 16.2537 181.942 17.3608 179.208C21.1683 170.12 24.0903 160.985 21.5018 151.264C22.6674 148.209 26.4199 132.903 26.7304 125.181Z" fill="#3F1B44"/>
<path d="M57.2113 93.3892C54.6671 90.3855 47.3787 86.6632 45.3508 86.0866C45.3472 86.0849 43.0071 82.194 41.9993 79.9283C41.2293 78.1967 40.4185 73.5784 38.8164 70.7255C37.0262 67.5355 35.0089 66.6555 32.1241 65.7152C31.347 65.4614 30.538 65.4739 29.9347 66.1694C29.1168 67.1133 29.2836 68.7508 29.2729 69.8633C29.2552 71.751 29.2818 73.6388 29.2942 75.5265C29.3102 77.8081 32.848 83.2408 33.4902 84.206C34.2691 85.3752 36.0043 89.6705 36.5862 90.9532C36.902 91.6505 37.7537 93.0397 40.5037 94.1557C41.5576 94.5832 50.4552 99.1927 55.1409 99.9325C55.3378 99.0188 56.8157 95.5431 57.2113 93.3892Z" fill="#3F1B44"/>
<path d="M29.9269 68.6252C26.0006 66.9823 21.3291 69.106 21.4994 68.9144C21.6165 68.7831 16.0508 72.0033 16.042 72.0246C12.0677 73.5078 7.99242 74.5813 5.65402 79.9216C4.51498 82.5208 8.61336 88.0865 10.3219 95.6269C11.0902 99.0174 11.1718 103.854 9.91741 106.105C9.04095 107.681 7.10708 110.04 12.7792 111.824C14.4292 112.342 22.0938 115.305 26.563 114.476C28.63 114.093 38.5708 108.586 35.5387 106.478C34.735 105.921 34.0768 104.814 34.6552 103.794C35.1395 102.94 36.0125 101.382 35.6416 99.6898C34.735 95.5311 35.4713 93.8935 36.0852 90.6413C38.9612 87.6305 36.4205 83.0903 34.6569 78.2379C33.4611 74.945 33.9544 70.3125 29.9269 68.6252Z" fill="#BBD9F9"/>
<path d="M28.9902 67.76C28.9902 67.7032 28.9938 67.6393 28.9955 67.579C26.666 67.9356 23.5949 66.5996 21.5776 65.1909C20.4935 67.838 20.231 68.844 18.5898 71.5142C19.4681 71.5568 21.1997 73.9714 22.6368 76.5068C23.2471 77.5837 25.8818 80.3675 27.5389 79.7252C30.0938 78.7335 28.8146 76.6896 28.8909 73.8118C28.9459 71.7963 28.9867 69.7755 28.9902 67.76Z" fill="#FFB9A4"/>
<path d="M30.8425 88.5851C30.4096 86.2698 29.7461 84.1106 29.2759 82.7196V82.716C29.1748 82.4179 30.0513 79.7318 30.0513 79.7318L27.5355 78.7383L26.0664 80.5054C26.0664 80.5054 26.902 82.4694 27.8725 82.9839C27.8193 85.553 27.7271 90.2564 27.6721 94.5216C27.5833 101.333 27.6721 106.231 27.6721 106.231C27.6721 106.231 29.2759 108.502 30.9029 109.569C32.0313 107.544 32.473 104.97 32.473 104.97C32.473 104.97 31.5717 92.4866 30.8425 88.5851Z" fill="#F95555"/>
<path d="M16.6172 71.5635C16.6172 71.5635 20.8203 73.3749 22.5803 74.8333C24.9382 76.7849 26.063 77.3119 27.2376 78.4385C27.3493 78.1564 27.6669 72.8551 27.6669 72.8551C27.6669 72.8551 29.6327 73.1017 29.615 73.1372C29.599 73.1727 30.7399 74.223 31.187 76.329C31.6341 78.4368 30.8374 80.988 30.8374 80.988L27.5694 78.992L25.3321 82.984C25.3321 82.984 20.9657 79.2458 18.9751 76.9677C16.9862 74.6914 16.6172 71.5635 16.6172 71.5635Z" fill="white"/>
<path d="M29.2742 68.611C29.2742 68.611 33.0728 68.3698 34.886 72.5054C36.6992 76.6411 38.0636 82.0329 38.1222 88.4378C38.1647 93.111 37.141 99.2143 37.9305 102.539C38.6101 105.401 42.4033 115.933 42.4033 115.933C42.4033 115.933 42.1123 120.255 40.7143 121.963C38.9081 124.167 36.9441 123.979 36.9441 123.979C36.9441 123.979 34.5932 110.92 34.3555 108.862C34.1177 106.803 33.3442 95.9285 33.5571 92.7012C33.77 89.4739 31.9213 78.7204 31.1903 76.3324C30.4593 73.9443 26.0664 69.051 26.0664 69.051L29.2742 68.611Z" fill="#4A2151"/>
<path d="M28.5229 72.0162C28.5229 72.0162 29.8145 73.6698 30.8506 76.1661C31.8868 78.6624 32.2203 84.1482 32.5148 87.3506C32.8111 90.5531 33.4995 93.7697 33.4995 93.7697C33.4995 93.7697 34.7095 90.287 34.9313 87.9202C35.1531 85.5552 35.4564 83.733 35.4564 83.733L33.8029 82.4397L35.334 78.7404C35.334 78.7404 31.2942 69.9421 29.5892 69.4329C27.8859 68.922 28.5229 72.0162 28.5229 72.0162Z" fill="#572D60"/>
<path d="M18.3976 70.4697C18.3976 70.4697 23.211 76.7983 24.625 85.554C26.0408 94.3079 25.1466 103.324 24.625 109.58C23.9668 117.47 23.3813 128.694 23.3813 128.694C23.3813 128.694 15.5411 129.989 11.1446 129.058C6.4465 128.062 4.79297 123.463 4.79297 123.463C4.79297 123.463 4.79297 113.87 8.78493 102.228C10.0961 98.4046 9.26395 90.1084 7.71152 85.334C6.78716 82.4953 8.13022 76.8267 10.5165 74.2416C12.1435 72.4799 16.1177 71.7205 18.3976 70.4697Z" fill="#4A2151"/>
<path d="M19.893 69.2036C19.893 69.2036 17.1448 69.3757 16.1016 71.4675C16.5895 72.548 17.7427 73.9904 18.2607 76.6837C18.7788 79.3787 18.5978 82.3948 18.5978 82.3948L21.6974 83.7805L19.8859 86.9758L25.2618 93.9307C25.2618 93.9307 26.0673 84.7688 23.9453 78.1492C21.8234 71.5296 19.893 69.2036 19.893 69.2036Z" fill="#572D60"/>
<path d="M33.7108 57.9158C31.5694 55.2865 26.8872 54.685 23.9296 56.477C23.22 56.6881 22.5671 57.0039 22.0348 57.4777C20.1062 59.1915 20.3192 62.2609 20.8958 64.5266C21.7651 67.9437 26.6264 75.7981 31.1187 72.86C33.5086 71.2987 35.061 67.4185 35.446 64.704C35.7867 62.2911 35.2704 59.832 33.7108 57.9158Z" fill="#FFC9B6"/>
<path d="M36.8147 52.8811C35.3155 50.8656 31.4867 48.4508 28.9709 49.856C28.1069 50.3386 27.6154 51.3304 27.6704 52.2228C25.2362 51.7775 20.8468 53.3601 19.7574 55.4519C17.9069 59.0092 19.1951 65.0964 20.8184 66.9256C22.5146 65.4477 25.1333 62.3057 25.8252 59.2913C28.6232 60.6361 32.4448 60.778 35.1913 59.1972C37.4977 57.8719 38.4682 55.1059 36.8147 52.8811Z" fill="#301333"/>
<path d="M25.0281 62.8449C25.0281 62.8449 23.6638 60.5809 22.4076 62.2363C20.5021 64.745 23.2947 65.9728 23.2947 65.9728L25.0281 62.8449Z" fill="#FFC9B6"/>
<path d="M11.4155 73.5063C7.71802 74.0972 5.46481 74.7625 2.86205 80.7149C0.420745 86.2966 2.28543 88.6936 1.10203 92.4584C-0.081363 96.2233 0.411836 97.1352 0.0729625 100.176C-0.265911 103.215 0.559097 103.647 1.69459 104.555C2.62782 105.302 1.33801 106.217 8.64419 109.571C13.3228 111.717 16.4808 111.091 16.4808 111.091L18.9825 105.128C18.9825 105.128 19.9157 105.158 16.621 102.115C12.8934 98.6734 10.1221 98.1979 10.1221 98.1979C10.1221 98.1979 11.4847 93.7074 13.344 89.6782C15.2034 85.6472 14.0271 74.6383 11.4155 73.5063Z" fill="#3F1B44"/>
<path d="M18.9805 105.128C18.9805 105.128 17.0909 104.541 16.0707 106.996C15.322 108.799 15.817 110.383 16.477 111.093C17.4688 111.093 18.9716 111.425 20.0024 112.175C22.3106 113.855 25.0518 117.091 27.0832 118.078C30.0213 119.504 30.802 117.618 31.0486 115.871C31.2952 114.123 29.8226 112.769 28.5097 111.746C27.0815 110.631 26.2139 109.721 26.716 109.413C27.0495 109.209 28.6978 109.924 29.8315 109.413C31.0078 108.884 30.511 108.034 28.5665 107.894C27.5782 107.821 27.1259 107.145 25.2541 106.902C23.7903 106.714 23.3556 107.445 22.8943 107.207C21.3632 106.416 19.8232 105.74 18.9805 105.128Z" fill="#FFC9B6"/>
<path d="M28.9305 170.823C28.9305 170.823 28.7602 172.26 28.3095 173.765C27.8589 175.267 28.4124 177.364 28.4124 177.364C28.4124 177.364 28.7371 178.289 30.1299 178.562C31.4268 178.817 32.4771 178.505 32.4771 178.505C32.4771 178.505 33.7528 180.047 35.4205 181.227C37.0883 182.407 40.7662 183.322 41.7668 183.17C43.3814 182.923 44.2454 181.665 44.1212 180.852C43.997 180.042 42.0951 177.792 40.5355 176.82C39.5207 176.186 37.216 174.048 36.5258 173.305C35.3815 172.074 34.537 170.713 34.537 170.713L28.9305 170.823Z" fill="#301333"/>
<path d="M268.639 222.336L291.711 235.664L270.241 248.06L254.68 233.822L268.639 222.336Z" fill="#CDCDCD"/>
<path d="M244.816 238.751L244.834 236.734C244.838 236.296 245.292 192.639 250.785 161.759C254.802 139.177 265.344 124.544 265.789 123.932L288.861 137.261C288.861 137.261 279.05 156.371 273.972 181.788C272.411 189.604 270.84 208.093 269.685 224.151L269.79 224.334L269.666 224.405C268.594 239.326 267.886 252.081 267.886 252.081L244.816 238.751Z" fill="#CDCDCD"/>
<path d="M271.683 173.861C266.19 204.741 265.736 248.399 265.732 248.836L265.714 250.814L246.555 239.745L246.572 237.727C246.576 237.289 247.03 193.633 252.523 162.753C256.54 140.171 267.082 125.537 267.528 124.925L286.687 136.032C286.24 136.644 275.7 151.278 271.683 173.861Z" fill="#4F2556"/>
<path d="M291.718 235.675V238.324L267.891 252.081L267.908 250.064C267.912 249.626 268.366 205.97 273.859 175.09C277.878 152.507 288.418 137.874 288.865 137.262L290.728 138.621C290.622 138.766 280.049 153.465 276.13 175.494C271.345 202.395 270.406 239.112 270.245 248.063L291.713 235.668L291.718 235.675Z" fill="#AAAAAA"/>
<path d="M269.734 179.745L252.301 169.662C252.634 167.418 252.989 165.211 253.371 163.071C256.046 148.033 261.603 136.552 265.157 130.356L276.661 137.027L282.602 140.446C279.049 146.633 273.478 158.13 270.797 173.195C270.419 175.322 270.068 177.515 269.734 179.745Z" fill="#916A9B"/>
<path d="M258.402 144.799L275.848 154.871C273.872 160.117 272.028 166.274 270.797 173.195C270.419 175.322 270.066 177.515 269.734 179.745L252.301 169.663C252.634 167.418 252.989 165.211 253.371 163.071C254.598 156.172 256.433 150.033 258.402 144.799Z" fill="white"/>
<path d="M266.096 134.196C269.242 135.498 275.384 139.079 278.473 141.275C278.86 141.55 278.522 141.782 278.205 141.621C274.138 139.545 269.831 136.96 265.899 134.641C265.557 134.439 265.585 133.983 266.096 134.196Z" fill="#4F2556"/>
<path d="M258.015 155.367C261.161 156.669 267.303 160.25 270.392 162.446C270.779 162.721 270.442 162.954 270.124 162.792C266.058 160.716 261.75 158.131 257.818 155.812C257.474 155.612 257.502 155.156 258.015 155.367Z" fill="#4F2556"/>
<path d="M254.526 167.579C257.671 168.882 263.814 172.462 266.903 174.658C267.289 174.933 266.952 175.166 266.635 175.004C262.566 172.928 258.26 170.343 254.329 168.025C253.986 167.822 254.015 167.366 254.526 167.579Z" fill="#4F2556"/>
<path d="M263.061 138.237C266.207 139.539 268.076 140.537 271.167 142.733C271.552 143.008 271.217 143.24 270.899 143.079C266.833 141.003 266.796 141.001 262.864 138.683C262.521 138.482 262.55 138.026 263.061 138.237Z" fill="#4F2556"/>
<path d="M262.293 139.836C265.438 141.138 267.308 142.135 270.399 144.331C270.784 144.606 270.449 144.839 270.131 144.677C266.065 142.602 266.027 142.6 262.096 140.281C261.751 140.079 261.78 139.623 262.293 139.836Z" fill="#4F2556"/>
<path d="M261.542 141.512C264.687 142.815 266.557 143.812 269.646 146.008C270.033 146.283 269.696 146.517 269.378 146.354C265.31 144.278 265.275 144.277 261.343 141.958C261.002 141.755 261.031 141.299 261.542 141.512Z" fill="#4F2556"/>
<path d="M261.019 143.187C264.165 144.49 266.035 145.487 269.125 147.683C269.51 147.958 269.175 148.192 268.858 148.029C264.791 145.953 264.754 145.952 260.822 143.633C260.478 143.432 260.506 142.976 261.019 143.187Z" fill="#4F2556"/>
<path d="M259.019 151.759C259.312 150.927 259.468 150.694 260.605 150.815C261.592 150.92 263.071 151.892 263.925 151.991C265.544 151.402 266.946 152.296 267.686 152.779C268.158 153.088 269.627 154.037 270.372 156.237C270.752 157.356 271.412 157.662 270.651 158.801C270.486 159.049 270.033 159.164 269.801 159.014C269.228 158.643 268.947 158.481 268.365 158.123C267.661 159.106 265.961 158.149 266.494 156.89C265.539 156.326 263.831 155.408 262.878 154.839C262.103 156.077 260.548 155.039 261.137 153.664C260.798 153.448 258.735 152.566 259.019 151.759Z" fill="#916A9B"/>
<path d="M268.837 154.378C268.642 154.06 268.37 153.748 267.99 153.519C266.832 152.816 266.498 152.632 265.908 152.447C265.317 152.263 264.43 152.928 264.43 152.928L268.507 155.245C268.507 155.245 268.753 154.628 268.837 154.378Z" fill="white"/>
<path d="M257.418 160.077C258.463 159.527 260.144 160.608 261.111 161.122C261.185 161.161 261.254 161.197 261.318 161.229C262.402 161.759 266.706 164.369 267.821 165.026C268.539 165.45 268.543 166.234 268.3 167.101C268.12 167.738 267.874 168.576 267.546 169.507C267.033 170.967 266.014 170.872 264.714 170.176C263.307 169.424 258.884 166.67 257.461 165.868C256.203 165.159 255.776 164.873 255.777 163.649C255.777 162.664 256.416 160.606 257.418 160.077Z" fill="#916A9B"/>
<path d="M265.264 164.653L263.945 168.185C263.945 168.185 264.815 168.102 265.264 166.759C265.753 165.295 265.264 164.653 265.264 164.653Z" fill="white"/>
<path d="M261.827 162.756L260.345 166.42C260.345 166.42 259.116 165.866 259.05 165.403C258.985 164.939 259.912 162.549 260.438 162.478C260.961 162.405 261.827 162.756 261.827 162.756Z" fill="white"/>
<path d="M261.195 161.479C261.195 161.479 261.55 160.877 260.585 160.466C259.67 160.075 259.531 160.492 259.531 160.492L261.195 161.479Z" fill="#916A9B"/>
<path d="M266.281 164.131C266.281 164.131 266.636 163.53 265.671 163.118C264.756 162.728 264.617 163.145 264.617 163.145L266.281 164.131Z" fill="#916A9B"/>
<path d="M265.112 170.079C265.112 170.079 264.728 170.574 263.934 170.18C263.032 169.733 263.298 169.112 263.298 169.112L265.112 170.079Z" fill="#916A9B"/>
<path d="M259.939 167.123C259.939 167.123 259.518 167.586 258.755 167.13C257.891 166.613 258.203 166.014 258.203 166.014L259.939 167.123Z" fill="#916A9B"/>
</svg>
