<svg width="157" height="247" viewBox="0 0 157 247" fill="none" xmlns="http://www.w3.org/2000/svg">
<path d="M77.006 103.48C77.006 103.48 82.0124 103.2 85.4565 103.48C88.8987 103.761 90.1376 104.037 91.2324 104.361C92.3272 104.682 92.6252 106.609 91.0883 106.266C88.663 105.724 88.1156 106.266 87.1766 107.061C86.5805 107.567 88.9201 108.576 91.5577 109.5C94.1953 110.423 95.2142 108.144 96.1531 108.802C97.0921 109.461 94.8187 115.722 89.6545 115.733C84.4903 115.743 82.9163 114.235 80.9176 112.833C78.4027 111.068 73.3281 108.927 73.3281 108.927L77.006 103.48Z" fill="#FFC9B6"/>
<path d="M72.7414 100.537C70.1311 100.04 67.2519 99.8807 67.2519 99.8807C67.2519 99.8807 67.0064 98.9456 67.2519 97.7671C67.4974 96.5885 64.7117 96.8593 64.7117 96.8593C64.7117 96.8593 62.2533 85.3114 62.2435 84.8984C62.0351 83.0809 61.4098 75.4485 56.4871 67.3408C51.5664 59.2332 47.0938 63.1195 47.0938 63.1195C47.0938 63.1195 50.4541 90.0665 53.2437 99.9157C53.5339 99.6605 53.8066 99.3878 54.095 99.1287C55.2579 102.742 56.5611 108.999 56.7014 109.18C59.6079 112.891 64.5597 112.463 67.6805 112.874C72.0401 113.449 78.229 113.879 78.229 113.879C78.229 113.879 79.5673 109.989 79.7329 107.998C79.8985 106.007 79.7329 102.785 79.7329 102.785C79.7329 102.785 75.3518 101.032 72.7414 100.537Z" fill="#3F1B44"/>
<path d="M52.6583 104.021C52.6583 104.021 59.9264 122.565 61.0543 130.069C62.1803 137.574 64.4419 148.933 65.7978 158.389C67.1536 167.843 67.136 177.055 66.5049 186.286C66.2536 189.951 64.9153 199.529 65.6224 204.732C64.8276 208.114 56.8972 208.539 55.9583 204.606C55.3739 202.167 49.2883 180.571 48.6727 173.778C48.0571 166.985 49.6623 162.117 49.6623 162.117C49.6623 162.117 39.7605 140.919 36.2891 132.578C32.8177 124.236 35.1787 113.9 35.1787 113.9L52.6583 104.021Z" fill="#301333"/>
<path d="M56.0842 203.697C56.0842 203.697 55.8173 205.933 55.1179 208.271C54.4186 210.608 55.2777 213.867 55.2777 213.867C55.2777 213.867 55.7842 215.303 57.9484 215.73C59.9646 216.125 61.5971 215.642 61.5971 215.642C61.5971 215.642 63.5802 218.04 66.173 219.873C68.7658 221.708 74.4852 223.132 76.0397 222.895C78.5507 222.513 79.8949 220.555 79.702 219.293C79.5091 218.03 76.552 214.536 74.1268 213.022C72.5489 212.038 68.9664 208.713 67.8911 207.556C66.1126 205.641 64.7977 203.525 64.7977 203.525L56.0842 203.697Z" fill="#301333"/>
<path d="M18.7731 222.725C18.7731 222.725 17.4329 227.704 17.6004 230.587C17.768 233.468 18.4556 234.156 19.3264 235.128C20.1971 236.1 21.2199 235.681 21.2199 235.681C21.2199 235.681 21.6212 241.622 24.438 244.024C27.2548 246.426 32.3645 246.654 34.7099 245.781C37.0553 244.909 35.5125 240.654 33.2177 236.482C30.921 232.309 27.9931 227.821 27.2607 224.049C21.6426 223.276 18.7731 222.725 18.7731 222.725Z" fill="#301333"/>
<path d="M26.6119 111.705C26.6119 111.705 23.0528 116.738 20.2146 125.594C18.2198 131.82 18.5451 146.752 18.5451 146.752C18.5451 146.752 18.0328 161.453 18.9814 166.538C19.9301 171.622 19.8483 172.652 19.8483 172.652C19.8483 172.652 15.7672 184.839 16.3984 199.253C17.0295 213.666 18.2022 224.004 18.2022 224.004C18.2022 224.004 19.0068 226.732 22.708 227.108C26.08 227.45 28.5423 225.113 28.5423 225.113C28.5423 225.113 34.7254 194.597 37.0163 187.643C39.3071 180.686 40.1506 172.67 40.1506 172.67L44.8298 138.404C44.8298 138.404 54.0926 132.358 49.3453 117.11C46.3726 107.559 26.6119 111.705 26.6119 111.705Z" fill="#3F1B44"/>
<path d="M33.9348 64.3527C35.8556 63.7488 43.3827 61.3119 44.1327 61.6839C49.5229 64.3586 55.6183 74.8234 56.4072 81.9142C56.7325 84.846 56.0936 92.4977 54.3462 97.1886C56.1559 100.12 54.6365 102.327 54.5313 103.177C54.352 104.624 56.6001 110.885 57.1494 112.253C58.2091 114.886 58.3922 118.767 56.7579 120.917C53.6235 125.041 50.2398 126.257 42.5665 127.321C33.6855 128.55 27.9739 122.225 25.2155 118.547C24.5629 117.678 21.9486 110.725 23.8927 109.486C22.4122 104.987 20.8986 99.3704 19.4493 93.9705C17.2695 85.8472 15.3039 78.0337 20.0084 71.8994C22.0733 69.2111 29.7466 65.728 33.9348 64.3527Z" fill="#DEEFFF"/>
<path d="M33.0226 54.6357C33.0226 54.6357 40.2362 60.059 42.566 63.7389C44.8959 67.4187 45.864 68.9186 44.6387 77.414C38.0407 75.1114 29.8084 71.1453 28.2422 66.5791C30.5272 65.3207 33.0226 54.6357 33.0226 54.6357Z" fill="#FFB9A4"/>
<path d="M49.3027 91.3074C48.691 88.0405 47.7559 84.9919 47.0916 83.0302V83.0263C46.9494 82.6075 48.1864 78.8147 48.1864 78.8147L44.6352 77.4121L42.5625 79.9056C42.5625 79.9056 43.7411 82.6756 45.1105 83.4042C45.0365 87.0295 44.906 93.6664 44.8261 99.6838C44.7014 109.295 44.8261 116.209 44.8261 116.209C44.8261 116.209 47.0897 119.413 49.3845 120.917C50.978 118.061 51.5994 114.426 51.5994 114.426C51.5994 114.426 50.3332 96.8125 49.3027 91.3074Z" fill="#F95555"/>
<path d="M29.2383 67.2881C29.2383 67.2881 35.17 69.8459 37.6537 71.901C40.981 74.6555 42.5686 75.3977 44.2264 76.9893C44.3822 76.5919 44.8342 69.1114 44.8342 69.1114C44.8342 69.1114 47.6062 69.4602 47.5848 69.5108C47.5614 69.5615 49.1724 71.0419 49.8016 74.0146C50.4308 76.9873 49.3088 80.5892 49.3088 80.5892L44.6978 77.7724L41.5401 83.4061C41.5401 83.4061 35.3804 78.1308 32.5713 74.9166C29.7584 71.7023 29.2383 67.2881 29.2383 67.2881Z" fill="white"/>
<path d="M47.0916 63.1211C47.0916 63.1211 51.7026 63.6724 54.2584 69.5086C56.8162 75.3449 57.6733 81.9487 57.7551 90.9876C57.8155 97.5797 58.1895 106.305 59.3058 110.996C60.2642 115.034 65.6154 129.895 65.6154 129.895C65.6154 129.895 65.2063 135.995 63.231 138.404C60.6811 141.513 57.911 141.249 57.911 141.249C57.911 141.249 54.5935 122.822 54.2584 119.918C53.9234 117.011 52.8325 101.667 53.1325 97.1122C53.4325 92.5577 50.8241 77.3845 49.7936 74.0144C48.7631 70.6443 42.5625 63.7406 42.5625 63.7406L47.0916 63.1211Z" fill="#4A2151"/>
<path d="M46.0358 67.9249C46.0358 67.9249 47.8572 70.2586 49.3221 73.7806C50.7851 77.3046 51.2545 85.0441 51.6714 89.5616C52.0883 94.079 53.0603 98.6199 53.0603 98.6199C53.0603 98.6199 54.7688 93.705 55.0805 90.3661C55.3941 87.0272 55.8227 84.4577 55.8227 84.4577L53.4909 82.6324L55.6512 77.4117C55.6512 77.4117 49.9513 64.997 47.5436 64.2762C45.1358 63.5574 46.0358 67.9249 46.0358 67.9249Z" fill="#572D60"/>
<path d="M50.8233 51.707C50.3518 48.4343 49.22 44.3766 46.4538 42.2883C43.7207 40.2234 39.4059 40.4318 36.1858 40.9889C31.193 41.8519 28.2203 47.772 29.7651 54.1128C31.1911 59.9685 36.0884 68.7172 42.8383 69.284C46.2746 69.5723 48.6298 66.7769 49.8434 63.3796C51.2791 59.353 51.2129 54.407 50.8233 51.707Z" fill="#FFC9B6"/>
<path d="M49.3053 46.2989C49.3092 46.2874 49.3168 46.2816 49.3207 46.27C49.3053 46.3201 49.3034 46.3201 49.3053 46.2989Z" fill="#301333"/>
<path d="M56.2369 43.1403C55.931 39.7936 53.1336 38.4008 50.8856 39.0748C51.5129 34.6314 45.7019 33.9321 43.8474 36.6359C42.5832 36.2483 40.9118 34.2009 37.9936 34.2652C34.3391 34.3431 30.0593 35.5236 29.0074 40.4034C25.047 42.0514 25.8886 47.8994 27.036 51.6338C27.8152 54.1701 31.0158 61.9466 31.1385 61.9485C32.658 60.5109 34.6839 54.6142 34.8748 53.9986C37.2027 54.1973 41.3189 52.5532 42.1916 51.6162C44.6013 52.8688 49.3408 54.6162 51.8421 53.0344C55.3524 50.8195 56.5096 46.1364 56.2369 43.1403Z" fill="#421E47"/>
<path d="M35.0381 55.609C35.0381 55.609 33.5557 53.1175 31.633 54.7635C29.7103 56.4096 33.8654 60.3894 33.8654 60.3894L35.0381 55.609Z" fill="#FFC9B6"/>
<path d="M49.843 63.3799C49.843 63.3799 49.0131 63.002 46.6404 63.491C44.2677 63.978 41.8035 65.9513 39.8886 65.4078C37.9912 64.8701 36.9626 63.6292 36.5906 62.3007C36.1114 60.5903 35.7743 58.052 35.5601 55.3638C34.6757 55.8625 34.6153 56.5092 34.5763 57.3391C34.4516 60.0254 34.7964 63.3429 35.3341 64.9442C36.1542 67.3851 39.4678 70.5428 44.1275 71.4311C48.2242 72.2123 49.1008 70.0967 49.6287 67.4902C50.0865 65.2286 49.9034 64.5721 49.843 63.3799Z" fill="#421E47"/>
<path d="M48.4897 65.6689C48.4897 65.6689 47.2469 65.6104 46.8105 64.8877C45.9612 66.2046 44.4436 66.4189 43.8047 66.7832C44.4495 67.3754 45.3203 68.0279 46.8689 67.5702C48.2131 67.1728 48.4897 65.6689 48.4897 65.6689Z" fill="#FFC9B6"/>
<path d="M28.2441 66.5791C28.2441 66.5791 35.0349 75.5108 37.0317 87.8632C39.0284 100.216 37.0336 112.909 37.0317 121.767C37.0297 130.622 38.0427 148.133 38.0427 148.133C38.0427 148.133 29.9603 149.555 23.7559 148.24C17.1268 146.836 13.3242 142.086 13.3242 142.086C13.3242 142.086 17.1716 121.823 20.0488 109.33C21.3286 103.773 18.0151 91.6346 15.8235 84.8963C14.5203 80.8893 13.7528 75.5439 17.1209 71.8972C19.4176 69.4154 25.026 68.344 28.2441 66.5791Z" fill="#4A2151"/>
<path d="M3.80469 111.265L13.6071 128.897L38.8477 114.514L29.0472 96.8828L27.1966 97.8627L3.80469 111.265Z" fill="#FF9C7D"/>
<path d="M1.95703 112.245L11.7692 129.898L37.0293 115.55L27.1976 97.8623L1.95703 112.245Z" fill="#FF8E66"/>
<path d="M28.6671 97.0869L38.2611 114.278L37.2052 114.841L27.5742 97.6655L28.6671 97.0869Z" fill="white"/>
<path d="M28.5156 97.8463L31.6617 103.525L35.3532 101.53L32.3454 95.8438L28.5156 97.8463Z" fill="#BBD9F9"/>
<path d="M30.332 102.004L39.2189 102.432L35.5196 111.358L30.332 102.004Z" fill="#DEEFFF"/>
<path d="M23.8541 119.471C23.8541 119.471 26.5949 119.471 28.5118 120.387C29.5131 119.66 31.6306 118.626 31.6306 118.626C31.6306 118.626 33.0507 122.81 30.3293 125.73C27.6079 128.651 24.1658 126.983 22.0794 125.208C19.9931 123.436 23.8541 119.471 23.8541 119.471Z" fill="#FFC9B6"/>
<path d="M19.8272 70.0498C19.8272 70.0498 13.3188 71.9004 9.87666 78.4575C6.53775 84.8158 2.30469 97.3066 1.11445 102.426C-0.492673 109.334 -0.19657 111.802 0.958608 113.67C3.00988 116.995 5.92996 119.364 9.68381 121.651C15.8532 125.407 21.4635 126.357 21.4635 126.357C21.4635 126.357 25.6829 125.627 25.6829 118.626C24.6193 117.58 22.6479 117.716 19.496 114.841C15.4889 111.186 12.5026 108.017 12.5026 108.017C12.5026 108.017 17.2616 101.302 21.9291 93.8917C28.2426 79.1003 19.8272 70.0498 19.8272 70.0498Z" fill="#3F1B44"/>
<path d="M29.235 64.791C29.235 64.791 25.2221 66.6767 24.9922 67.9838C25.6818 69.5091 27.3064 71.5429 28.0389 75.3454C28.7714 79.1479 28.5142 83.4044 28.5142 83.4044L32.8895 85.3602L30.3317 89.8699L37.9173 99.684C37.9173 99.684 39.053 86.7549 36.0609 77.4142C33.0667 68.0734 29.235 64.791 29.235 64.791Z" fill="#572D60"/>
<path d="M126.846 60.2191C126.846 60.2191 119.711 53.1381 115.3 61.536C110.697 70.2983 109.852 69.26 105.379 75.5579C104.828 76.3332 101.717 84.0707 100.415 88.8863C99.6245 91.818 100.801 92.7628 102.928 101.675C104.076 106.487 107.878 110.114 107.878 110.114C107.878 110.114 113.539 106.919 117.141 106.974C120.743 107.028 115.082 96.1368 115.082 96.1368L116.097 89.3596C124.885 79.0643 126.846 60.2191 126.846 60.2191Z" fill="#F46138"/>
<path d="M107.876 110.109C107.876 110.109 107.362 114.116 107.876 116.23C108.391 118.343 109.033 118.955 109.033 118.955C109.033 118.955 106.46 118.1 105.303 119.701C104.146 121.302 107.333 122.847 111.272 122.461C115.209 122.076 118.731 111.646 118.731 111.646L114.439 106.969C114.439 106.969 109.678 107.407 107.876 110.109Z" fill="#FFC9B6"/>
<path d="M113.292 204.028C113.292 204.028 113.559 206.262 114.259 208.6C114.958 210.938 114.099 214.197 114.099 214.197C114.099 214.197 113.592 215.632 111.428 216.059C109.412 216.454 107.779 215.971 107.779 215.971C107.779 215.971 105.796 218.369 103.203 220.202C100.611 222.037 94.8913 223.461 93.3367 223.224C90.8277 222.842 89.4816 220.884 89.6745 219.622C89.8673 218.359 92.8244 214.865 95.2497 213.351C96.8276 212.367 100.41 209.042 101.485 207.885C103.266 205.97 104.579 203.856 104.579 203.856L113.292 204.028Z" fill="#301333"/>
<path d="M116.726 104.354C116.726 104.354 109.458 122.895 108.33 130.401C107.204 137.904 104.942 149.265 103.586 158.719C102.231 168.173 102.248 177.385 102.879 186.617C103.131 190.281 104.469 199.859 103.762 205.062C104.557 208.446 112.487 208.869 113.428 204.936C114.01 202.497 120.098 180.901 120.714 174.108C121.329 167.316 119.724 162.447 119.724 162.447C119.724 162.447 129.626 141.249 133.097 132.908C136.568 124.566 134.207 114.23 134.207 114.23L116.726 104.354Z" fill="#6E57B5"/>
<path d="M150.609 223.056C150.609 223.056 151.951 228.035 151.782 230.918C151.614 233.799 150.926 234.487 150.056 235.459C149.185 236.431 148.162 236.012 148.162 236.012C148.162 236.012 147.761 241.955 144.944 244.355C142.127 246.757 137.018 246.985 134.672 246.112C132.327 245.242 133.87 240.985 136.164 236.813C138.461 232.64 141.389 228.152 142.121 224.38C147.739 223.607 150.609 223.056 150.609 223.056Z" fill="#301333"/>
<path d="M142.771 112.036C142.771 112.036 146.33 117.069 149.168 125.925C151.163 132.151 150.838 147.083 150.838 147.083C150.838 147.083 151.35 161.784 150.401 166.869C149.453 171.953 149.534 172.984 149.534 172.984C149.534 172.984 153.615 185.17 152.984 199.584C152.353 213.997 151.18 224.335 151.18 224.335C151.18 224.335 150.376 227.063 146.675 227.439C143.303 227.781 140.84 225.444 140.84 225.444C140.84 225.444 134.657 194.928 132.366 187.974C130.076 181.017 129.232 173.001 129.232 173.001L124.553 138.735C124.553 138.735 115.29 132.689 120.037 117.441C123.012 107.89 142.771 112.036 142.771 112.036Z" fill="#7F64C1"/>
<path d="M135.448 64.6834C133.527 64.0795 126 61.6424 125.25 62.0145C119.86 64.6891 113.765 75.1539 112.978 82.2448C112.652 85.1765 113.451 99.662 115.196 104.353C112.652 105.494 112.853 106.673 113.94 108.097C112.904 109.511 112.187 109.772 111.637 111.14C110.578 113.774 111.992 115.024 113.827 117.005C116.509 119.9 121.185 122.242 128.858 123.303C137.739 124.532 144.555 120.837 147.313 117.161C147.966 116.292 147.849 114.019 145.905 112.78C147.386 108.28 148.486 99.701 149.936 94.3011C152.115 86.1778 154.262 76.5137 149.558 70.3793C147.491 67.6911 139.636 66.0587 135.448 64.6834Z" fill="#F9744B"/>
<path d="M124.212 65.6808C124.212 65.6808 122.303 68.2951 122.289 72.0723C122.277 75.8514 123.25 81.0137 123.25 81.0137C123.25 81.0137 132.074 78.4014 136.467 75.0683C142.648 70.3794 143.7 67.1769 143.7 67.1769C143.7 67.1769 138.292 65.0905 135.448 64.6815C132.604 64.2724 124.212 65.6808 124.212 65.6808Z" fill="#F46138"/>
<path d="M136.36 54.9668C136.36 54.9668 129.147 60.3901 126.817 64.0699C124.487 67.7497 123.519 69.2497 124.744 77.745C131.344 75.4425 140.244 71.1315 141.811 66.5653C139.528 65.3069 136.36 54.9668 136.36 54.9668Z" fill="#FFB9A4"/>
<path d="M118.747 51.6022C118.877 48.4679 119.555 44.5309 121.967 42.2926C124.349 40.0816 128.44 39.8635 131.534 40.0797C136.328 40.4148 139.702 45.7173 138.854 51.8496C138.071 57.5145 134.288 66.2397 127.973 67.4241C124.758 68.026 122.265 65.6144 120.794 62.5248C119.049 58.8626 118.638 54.1873 118.747 51.6022Z" fill="#FFC9B6"/>
<path d="M120.074 46.6295C120.07 46.6179 120.062 46.6121 120.059 46.6006C120.076 46.6525 120.078 46.6526 120.074 46.6295Z" fill="#301333"/>
<path d="M116.094 109.183C116.094 109.183 118.675 112.703 123.37 114.111C128.064 115.52 131.818 114.972 131.818 114.972C131.818 114.972 128.768 113.955 126.342 113.172C123.917 112.389 118.05 109.261 116.094 109.183Z" fill="#E83A3A"/>
<path d="M120.789 105.66C120.789 105.66 122.899 109.437 127.202 110.824C131.505 112.211 134.242 111.561 134.242 111.561C134.242 111.561 129.469 110.041 127.592 109.18C125.714 108.319 120.789 105.66 120.789 105.66Z" fill="#E83A3A"/>
<path d="M145.564 44.3812C145.233 42.4527 143.633 41.1397 142.019 41.1104C143.456 37.9059 143.351 33.9378 139.539 32.545C135.592 31.1015 131.112 32.0249 128.542 35.0599C127.615 32.0775 124.751 29.5217 120.362 32.993C115.377 36.9378 115.035 43.5065 118.516 49.2162C121.12 52.4246 127.422 52.7187 130.477 50.5525C131.285 54.659 131.548 54.8012 134.819 56.233C134.47 58.6991 137.427 62.527 139.759 63.7601C140.174 56.9187 146.626 50.5759 145.564 44.3812Z" fill="#421E47"/>
<path d="M132.524 57.1935C132.471 54.2266 135.865 52.2416 136.646 55.263C137.408 58.2142 135.025 60.2168 135.025 60.2168L132.524 57.1935Z" fill="#FFC9B6"/>
<path d="M149.556 70.3809C149.556 70.3809 140.172 83.0664 137.804 89.8397C135.437 96.6149 132.696 102.188 132.696 102.188C132.696 102.188 118.345 103.001 111.271 104.021C106.74 104.676 103.366 105.208 101.582 105.747C102.583 108.36 102.776 111.396 102.753 114.067C102.751 114.237 102.747 114.433 102.745 114.615C107.82 116.019 119.143 118.929 124.853 118.626C132.347 118.228 141.55 115.776 141.55 115.776C141.55 115.776 151.559 96.1025 154.989 89.8416C158.423 83.5768 157.301 74.1951 149.556 70.3809Z" fill="#F46138"/>
<path d="M101.582 105.747C101.582 105.747 92.8856 101.888 88.9739 102.685C85.0623 103.482 83.0539 108.18 82.2844 110.111C81.5149 112.041 82.8591 115.133 86.9752 114.841C91.0914 114.548 92.8485 112.889 92.8485 112.889C92.8485 112.889 98.8699 116.148 102.743 114.615C105.063 111.712 103.409 106.495 101.582 105.747Z" fill="#FFC9B6"/>
<path d="M64.3677 33.437C64.2859 23.7261 73.6929 10.4386 85.3811 3.75884C92.6725 -0.407982 99.1263 -1.01769 102.97 1.46994L102.985 1.47772C102.991 1.48162 102.997 1.48549 103.005 1.49134L107.468 4.49714C107.468 4.49714 106.673 7.23803 106.835 7.48153C106.856 7.51465 106.735 7.45039 106.525 7.32572C106.62 7.9335 106.685 8.56856 106.69 9.24842C106.772 18.9593 97.3653 32.2467 85.6772 38.9246C81.5473 41.2856 77.698 42.4817 74.4273 42.6433L73.6832 43.4342L73.7163 43.4362L70.1456 53.1763L66.6528 51.0101L68.2268 41.2875C65.8287 39.8032 64.4008 37.1577 64.3677 33.437Z" fill="#95BFE5"/>
<path d="M67.8638 35.6871C67.9456 45.398 77.4851 47.8544 89.1732 41.1746C100.859 34.4949 110.268 21.2074 110.187 11.4985C110.105 1.78758 100.565 -0.668906 88.8771 6.01087C77.1909 12.6906 67.782 25.9781 67.8638 35.6871Z" fill="#BBD9F9"/>
<path d="M74.4399 35.0076C74.5237 32.5375 74.9873 30.3284 76.4834 27.1024C76.8263 26.3661 78.3671 22.4525 81.3476 19.1272C83.2645 16.9883 86.2021 15.3559 88.3839 14.0975C90.9962 12.5897 91.5553 13.4527 92.5721 14.1364C93.6903 14.8884 94.5533 15.1942 95.8117 15.0208C100.473 14.378 104.675 11.3196 104.907 17.0506C105.193 17 105.417 17.0779 105.417 17.4422C105.417 18.4104 104.971 18.9656 104.134 19.4487C103.952 19.5539 102.441 20.4266 100.191 21.7259C100.025 23.5006 98.9597 25.4155 97.6565 26.1674C96.3532 26.9194 95.2877 26.2356 95.1221 24.6518C90.8325 27.1278 85.7794 30.0459 81.7099 32.3952C81.5444 34.1699 80.4788 36.0848 79.1756 36.8367C77.8723 37.5887 76.8068 36.9049 76.6412 35.3231C75.149 36.1841 74.2354 36.7121 74.2354 36.7121C74.2354 36.7121 73.9393 35.553 74.4399 35.0076Z" fill="white"/>
<path d="M81.7383 23.5941C82.1026 22.3473 82.8 19.7058 84.1947 18.3792C85.6713 16.9747 89.7622 14.7754 90.7167 14.6877C91.7901 14.5903 92.9063 16.7702 93.0933 17.039L81.7383 23.5941Z" fill="#BBD9F9"/>
<path d="M79.3976 43.3198L70.1445 53.1788L72.2133 40.5166L79.3976 43.3198Z" fill="#BBD9F9"/>
</svg>
