<svg width="465" height="329" viewBox="0 0 465 329" fill="none" xmlns="http://www.w3.org/2000/svg">
<path d="M166.615 89.6524C171.11 90.8495 179.974 98.3636 182.669 100.712C180.046 104.861 175.623 111.535 174.308 111.532C172.397 111.528 165.534 103.935 162.88 97.3008C161.616 94.1423 161.88 91.5998 163.008 89.9442C164.054 89.4764 165.258 89.2911 166.615 89.6524Z" fill="#7F64C1"/>
<path d="M172.354 87.6683C177.277 90.1784 186.845 96.9029 186.845 96.9029C186.845 96.9029 183.851 98.8387 182.667 100.712C179.974 98.364 171.108 90.8499 166.613 89.6528C165.257 89.2915 164.053 89.4768 163.006 89.9445C164.418 87.8721 169.151 86.0382 172.354 87.6683Z" fill="#967FDD"/>
<path d="M447.228 157.355L438.292 151.452L419.645 127.176C419.645 127.176 435.689 122.894 444.025 130.1C452.359 137.309 447.228 157.355 447.228 157.355Z" fill="#644DAD"/>
<path d="M279.407 253.845L250.587 234.149L251.821 223.622C251.821 223.622 267.866 219.341 276.202 226.547C284.533 233.753 279.407 253.845 279.407 253.845Z" fill="#644DAD"/>
<path d="M219.257 275.603C219.257 258.655 229.561 238.971 242.271 231.633C245.483 229.778 249.297 228.826 252.326 228.833C254.701 228.838 260.773 229.069 267.074 232.964C274.314 237.44 275.292 247.608 275.292 247.608L249.438 300.713C249.438 300.713 241.111 304.8 232.557 300.116C227.234 297.201 224.022 292.384 222.559 289.717C221.917 288.547 220.945 286.19 220.655 285.301C219.75 282.545 219.257 279.296 219.257 275.603Z" fill="#3F1B44"/>
<path d="M271.523 276.155C279.164 258.2 277.123 240.141 266.965 235.818C256.807 231.495 242.378 242.546 234.737 260.5C227.096 278.455 229.137 296.514 239.295 300.837C249.454 305.16 263.882 294.109 271.523 276.155Z" fill="#4F2556"/>
<path d="M271.606 257.82C271.606 271.223 263.457 286.791 253.406 292.594C243.354 298.396 235.205 292.237 235.205 278.834C235.205 265.432 243.354 249.864 253.406 244.061C263.457 238.258 271.606 244.418 271.606 257.82Z" fill="#6E4977"/>
<path d="M254.039 246.844C245.011 252.056 237.693 266.04 237.693 278.076C237.693 290.113 245.013 295.647 254.039 290.434C263.067 285.222 270.385 271.238 270.385 259.202C270.387 247.163 263.067 241.631 254.039 246.844ZM250.496 250.882C250.897 250.303 252.664 248.895 253.956 248.184C255.357 247.416 256.852 246.276 260.011 246.512C260.694 246.563 261.389 246.966 261.724 247.325C262.234 247.869 262.132 248.546 261.56 249.655C261.021 250.701 260.233 252.211 259.49 253.318C259.119 253.871 258.892 253.619 258.126 253.691C257.357 253.76 256.528 253.823 255.926 254.08C254.437 254.719 253.34 255.421 252.293 256.261C251.767 256.683 251.508 256.546 251.297 256.247C250.735 255.453 250.309 254.36 249.98 253.269C249.783 252.612 249.827 251.848 250.496 250.882ZM262.746 263.613C262.746 270.025 258.848 277.472 254.039 280.248C249.232 283.025 245.332 280.077 245.332 273.667C245.332 267.255 249.23 259.809 254.039 257.032C258.848 254.256 262.746 257.201 262.746 263.613ZM240.069 268.649C241.273 263.551 242.494 261.661 243.482 259.767C244.395 258.019 245.87 255.812 246.34 255.421C247.125 254.77 247.539 255.018 247.799 255.61C248.227 256.588 248.616 257.722 248.794 258.947C248.861 259.408 248.824 259.873 248.382 260.531C247.507 261.835 246.678 263.28 245.721 265.368C245.335 266.211 244.953 267.501 244.594 268.687C244.235 269.87 244.272 270.333 243.827 270.687C242.938 271.4 241.824 272.012 241.051 272.426C240.234 272.864 239.84 272.743 239.77 271.706C239.729 271.021 239.81 269.752 240.069 268.649ZM243.705 289.351C243.267 289.346 242.061 288.279 241.377 287.206C240.639 286.044 239.65 285.092 239.224 280.688C239.131 279.736 239.259 278.447 239.423 277.676C239.671 276.504 240.115 276.027 240.917 275.777C241.674 275.541 242.767 275.214 243.598 275.198C244.013 275.189 243.897 275.714 244.08 276.668C244.263 277.625 244.455 278.669 244.726 279.234C245.397 280.628 246.041 281.45 246.759 282.075C247.12 282.39 247.081 282.858 246.932 283.411C246.534 284.882 245.925 286.44 245.3 287.864C244.923 288.725 244.434 289.358 243.705 289.351ZM258.76 284.638C258.339 285.319 257.526 286.361 256.785 287.017C253.361 290.045 251.95 290.138 250.577 290.546C249.311 290.921 247.657 290.965 247.326 290.694C246.775 290.245 246.856 289.466 247.183 288.582C247.72 287.125 248.364 285.579 249.102 284.233C249.38 283.726 249.681 283.353 250.172 283.344C251.152 283.326 252.21 283.113 253.696 282.49C254.296 282.24 255.176 281.575 255.989 280.975C256.799 280.378 257.082 279.91 257.387 280.176C257.996 280.709 258.582 281.638 258.983 282.286C259.404 282.971 259.4 283.606 258.76 284.638ZM267.914 269.867C267.252 271.898 266.758 274.086 263.95 278.525C263.343 279.484 262.491 280.438 261.968 280.89C261.176 281.573 260.81 281.383 260.548 280.503C260.3 279.672 259.951 278.458 259.835 277.335C259.777 276.775 260.134 276.474 260.729 275.388C261.326 274.299 261.981 273.123 262.313 272.257C263.135 270.113 263.586 268.515 263.903 266.982C264.063 266.211 264.371 265.855 264.749 265.577C265.754 264.836 266.842 264.305 267.845 263.916C268.454 263.68 268.926 263.794 269.012 264.803C269.067 265.405 268.525 267.994 267.914 269.867ZM267.868 261.612C266.86 262.048 265.786 262.404 264.844 262.46C264.489 262.481 264.223 262.36 264.195 261.666C264.14 260.286 263.95 258.949 263.463 257.342C263.267 256.694 262.78 255.986 262.34 255.321C261.9 254.659 261.574 254.638 261.741 253.985C262.074 252.677 262.674 251.077 263.095 249.97C263.54 248.8 263.971 248.284 264.695 248.346C265.172 248.388 265.913 248.689 266.388 249.205C268.585 251.595 268.711 253.531 269.044 255.152C269.354 256.648 269.456 258.973 269.287 259.667C269.009 260.823 268.479 261.348 267.868 261.612Z" fill="white"/>
<path d="M254.966 260.341C251.05 262.601 247.878 268.665 247.878 273.887C247.878 279.106 251.053 281.507 254.966 279.245C258.882 276.985 262.056 270.921 262.056 265.699C262.056 260.48 258.882 258.081 254.966 260.341Z" fill="#916A9B"/>
<path d="M241.052 272.424C241.823 272.01 242.939 271.398 243.828 270.685C244.271 270.329 244.236 269.868 244.595 268.685C244.954 267.499 245.336 266.209 245.723 265.366C246.679 263.28 247.508 261.835 248.383 260.529C248.823 259.874 248.86 259.406 248.795 258.945C248.619 257.72 248.228 256.586 247.8 255.609C247.54 255.016 247.124 254.766 246.341 255.419C245.871 255.808 244.396 258.014 243.483 259.765C242.495 261.661 241.274 263.551 240.07 268.648C239.811 269.75 239.728 271.019 239.774 271.702C239.841 272.742 240.235 272.862 241.052 272.424Z" fill="#4F2556"/>
<path d="M251.298 256.249C251.509 256.548 251.768 256.684 252.294 256.263C253.341 255.422 254.44 254.721 255.927 254.081C256.527 253.824 257.358 253.762 258.127 253.692C258.893 253.623 259.118 253.873 259.491 253.32C260.234 252.213 261.021 250.703 261.561 249.656C262.133 248.547 262.235 247.871 261.725 247.327C261.389 246.968 260.695 246.565 260.012 246.514C256.856 246.278 255.36 247.415 253.956 248.186C252.662 248.897 250.895 250.305 250.497 250.884C249.828 251.851 249.784 252.613 249.983 253.276C250.307 254.359 250.736 255.455 251.298 256.249Z" fill="#4F2556"/>
<path d="M269.044 255.15C268.708 253.529 268.583 251.593 266.388 249.203C265.913 248.687 265.172 248.386 264.695 248.344C263.97 248.282 263.54 248.798 263.095 249.968C262.674 251.074 262.074 252.675 261.74 253.983C261.574 254.636 261.902 254.657 262.34 255.319C262.78 255.981 263.269 256.69 263.463 257.34C263.949 258.947 264.139 260.283 264.195 261.664C264.223 262.358 264.489 262.479 264.843 262.458C265.786 262.402 266.86 262.046 267.867 261.61C268.479 261.346 269.009 260.823 269.287 259.665C269.456 258.973 269.354 256.648 269.044 255.15Z" fill="#4F2556"/>
<path d="M267.847 263.917C266.844 264.306 265.756 264.834 264.751 265.577C264.373 265.855 264.066 266.211 263.906 266.982C263.588 268.515 263.137 270.113 262.315 272.257C261.984 273.123 261.328 274.3 260.731 275.388C260.134 276.474 259.779 276.775 259.837 277.335C259.953 278.461 260.303 279.672 260.55 280.503C260.812 281.383 261.178 281.573 261.97 280.89C262.491 280.438 263.345 279.484 263.952 278.526C266.761 274.084 267.254 271.898 267.916 269.868C268.528 267.994 269.069 265.406 269.016 264.804C268.928 263.794 268.456 263.68 267.847 263.917Z" fill="#4F2556"/>
<path d="M257.383 280.174C257.08 279.908 256.795 280.374 255.985 280.973C255.174 281.573 254.294 282.235 253.692 282.488C252.206 283.111 251.148 283.321 250.168 283.342C249.675 283.351 249.376 283.726 249.098 284.231C248.36 285.579 247.716 287.126 247.179 288.58C246.852 289.465 246.771 290.243 247.322 290.692C247.653 290.96 249.307 290.919 250.573 290.544C251.944 290.136 253.354 290.043 256.781 287.015C257.522 286.359 258.335 285.317 258.757 284.637C259.396 283.606 259.4 282.969 258.977 282.284C258.578 281.635 257.992 280.707 257.383 280.174Z" fill="#4F2556"/>
<path d="M246.76 282.073C246.043 281.445 245.399 280.625 244.727 279.232C244.456 278.669 244.267 277.622 244.081 276.666C243.898 275.712 244.014 275.186 243.6 275.195C242.768 275.214 241.675 275.54 240.918 275.774C240.117 276.022 239.672 276.501 239.425 277.673C239.26 278.444 239.133 279.734 239.226 280.686C239.652 285.092 240.64 286.044 241.379 287.204C242.06 288.276 243.269 289.344 243.706 289.348C244.436 289.358 244.924 288.723 245.302 287.859C245.927 286.435 246.536 284.877 246.934 283.407C247.082 282.855 247.122 282.388 246.76 282.073Z" fill="#4F2556"/>
<path d="M389.021 176.87C389.021 159.922 399.326 140.237 412.034 132.899C415.245 131.044 419.059 130.093 422.088 130.1C424.464 130.104 430.535 130.336 436.836 134.228C444.077 138.704 445.054 148.872 445.054 148.872L419.2 201.978C419.2 201.978 410.874 206.065 402.32 201.38C396.996 198.465 393.785 193.648 392.321 190.981C391.68 189.809 390.707 187.454 390.418 186.565C389.517 183.812 389.021 180.561 389.021 176.87Z" fill="#3F1B44"/>
<path d="M441.296 177.406C448.936 159.451 446.896 141.392 436.737 137.069C426.579 132.746 412.15 143.797 404.51 161.751C396.869 179.706 398.91 197.765 409.068 202.088C419.226 206.411 433.655 195.36 441.296 177.406Z" fill="#4F2556"/>
<path d="M441.373 159.084C441.373 172.487 433.224 188.054 423.172 193.857C413.12 199.66 404.972 193.501 404.972 180.098C404.972 166.695 413.12 151.128 423.172 145.325C433.224 139.522 441.373 145.682 441.373 159.084Z" fill="#6E4977"/>
<path d="M423.807 148.109C414.778 153.322 407.461 167.306 407.461 179.342C407.461 191.378 414.78 196.913 423.807 191.7C432.835 186.488 440.152 172.504 440.152 160.468C440.155 148.431 432.835 142.897 423.807 148.109ZM420.261 152.148C420.662 151.569 422.429 150.161 423.721 149.45C425.122 148.681 426.618 147.542 429.776 147.778C430.459 147.829 431.154 148.232 431.49 148.591C431.999 149.135 431.897 149.811 431.325 150.921C430.786 151.967 429.998 153.477 429.255 154.584C428.885 155.137 428.658 154.885 427.891 154.957C427.123 155.026 426.294 155.089 425.691 155.346C424.203 155.985 423.105 156.686 422.058 157.527C421.533 157.948 421.273 157.812 421.063 157.513C420.5 156.719 420.074 155.626 419.745 154.535C419.551 153.878 419.595 153.116 420.261 152.148ZM432.513 164.879C432.513 171.291 428.616 178.738 423.807 181.514C418.997 184.29 415.1 181.343 415.1 174.933C415.1 168.521 418.997 161.074 423.807 158.298C428.616 155.522 432.513 158.469 432.513 164.879ZM409.837 169.915C411.041 164.816 412.261 162.927 413.25 161.033C414.162 159.284 415.637 157.078 416.107 156.686C416.892 156.036 417.307 156.283 417.566 156.876C417.994 157.853 418.384 158.986 418.562 160.213C418.629 160.674 418.592 161.139 418.15 161.797C417.272 163.1 416.445 164.545 415.489 166.634C415.102 167.477 414.72 168.767 414.361 169.952C414.002 171.136 414.039 171.599 413.595 171.953C412.706 172.666 411.592 173.277 410.818 173.692C410.001 174.13 409.607 174.009 409.538 172.972C409.494 172.286 409.577 171.017 409.837 169.915ZM413.472 190.616C413.035 190.612 411.828 189.544 411.147 188.472C410.409 187.31 409.42 186.358 408.994 181.954C408.901 181.002 409.029 179.712 409.193 178.941C409.441 177.77 409.885 177.293 410.687 177.043C411.444 176.806 412.537 176.48 413.368 176.464C413.782 176.454 413.667 176.98 413.85 177.934C414.033 178.89 414.225 179.935 414.496 180.5C415.167 181.894 415.811 182.716 416.529 183.341C416.89 183.656 416.851 184.124 416.702 184.677C416.306 186.147 415.695 187.706 415.07 189.13C414.688 189.991 414.202 190.623 413.472 190.616ZM428.526 185.904C428.104 186.585 427.292 187.627 426.551 188.282C423.126 191.311 421.716 191.404 420.342 191.811C419.076 192.186 417.423 192.23 417.091 191.96C416.54 191.51 416.621 190.732 416.948 189.848C417.485 188.391 418.129 186.844 418.867 185.499C419.145 184.992 419.446 184.619 419.937 184.61C420.917 184.591 421.975 184.378 423.462 183.755C424.061 183.503 424.941 182.841 425.754 182.241C426.564 181.644 426.847 181.176 427.153 181.442C427.762 181.975 428.347 182.903 428.748 183.552C429.172 184.237 429.167 184.874 428.526 185.904ZM437.681 171.136C437.019 173.166 436.526 175.355 433.717 179.794C433.111 180.752 432.258 181.706 431.735 182.158C430.943 182.841 430.577 182.651 430.316 181.771C430.068 180.94 429.718 179.726 429.602 178.603C429.545 178.043 429.901 177.742 430.496 176.656C431.094 175.568 431.749 174.391 432.08 173.525C432.902 171.383 433.354 169.783 433.671 168.25C433.831 167.479 434.139 167.125 434.516 166.845C435.521 166.104 436.609 165.574 437.612 165.185C438.221 164.948 438.694 165.062 438.779 166.071C438.832 166.673 438.29 169.262 437.681 171.136ZM437.635 162.878C436.628 163.314 435.554 163.67 434.611 163.726C434.257 163.747 433.991 163.626 433.963 162.931C433.907 161.551 433.717 160.215 433.231 158.608C433.034 157.96 432.548 157.251 432.108 156.587C431.668 155.925 431.342 155.904 431.506 155.251C431.839 153.942 432.439 152.342 432.861 151.235C433.305 150.066 433.736 149.547 434.461 149.612C434.94 149.654 435.679 149.955 436.153 150.471C438.351 152.861 438.476 154.795 438.809 156.418C439.117 157.914 439.221 160.238 439.052 160.933C438.775 162.089 438.247 162.614 437.635 162.878Z" fill="white"/>
<path d="M424.734 161.609C420.818 163.869 417.646 169.933 417.646 175.155C417.646 180.374 420.82 182.776 424.734 180.513C428.649 178.253 431.822 172.189 431.822 166.967C431.822 161.748 428.647 159.349 424.734 161.609Z" fill="#916A9B"/>
<path d="M410.821 173.69C411.592 173.276 412.708 172.665 413.597 171.951C414.039 171.595 414.005 171.134 414.363 169.951C414.722 168.765 415.104 167.475 415.491 166.633C416.447 164.546 417.276 163.101 418.152 161.795C418.592 161.14 418.629 160.672 418.564 160.211C418.388 158.986 417.997 157.852 417.568 156.875C417.309 156.282 416.892 156.032 416.109 156.685C415.639 157.074 414.164 159.281 413.252 161.031C412.263 162.928 411.043 164.817 409.839 169.914C409.58 171.016 409.496 172.285 409.542 172.968C409.607 174.008 410.003 174.128 410.821 173.69Z" fill="#4F2556"/>
<path d="M421.065 157.515C421.276 157.814 421.535 157.951 422.061 157.529C423.108 156.689 424.207 155.987 425.694 155.348C426.294 155.091 427.125 155.028 427.894 154.959C428.66 154.89 428.885 155.14 429.258 154.586C430.001 153.479 430.788 151.97 431.328 150.923C431.898 149.814 432.002 149.138 431.492 148.593C431.157 148.235 430.462 147.832 429.779 147.781C426.623 147.545 425.127 148.681 423.723 149.453C422.429 150.163 420.662 151.571 420.264 152.15C419.597 153.118 419.551 153.88 419.75 154.542C420.076 155.628 420.503 156.721 421.065 157.515Z" fill="#4F2556"/>
<path d="M438.812 156.419C438.477 154.796 438.351 152.863 436.156 150.473C435.682 149.957 434.941 149.656 434.464 149.614C433.739 149.551 433.308 150.068 432.864 151.237C432.442 152.344 431.842 153.944 431.509 155.252C431.342 155.905 431.671 155.926 432.111 156.588C432.551 157.251 433.04 157.959 433.234 158.61C433.72 160.217 433.91 161.553 433.966 162.933C433.994 163.628 434.26 163.748 434.614 163.727C435.557 163.672 436.631 163.315 437.638 162.88C438.25 162.616 438.78 162.093 439.058 160.935C439.222 160.24 439.12 157.915 438.812 156.419Z" fill="#4F2556"/>
<path d="M437.615 165.182C436.613 165.571 435.524 166.099 434.519 166.843C434.142 167.12 433.834 167.477 433.674 168.248C433.357 169.781 432.905 171.381 432.083 173.523C431.752 174.389 431.097 175.565 430.5 176.654C429.902 177.74 429.548 178.041 429.606 178.601C429.722 179.727 430.071 180.938 430.319 181.769C430.581 182.649 430.947 182.839 431.738 182.156C432.262 181.704 433.114 180.752 433.721 179.791C436.529 175.35 437.023 173.164 437.685 171.133C438.296 169.26 438.838 166.671 438.785 166.069C438.697 165.062 438.224 164.946 437.615 165.182Z" fill="#4F2556"/>
<path d="M427.152 181.441C426.849 181.175 426.564 181.64 425.753 182.24C424.943 182.84 424.063 183.502 423.461 183.754C421.974 184.377 420.916 184.588 419.937 184.609C419.443 184.618 419.145 184.993 418.867 185.498C418.128 186.846 417.484 188.392 416.947 189.847C416.621 190.731 416.54 191.509 417.091 191.958C417.422 192.227 419.075 192.185 420.342 191.81C421.715 191.403 423.123 191.31 426.55 188.281C427.291 187.626 428.104 186.584 428.525 185.903C429.164 184.873 429.171 184.236 428.747 183.551C428.347 182.902 427.761 181.976 427.152 181.441Z" fill="#4F2556"/>
<path d="M416.526 183.338C415.808 182.71 415.165 181.891 414.493 180.497C414.222 179.934 414.032 178.887 413.847 177.931C413.664 176.977 413.78 176.451 413.365 176.461C412.534 176.479 411.441 176.806 410.684 177.039C409.883 177.287 409.438 177.767 409.19 178.938C409.026 179.709 408.899 180.999 408.991 181.951C409.417 186.357 410.406 187.309 411.145 188.469C411.826 189.541 413.034 190.609 413.47 190.613C414.199 190.623 414.688 189.988 415.067 189.124C415.693 187.7 416.301 186.142 416.7 184.672C416.848 184.123 416.887 183.655 416.526 183.338Z" fill="#4F2556"/>
<path d="M360.404 22.4107C357.85 21.0097 351.046 18.4186 350.204 18.0528C341.384 14.2367 333.927 9.35541 327.395 6.28959C317.517 1.65611 310.39 -0.312072 308.921 0.0398959C307.129 0.468278 305.129 1.11894 303.028 1.89466C306.326 3.3859 309.565 4.96512 312.67 6.36605C321.21 10.2215 329.644 14.3316 337.913 18.7405C354.49 27.5767 379.093 43.2555 389.659 50.149C372.227 52.6128 357.602 44.2397 341.175 41.4679C324.751 38.6962 304.207 36.4361 287.546 37.3948C270.719 38.3627 255.3 42.5539 239.792 48.9403C232.179 52.0779 221.62 55.4169 213.214 52.71C210.148 55.6045 207.492 58.7907 204.924 62.3174C192.994 78.6978 182.982 97.623 173.863 108.837C172.768 109.659 171.487 110.627 170.079 111.688C161.387 118.241 147.382 128.844 135.978 137.745C119.093 150.925 106.551 161.954 96.8423 177.511C97.7569 178.884 98.8383 180.373 100.003 181.91C98.4307 180.386 97.0437 178.925 95.9021 177.561C93.5935 181.259 89.1939 189.426 87.6587 193.094C82.5412 205.321 85.0837 216.111 85.0837 222.241C85.0837 227.052 88.344 230.107 93.2322 232.346L101.987 237.377L191.989 289.087C191.989 289.087 182.299 264.148 224.134 235.108C265.97 206.071 332.209 162.172 375.788 132.505C419.368 102.838 459.383 79.4596 459.383 79.4596C459.383 79.4596 383.851 35.797 360.404 22.4107Z" fill="#7F64C1"/>
<path d="M337.912 18.7408C354.49 27.5771 379.093 43.2559 389.659 50.1493C372.227 52.6154 357.602 44.24 341.175 41.4683C324.751 38.6965 304.207 36.4365 287.546 37.3951C270.719 38.3631 255.3 42.5542 239.792 48.9406C232.178 52.0782 221.619 55.4173 213.214 52.7103C216.044 50.0405 219.218 47.6161 223.03 45.4255C227.631 42.7835 260.852 23.7101 271.599 17.5368C274.093 16.1057 290.531 6.50534 303.028 1.89502C306.328 3.38625 309.565 4.96548 312.67 6.3664C321.213 10.2242 329.644 14.3343 337.912 18.7408Z" fill="#967FDD"/>
<path d="M187.284 250.257C195.275 231.165 214.705 211.224 235.601 194.91C248.853 184.567 265.634 171.912 273.488 166.003C282.607 154.791 292.62 135.863 304.549 119.483C309.486 112.705 314.713 107.154 322.655 102.593C327.256 99.9507 360.478 80.8773 371.224 74.7039C374.135 73.0321 396.094 60.1922 408.547 57.2074C410.985 56.6239 423.806 60.9216 445.054 73.2474C448.657 75.3361 456.472 77.3044 459.388 79.4578C463.331 82.3685 463.822 91.4757 463.637 107.432C463.581 112.242 464.29 135.868 459.11 142.789C459.103 142.787 459.098 142.782 459.091 142.78C457.088 146.781 454.608 150.372 451.797 153.332C451.809 152.841 451.853 152.343 451.853 151.857C451.853 127.363 436.959 116.104 418.589 126.71C401.273 136.708 387.06 162.562 385.484 186.009C378.604 189.994 363.492 198.696 341.291 211.173C312.967 227.09 289.461 240.191 282.883 243.857C280.873 223.086 266.884 214.164 249.893 223.975C231.521 234.581 216.629 263.037 216.629 287.531C216.629 287.98 216.671 288.393 216.68 288.832C211.681 290.958 205.325 293.438 203.148 292.882C193.096 290.317 184.716 287.119 184.716 279.401C184.711 273.274 182.166 262.484 187.284 250.257Z" fill="#644DAD"/>
<path d="M249.89 223.975C266.882 214.164 280.871 223.086 282.88 243.857C289.459 240.194 312.964 227.09 341.289 211.172C363.493 198.694 378.604 189.994 385.481 186.009C385.491 185.451 385.558 184.768 385.623 184.122C387.809 161.188 401.734 136.439 418.587 126.709C436.959 116.102 451.851 127.362 451.851 151.857C451.851 152.345 451.807 152.843 451.795 153.332C450.406 154.793 448.942 156.113 447.4 157.229C447.34 157.273 447.287 157.31 447.226 157.354C447.249 156.71 447.298 156.062 447.298 155.425C447.298 134.592 434.632 125.017 419.006 134.036C403.381 143.057 390.715 167.26 390.715 188.093C390.715 188.908 390.768 189.677 390.805 190.457L387.936 192.097L385.447 193.514L283.052 251.769L279.402 253.844C279.433 253.128 279.481 252.411 279.481 251.702C279.481 230.869 266.815 221.294 251.189 230.313C235.564 239.335 222.898 263.537 222.898 284.37C222.898 284.979 222.944 285.547 222.965 286.135C222.101 286.445 219.621 287.575 216.671 288.83C216.662 288.39 216.62 287.978 216.62 287.529C216.625 263.037 231.519 234.583 249.89 223.975Z" fill="#4F3D9B"/>
<path d="M214.475 64.0005C218.771 67.3396 227.023 73.2535 240.472 81.0177C262.394 93.6746 303.183 113.545 303.183 113.545L273.472 159.039C256.191 143.906 198.688 110.558 187.325 104.56C190.917 97.9701 204.041 77.8986 214.475 64.0005Z" fill="#BBD9F9"/>
<path d="M210.426 135.3C180.643 118.07 176.312 111.646 176.312 111.646L210.75 60.9233C210.75 60.9233 211.903 62.0024 214.476 64.0007C204.042 77.8988 190.917 97.9702 187.323 104.563C198.688 110.56 256.188 143.909 273.47 159.041L269.809 164.786C269.809 164.786 242.242 153.706 210.426 135.3Z" fill="#95BFE5"/>
<path opacity="0.5" d="M301.503 116.118C301.503 116.118 255.981 109.579 231.033 98.6954C202.148 86.0963 196.596 81.7685 196.596 81.7685L210.749 60.9214C210.749 60.9214 225.332 72.0779 245.316 83.7692C257.516 90.9058 303.182 113.543 303.182 113.543L301.503 116.118Z" fill="white"/>
<path d="M102.511 207.812C102.187 202.567 100.172 195.505 96.8422 194.419C96.6987 194.373 96.3698 194.736 95.96 195.297C95.9692 194.65 95.9924 194.007 96.0387 193.365C97.5971 192.314 101.522 189.352 101.547 189.524C110.263 205.429 150.339 229.157 177.647 229.477C180.08 229.505 171.385 236.516 170.783 236.34C165.126 234.675 157.784 235.12 152.059 237.461C144.001 232.906 135.392 229.294 127.422 224.48C120.924 220.555 110.726 213.705 102.511 207.812Z" fill="#3F1B44"/>
<path d="M131.04 241.606C122.379 237.331 111.149 229.713 103.128 224.575C101.576 223.582 101.331 221.058 101.516 218.297C110.271 225.767 127.455 235.757 142.115 242.504C138.588 244.067 134.754 243.44 131.04 241.606Z" fill="#3F1B44"/>
<path d="M149.715 238.566C148.569 239.184 146.647 240.178 144.672 241.213C137.438 237.355 129.889 234.025 122.836 229.764C115.709 225.46 108.537 220.928 101.741 216.019C102.01 213.912 102.385 211.874 102.508 210.441C114.227 219.569 135.09 231.992 149.715 238.566Z" fill="#3F1B44"/>
<path d="M144.673 241.212C144.043 241.543 143.409 241.876 142.8 242.2C142.575 242.321 142.344 242.402 142.117 242.501C127.457 235.754 110.273 225.764 101.518 218.294C101.569 217.544 101.647 216.78 101.745 216.018C108.541 220.927 115.712 225.459 122.839 229.763C129.89 234.024 137.439 237.354 144.673 241.212Z" fill="#4F2556"/>
<path d="M102.55 209.838C102.571 209.21 102.555 208.527 102.511 207.812C110.727 213.702 120.925 220.554 127.422 224.479C135.392 229.291 144.002 232.905 152.06 237.46C151.3 237.77 150.562 238.109 149.867 238.486C149.828 238.509 149.76 238.542 149.716 238.565C135.091 231.988 114.228 219.568 102.509 210.442C102.527 210.231 102.544 210.023 102.55 209.838Z" fill="#4F2556"/>
<path d="M167.625 238.41C170.983 229.928 181.414 224.352 190.869 222.604C194.981 221.844 208.65 219.307 211.837 225.146C212.649 226.638 209.91 229.421 206.626 231.329C199.872 235.252 193.77 241.677 191.473 247.485C190.408 250.176 189.193 252.683 187.322 254.751C184.89 257.439 175.579 252.825 172.752 250.829C168.005 247.48 164.974 245.104 167.625 238.41Z" fill="#BBD9F9"/>
<path d="M106.844 164.022C108.476 174.861 100.77 191.693 96.8428 199.626C94.6986 203.959 89.2199 203.984 85.7002 199.038C87.1127 192.418 93.0707 177.11 106.844 164.022Z" fill="#BBD9F9"/>
<path d="M84.4738 206.774C84.6498 206.381 85.224 206.054 85.6524 206.098C91.2376 206.679 93.6875 211.123 94.8638 216.217C96.3458 222.648 97.58 226.642 103.92 230.377C108.591 233.128 113.379 235.701 118.108 238.354C126.043 242.809 133.979 247.267 141.914 251.724C146.008 252.815 149.924 252.926 153.147 251.106C157.743 248.513 160.95 246.264 165.521 250.391C171.357 255.656 175.898 263.747 176.201 271.402C176.314 274.253 176.21 274.906 172.26 272.97C162.801 268.334 152.158 260.852 144.987 262.073C141.298 260.012 111.943 243.801 102.818 237.845C102.04 235.515 100.083 233.723 97.7953 232.199C92.6987 228.802 87.7666 226.214 85.0759 221.402C84.453 217.709 83.6286 213.353 84.4738 206.774Z" fill="#3F1B44"/>
<path d="M160.296 252.659C162.62 254.002 164.505 257.602 164.505 260.703C164.505 263.804 162.62 265.228 160.296 263.887C157.971 262.544 156.086 258.943 156.086 255.843C156.086 252.742 157.971 251.318 160.296 252.659Z" fill="#916A9B"/>
<path d="M90.0531 212.77C92.1626 213.988 93.8738 217.258 93.8738 220.069C93.8738 222.88 92.1626 224.174 90.0531 222.956C87.9436 221.738 86.2324 218.469 86.2324 215.658C86.2324 212.844 87.9436 211.552 90.0531 212.77Z" fill="#916A9B"/>
<path d="M169.563 261.777C171.079 262.652 172.309 265.002 172.309 267.024C172.309 269.045 171.079 269.976 169.563 269.098C168.046 268.223 166.816 265.875 166.816 263.851C166.816 261.828 168.046 260.901 169.563 261.777Z" fill="#916A9B"/>
<path d="M387.418 81.4807C397.246 76.2753 407.189 75.0041 415.59 83.7987C417.963 86.2833 419.786 89.275 421.851 92.0537L285.017 171.115V159.249C290.322 150.605 296.766 140.301 302.52 131.643C322.189 119.472 339.569 111.204 357.675 99.9081C367.504 93.7765 377.179 86.9038 387.418 81.4807Z" fill="#95BFE5"/>
<path d="M315.955 113.868C324.578 107.109 355.87 88.0423 381.131 73.9914C395.418 66.0443 402.256 61.9666 408.774 62.9809C414.478 63.8677 416.911 66.7622 420.95 71.8819C426.463 78.8727 431.46 86.5002 431.46 86.5002L421.851 92.0529C419.785 89.2743 417.963 86.2825 415.589 83.7979C407.188 75.0033 397.245 76.2746 387.418 81.48C377.178 86.9031 367.504 93.7757 357.674 99.9051C339.569 111.198 322.188 119.467 302.52 131.64C308.327 122.906 313.433 115.846 315.955 113.868Z" fill="#74A9D1"/>
<path opacity="0.5" d="M177.012 127.251C184.438 132.336 199.365 142.425 213.851 151.502C215.199 152.345 214.543 154.265 213.078 154.357C198.638 155.265 185.189 150.622 173.847 142.27C163.526 134.67 176.989 127.27 177.012 127.251Z" fill="white"/>
<path d="M169.571 238.512C170.574 235.768 175.124 230.546 180.39 231.035C186.063 231.563 193.285 232.299 189.314 238.484C186.829 242.351 185.929 246.051 184.84 248.339C183.583 250.986 181.573 253.457 178.079 251.502C172.2 248.219 166.962 245.662 169.571 238.512Z" fill="white"/>
<path d="M98.9805 180.777C100.817 182.368 97.9014 190.535 95.8012 195.727C93.701 200.918 92.446 200.99 89.6673 199.52C86.8886 198.049 88.3589 191.89 91.1376 187.314C93.9186 182.739 96.5306 178.652 98.9805 180.777Z" fill="white"/>
<path d="M345.479 93.1243C345.479 93.1243 348.08 124.234 348.08 139.598C348.08 154.357 357.671 140.154 357.808 137.31C358.421 124.415 352.429 89.8315 352.429 89.8315L345.479 93.1243Z" fill="#644DAD"/>
<path d="M191.378 276.069C192.686 277.813 194.108 279.45 195.736 280.904C197.225 282.233 199.139 283.192 200.455 284.687C200.825 285.109 200.457 285.651 199.938 285.574C197.866 285.269 195.939 283.571 194.474 282.163C192.809 280.563 191.436 278.697 190.426 276.622C190.109 275.976 190.956 275.509 191.378 276.069Z" fill="#4F3D9B"/>
<path d="M203.345 280.73C203.968 279.401 205.339 278.382 206.392 277.393C207.455 276.395 208.506 275.21 209.798 274.517C210.259 274.269 210.729 274.76 210.498 275.217C209.831 276.527 208.664 277.606 207.689 278.692C206.723 279.769 205.734 281.156 204.422 281.807C203.692 282.166 203.009 281.448 203.345 280.73Z" fill="#4F3D9B"/>
<path opacity="0.5" d="M389.02 154.47C389.02 154.47 377.69 155.019 344.337 172.532C308.045 191.589 300.709 196.285 275.286 219.67C283.763 224.246 286.362 234.39 286.362 234.39C286.362 234.39 356.146 193.448 381.356 179.33C382.25 169.906 383.736 163.777 389.02 154.47Z" fill="#7F64C1"/>
<path d="M462.432 85.0708C462.432 85.0708 459.716 87.2335 456.446 89.1323C455.205 89.8525 454.781 92.5131 455.071 95.6993C455.52 100.622 456.312 106.805 456.525 109.199C456.851 112.876 461.147 110.318 463.631 109.035C464.942 105.114 464.085 89.8965 462.432 85.0708Z" fill="#BBD9F9"/>
<path d="M403.358 61.0762C403.358 61.0762 415.418 88.6871 417.643 98.5955C418.69 103.254 413.128 107.835 412.625 105.788C410.205 95.9141 405.139 75.4513 400.165 62.2918C399.862 61.493 403.358 61.0762 403.358 61.0762Z" fill="#644DAD"/>
<path d="M349.826 92.4526C349.826 92.4526 354.168 124.03 355.212 140.45C357.153 170.891 353.239 202.244 353.239 202.244C353.239 202.244 353.42 183.99 353.022 175.242C352.313 159.646 352.227 139.54 350.898 128.564C349.284 115.254 348.08 93.5155 348.08 93.5155L349.826 92.4526Z" fill="#4F3D9B"/>
<path d="M341.126 143.868C344.164 142.694 346.141 142.335 346.693 144.127C347.473 146.663 343.87 148.515 342.582 149.189C339.637 150.731 335.93 153.475 334.48 150.451C333.008 147.381 338.667 144.817 341.126 143.868Z" fill="#4F2556"/>
<path d="M408.064 104.912C411.102 103.738 413.079 103.379 413.63 105.172C414.411 107.707 410.808 109.56 409.52 110.233C406.575 111.776 402.868 114.52 401.418 111.493C399.948 108.425 405.605 105.862 408.064 104.912Z" fill="#4F2556"/>
<path d="M288.101 225.467C289.712 226.271 291.155 227.396 292.632 228.422C293.82 229.249 295.492 230.001 296.161 231.319C296.416 231.819 295.999 232.34 295.457 232.233C294.019 231.951 292.82 230.527 291.713 229.615C290.326 228.473 288.855 227.392 287.644 226.06C287.35 225.738 287.714 225.273 288.101 225.467Z" fill="#4F3D9B"/>
<path d="M323.174 211.536C323.797 209.638 324.102 207.679 324.605 205.75C324.788 205.044 325.823 205.215 325.848 205.919C325.922 207.968 325.471 210.054 324.92 212.018C324.505 213.491 324.068 215.681 322.618 216.427C322.373 216.554 322.025 216.455 321.958 216.158C321.604 214.619 322.697 212.991 323.174 211.536Z" fill="#4F3D9B"/>
<path d="M318.472 205.884C318.755 207.063 319.037 208.244 319.32 209.422C319.554 210.402 319.868 211.344 319.662 212.347C319.544 212.921 318.829 212.873 318.542 212.493C317.923 211.675 317.826 210.606 317.611 209.621C317.372 208.519 317.134 207.419 316.895 206.317C316.675 205.296 318.227 204.858 318.472 205.884Z" fill="#4F3D9B"/>
<path d="M338.026 205.509C338.823 204.059 339.911 202.792 340.622 201.29C341.451 199.537 341.916 197.543 342.039 195.609C342.069 195.137 342.838 194.959 342.921 195.489C343.519 199.247 342.326 204.323 338.57 206.053C338.221 206.215 337.822 205.879 338.026 205.509Z" fill="#4F3D9B"/>
<path d="M369.771 179.883C370.85 180.725 371.734 181.74 372.781 182.633C373.663 183.388 375.205 184.007 375.699 185.083C375.884 185.489 375.662 185.912 375.205 185.945C373.876 186.035 372.57 184.576 371.725 183.689C370.685 182.599 369.868 181.48 369.548 180.015C369.521 179.873 369.669 179.804 369.771 179.883Z" fill="#4F3D9B"/>
<path d="M363.661 191.238C364.11 190.238 365.016 189.529 365.47 188.499C365.928 187.457 365.979 186.406 366.238 185.322C366.359 184.822 367.165 184.671 367.396 185.172C368.422 187.388 367.144 191.759 364.55 192.394C363.835 192.568 363.388 191.85 363.661 191.238Z" fill="#4F3D9B"/>
<path d="M454.187 128.245C454.048 127.638 454.833 127.319 455.176 127.828C457.024 130.581 456.753 134.863 454.028 136.935C453.65 137.223 453.057 136.743 453.217 136.312C454.245 133.529 454.871 131.211 454.187 128.245Z" fill="#4F3D9B"/>
<path opacity="0.5" d="M302.781 15.4866C302.867 14.4608 305.18 12.4972 305.527 12.393C310.538 10.4108 315.479 12.3582 319.78 14.9864C323.57 17.302 328.69 20.3956 331.809 24.2672C333.235 26.034 334.067 27.8078 330.237 27.8032C326.604 27.7985 307.908 21.5719 304.531 19.4763C302.535 18.2328 302.19 16.7347 302.781 15.4866Z" fill="white"/>
<path d="M344.503 72.9214C361.937 64.8608 376.261 54.5959 394.881 49.7146C395.453 49.5641 395.87 50.4348 395.298 50.7034C378.892 58.4305 317.763 90.8948 303.631 101.38C309.367 92.4532 330.147 79.5578 344.503 72.9214Z" fill="#4F3D9B"/>
<path d="M262.399 26.039C279.833 17.9785 294.157 7.71354 312.776 2.83229C313.348 2.68178 313.765 3.55244 313.193 3.82105C296.787 11.5481 235.658 44.0125 221.526 54.4975C227.264 45.5709 248.044 32.6755 262.399 26.039Z" fill="#4F3D9B"/>
<path d="M120.282 217.583C118.904 219.969 120.352 223.384 123.512 225.209C126.673 227.033 130.353 226.579 131.73 224.192C133.108 221.807 131.661 218.392 128.5 216.567C125.339 214.742 121.66 215.196 120.282 217.583Z" fill="white"/>
<path d="M288.731 174.177C288.731 174.177 279.48 176.034 277.523 174.86C275.566 173.686 275.703 169.96 278.234 169.24C280.765 168.52 286.239 169.24 286.239 169.24L288.731 174.177Z" fill="#4F2556"/>
<path d="M301.18 171.832C296.113 166.967 287.11 161.667 283.653 160.328C283.917 160.043 284.174 159.747 284.459 159.499C286.948 157.323 288.905 159.265 291.355 160.432C297.144 163.195 305.508 167.935 309.007 174.861C311.899 180.583 311.412 184.489 306.876 185.056C307.911 181.268 305.753 176.225 301.18 171.832Z" fill="#967FDD"/>
<path d="M290.413 180.447C281.809 176.376 279.775 170.585 280.769 165.838C281.218 163.693 282.299 161.792 283.656 160.327C287.114 161.665 296.117 166.965 301.183 171.83C305.756 176.223 307.914 181.266 306.879 185.055C303.6 185.467 298.224 184.145 290.413 180.447Z" fill="#7F64C1"/>
<path d="M140.734 160.757C154.548 149.86 174.882 134.413 186.828 125.38C179.119 119.769 173.573 115.596 173.573 115.596C173.573 115.596 143.672 137.446 127.287 151.81C120.887 157.42 116.943 161.283 112.618 167.115C112.426 172.17 108.51 184.86 107.934 188.977C109.172 190.73 110.902 192.575 112.961 194.444C115.774 187.337 122.894 174.829 140.734 160.757Z" fill="#4F2556"/>
<path d="M160.297 163.728C164.935 166.565 212.565 194.122 221.774 199.448C239.11 186.604 261.136 168.623 261.136 168.623C261.136 168.623 233.511 157.099 215.874 145.63C206.597 139.598 195.381 131.604 186.827 125.38C174.881 134.413 154.548 149.86 140.733 160.757C122.894 174.829 115.773 187.338 112.96 194.444C116.162 197.348 120.168 200.31 124.404 203.077C126.006 197.969 130.964 184.182 140.249 175.058C151.832 163.684 155.161 160.586 160.297 163.728Z" fill="#3F1B44"/>
<path d="M176.226 223.19C179.671 220.889 186.847 218.297 199.22 216.021C201.72 214.081 203.295 212.55 213.678 205.3C216.167 203.561 218.911 201.574 221.776 199.449C212.567 194.12 164.937 166.563 160.299 163.728C155.163 160.589 151.834 163.687 140.256 175.061C130.97 184.184 126.013 197.969 124.41 203.079C128.578 205.803 132.966 208.34 137.025 210.445C150.576 217.475 165.982 221.785 176.226 223.19Z" fill="#4F2556"/>
<path d="M157.618 166.866C154.779 165.187 147.165 173.044 142.117 178.784C137.067 184.524 132.244 193.708 134.608 195.669C136.097 196.903 139.417 194.252 143.727 189.517C146.258 186.736 152.192 179.701 154.872 177.434C162.103 171.307 162.545 169.781 157.618 166.866Z" fill="#3F1B44"/>
<path d="M171.065 173.973C168.226 172.294 160.615 180.151 155.565 185.891C150.514 191.632 145.691 200.815 148.055 202.776C149.544 204.011 152.865 201.357 157.174 196.624C159.705 193.843 165.64 186.808 168.319 184.541C175.553 178.414 175.995 176.891 171.065 173.973Z" fill="#3F1B44"/>
<path d="M186.406 181.929C183.567 180.25 175.953 188.107 170.905 193.847C165.855 199.587 161.032 208.771 163.396 210.732C164.885 211.966 168.205 209.313 172.515 204.58C175.046 201.799 180.981 194.764 183.66 192.497C190.891 186.37 191.333 184.844 186.406 181.929Z" fill="#3F1B44"/>
<path d="M200.634 190.504C197.796 188.825 190.184 196.682 185.134 202.422C180.084 208.162 175.26 217.346 177.624 219.307C179.113 220.541 182.434 217.89 186.743 213.155C189.274 210.374 195.209 203.339 197.888 201.072C205.122 194.945 205.564 193.419 200.634 190.504Z" fill="#3F1B44"/>
<path d="M234.735 154.469C208.423 140.902 174.75 113.65 157.909 103.924C143.413 95.556 134.193 93.6109 128.299 94.1597C127.338 97.4686 127.876 101.857 133.787 106.286C145.752 115.248 188.465 143.6 213.08 154.355C213.08 154.355 230.203 162.011 237.694 165.111C242.717 167.191 258.071 171.106 258.071 171.106L261.137 168.619C261.137 168.619 246.924 160.756 234.735 154.469Z" fill="#644DAD"/>
<path d="M128.298 94.1626C123.172 94.6396 120.562 97.0015 119.196 98.6687C112.96 106.287 112.082 108.267 124.619 118.011C140.557 130.399 176.608 153.265 187.948 154.47C203.024 156.067 213.076 154.356 213.076 154.356C188.462 143.6 145.749 115.248 133.784 106.287C127.872 101.86 127.335 97.4716 128.298 94.1626Z" fill="#7F64C1"/>
<path d="M100.084 159.973C100.084 159.973 91.9914 152.554 85.5193 159.008C79.0496 165.461 78.6838 173.163 82.3401 178.093C86.001 183.02 100.084 159.973 100.084 159.973Z" fill="#E83A3A"/>
<path d="M106.277 292.143C105.751 293.639 104.505 296.672 102.929 299.337C100.912 302.748 103.257 304.615 105.816 306.189C108.377 307.764 112.661 306.518 119.314 302.973C125.969 299.428 128.882 295.92 129.118 293.636C129.354 291.353 126.003 288.037 120.256 289.832C114.509 291.629 111.591 292.983 111.591 292.983L106.277 292.143Z" fill="#F95555"/>
<path d="M74.702 212.12C74.702 212.12 68.2879 229.244 76.962 233.498C76.9065 243.834 83.9227 251.348 85.796 255.185C85.4301 255.734 81.4033 256.121 77.9184 259.059C74.8549 261.643 72.1642 266.369 69.0567 269.496C64.2912 274.291 62.5591 275.599 59.6299 278.16C59.6206 282.69 64.5274 284.857 64.5274 284.857C64.5274 284.857 76.7351 277.517 82.4754 273.342C90.7189 267.344 98.0477 263.301 98.2862 258.832C98.5247 254.363 93.9144 237.284 93.9144 237.284C93.9144 237.284 104.304 249.607 116.908 255.188C114.451 258.862 112.52 261.662 110.83 271.445C109.582 278.672 106.275 292.144 106.275 292.144C106.275 292.144 110.681 296.28 114.359 293.814C118.309 283.238 132.161 257.429 131.83 252.173C131.499 246.916 105.953 214.406 105.953 214.406L74.702 212.12Z" fill="#6E57B5"/>
<path d="M113.353 164.122L106.904 169.411C103.426 168.174 100.779 164.064 99.2881 160.13C100.562 159.111 105.072 156.532 105.39 155.168C104.049 151.417 106.077 148.258 109.56 144.891C113.207 141.36 119.79 141.395 123.738 144.514C124.315 144.738 127.26 146.86 126.867 150.437C126.427 154.427 124.148 164.016 120.756 165.743C118.389 166.945 115.631 164.984 113.353 164.122Z" fill="#FFC9B6"/>
<path d="M104.072 144.834C104.413 141.789 106.068 139.059 109.336 137.563C113.015 135.878 119.582 135.637 122.544 138.955C122.599 138.851 122.622 138.73 122.696 138.635C123.611 137.459 125.114 137.642 126.193 138.459C127.043 139.103 127.682 140.043 128.094 141.085C128.729 140.879 129.444 140.868 130.051 141.118C132.188 142.002 132.107 145.033 131.352 146.802C129.787 150.473 123.993 154.486 119.721 153.485C119.934 155.623 118.892 156.78 117.178 158.181C114.504 160.369 110.658 160.485 107.629 158.985C104.2 157.285 101.081 153.358 101.326 149.359C101.442 147.481 102.528 145.714 104.072 144.834Z" fill="#301333"/>
<path d="M121.23 154.447C121.23 154.447 120.454 151.946 118.097 153.512C115.74 155.077 118.56 159.741 118.56 159.741L121.23 154.447Z" fill="#FFC9B6"/>
<path d="M97.6267 158.512C101.579 160.223 101.304 160.939 109.524 167.262C117.744 173.586 118.173 177.31 117.423 181.228C116.675 185.146 116.107 187.156 112.907 194.795C108.834 204.522 103.617 209.807 103.617 209.807C103.617 209.807 106.419 210.668 107.683 211.455C108.948 212.243 109.26 216.57 107.845 217.9C103.8 221.702 87.0121 231.314 73.1904 217.473C73.818 206.593 77.7405 184.615 80.5262 176.032C83.68 166.325 94.1603 157.011 97.6267 158.512Z" fill="#F95555"/>
<path d="M108.366 173.805C112.576 171.577 116.364 172.693 118.934 178.003C120.469 181.177 120.553 184.882 122.347 187.842C124.223 190.931 127.301 193.934 129.313 197.257C133.793 197.866 143.834 206.535 146.33 207.814C148.826 209.092 154.749 209.733 157.371 211.799C159.112 213.169 160.295 219.665 160.295 219.665C160.295 219.665 157.486 220.447 155.013 219.665C152.061 218.729 150.359 216.277 147.777 215.108C144.207 213.489 140.8 212.929 135.62 211.799C132.309 211.076 125.471 207.288 123.811 205.093C123.176 204.254 116.593 200.286 112.578 196.981C102.276 188.509 100.514 177.959 108.366 173.805Z" fill="#FFB9A4"/>
<path d="M102.656 212.144C102.656 212.144 97.5367 214.93 92.8106 216.18C88.0845 217.43 87.494 217.264 84.1133 217.919C85.4262 217.919 92.7736 218.651 95.7954 216.84C98.8149 215.032 102.656 212.144 102.656 212.144Z" fill="#E83A3A"/>
<path d="M86.6074 209.895C86.6074 209.895 89.3305 212.143 93.3851 211.75C97.4374 211.356 99.9985 210.863 99.9985 210.863C99.9985 210.863 95.6336 209.615 93.3851 209.895C91.1367 210.173 86.6074 209.895 86.6074 209.895Z" fill="#E83A3A"/>
<path d="M59.6312 278.159C59.6312 278.159 53.7682 281.672 51.6679 282.985C51.6286 283.92 52.8049 286.627 56.0398 292.405C59.2746 298.182 65.052 301.188 69.7781 298.11C74.5041 295.03 77.7113 290.082 73.7447 288.751C69.7781 287.417 66.3649 288.751 66.3649 288.751C66.3649 288.751 65.0381 285.578 63.6024 282.165C62.1644 278.75 59.6312 278.159 59.6312 278.159Z" fill="#F95555"/>
<path d="M51.6691 282.983C51.6691 282.983 56.849 283.384 58.4236 288.747C59.9982 294.11 62.9876 298.111 64.3028 299.195C59.63 298.639 58.1851 297.027 55.2721 291.549C52.8106 286.922 50.3584 283.87 51.6691 282.983Z" fill="#301333"/>
<path d="M65.5003 286.682C65.227 286.691 65.9889 288.65 65.5119 290.468C64.9816 292.492 65.2571 293.747 66.5376 292.466C67.8182 291.186 67.0818 288.53 67.0818 288.53C67.0818 288.53 66.7206 286.638 65.5003 286.682Z" fill="#301333"/>
<path d="M115.649 291.378C116.265 291.858 118.984 292.974 120.626 295.049C122.267 297.123 124.064 295.424 122.883 293.321C121.702 291.221 118.653 290.346 118.653 290.346C118.653 290.346 116.219 290.783 115.649 291.378Z" fill="#301333"/>
<path d="M117.149 174.454C120.532 179.534 126.405 189.237 126.405 189.237C126.405 189.237 127.963 193.655 123.32 198.689C118.678 203.725 112.578 201.768 112.578 201.768C112.578 201.768 105.828 197.427 102.656 187.891C100.021 179.963 100.685 175.109 106.53 171.682C109.445 169.973 113.766 169.376 117.149 174.454Z" fill="#E83A3A"/>
<path d="M71.8561 122.003C71.8561 122.003 76.4872 121.744 79.6711 122.003C82.8551 122.262 84.0013 122.519 85.0132 122.816C86.0251 123.112 86.3053 124.397 84.8812 124.578C82.6003 124.865 82.1303 124.578 81.262 125.314C80.7109 125.782 82.8759 126.715 85.3142 127.57C87.7525 128.424 90.8137 128.862 91.6821 129.468C92.5504 130.077 90.8137 133.324 86.0366 133.333C81.2596 133.342 77.3185 131.948 75.4707 130.652C73.1435 129.019 68.4521 127.039 68.4521 127.039L71.8561 122.003Z" fill="#FFC9B6"/>
<path d="M14.6963 234.417C14.6963 234.417 13.52 238.787 13.6658 241.318C13.814 243.847 14.4161 244.451 15.1803 245.303C15.9444 246.155 16.8428 245.789 16.8428 245.789C16.8428 245.789 17.1948 251.004 19.6679 253.113C22.1409 255.221 26.6239 255.422 28.6824 254.656C30.741 253.892 29.3886 250.154 27.3718 246.493C25.3572 242.832 22.7869 238.891 22.1432 235.582C17.2157 234.904 14.6963 234.417 14.6963 234.417Z" fill="#301333"/>
<path d="M51.5406 200.408C52.8952 192.443 54.472 192.98 54.4373 185.577C54.4211 181.939 53.1197 173.619 50.4869 156.347C49.1207 147.377 46.9858 145.872 44.1631 140.217C43.8714 139.634 34.7896 144.288 30.6471 146.481C30.2719 146.68 26.6596 156.243 28.2412 163.711C28.8479 166.575 38.2398 185.955 41.4724 189.546C33.4003 197.512 35.3662 204.857 37.8138 224.657C39.877 227.429 43.6189 227.165 47.3656 224.979C47.3679 220.906 50.6305 205.757 51.5406 200.408Z" fill="#301333"/>
<path d="M35.6245 163.38C40.7025 157.169 39.6559 152.452 37.2176 145.063C37.0833 144.658 15.9722 141.833 15.7151 142.285C7.70786 156.317 12.2441 179.318 18.0817 193.056C15.3585 199.709 13.2097 200.292 11.1743 209.068C9.41908 216.638 14.4948 225.136 14.9348 234.593C17.8269 236.57 21.951 237.46 23.3959 233.891C28.3652 222.031 32.1789 210.108 28.8005 197.421C30.3218 193.433 35.2192 173.457 35.6245 163.38Z" fill="#3F1B44"/>
<path d="M75.4027 121.886C72.0821 117.966 62.5697 113.108 59.923 112.355C59.9184 112.353 56.8641 107.275 55.5489 104.318C54.5439 102.058 53.4857 96.0303 51.3947 92.3068C49.0583 88.1434 46.4255 86.9949 42.6603 85.7676C41.6461 85.4365 40.5903 85.4528 39.803 86.3605C38.7355 87.5923 38.9531 89.7296 38.9392 91.1815C38.9161 93.6453 38.9508 96.109 38.967 98.5728C38.9878 101.551 43.6051 108.641 44.4434 109.901C45.4599 111.427 47.7245 117.033 48.4841 118.707C48.8962 119.617 50.0077 121.43 53.5969 122.886C54.9723 123.444 66.585 129.46 72.7004 130.426C72.9574 129.233 74.8863 124.697 75.4027 121.886Z" fill="#3F1B44"/>
<path d="M39.8008 89.5658C34.6764 87.4216 28.5795 90.1933 28.8018 89.9432C28.9546 89.7719 21.6906 93.9746 21.679 94.0024C16.4921 95.9382 11.1733 97.3392 8.12136 104.309C6.63475 107.701 11.9837 114.965 14.2136 124.807C15.2162 129.232 15.3228 135.544 13.6857 138.482C12.5418 140.539 10.0178 143.618 17.4207 145.945C19.5742 146.622 29.5775 150.489 35.4105 149.407C38.1081 148.907 51.0823 141.72 47.125 138.969C46.076 138.242 45.2169 136.797 45.9718 135.465C46.604 134.351 47.7432 132.318 47.2593 130.109C46.076 124.682 47.037 122.544 47.8382 118.3C51.5917 114.37 48.2758 108.445 45.9741 102.112C44.4134 97.8139 45.0572 91.7679 39.8008 89.5658Z" fill="#BBD9F9"/>
<path d="M38.5739 88.4364C38.5739 88.3624 38.5785 88.279 38.5808 88.2003C35.5405 88.6657 31.5322 86.9221 28.8994 85.0835C27.4846 88.5383 27.1419 89.8513 25 93.3362C26.1462 93.3918 28.4062 96.5433 30.2818 99.8522C31.0784 101.258 34.517 104.891 36.6798 104.053C40.0142 102.758 38.3447 100.091 38.4443 96.3349C38.516 93.7044 38.5693 91.0669 38.5739 88.4364Z" fill="#FFB9A4"/>
<path d="M40.9864 115.616C40.4214 112.594 39.5554 109.776 38.9418 107.961V107.956C38.8098 107.567 39.9537 104.061 39.9537 104.061L36.6702 102.765L34.7529 105.071C34.7529 105.071 35.8435 107.634 37.1101 108.306C37.0407 111.659 36.9203 117.797 36.8485 123.364C36.7327 132.254 36.8485 138.647 36.8485 138.647C36.8485 138.647 38.9418 141.611 41.0652 143.002C42.5379 140.36 43.1145 137 43.1145 137C43.1145 137 41.9381 120.708 40.9864 115.616Z" fill="#F95555"/>
<path d="M22.4248 93.4009C22.4248 93.4009 27.9104 95.7651 30.2074 97.6685C33.2849 100.216 34.7529 100.903 36.2858 102.374C36.4317 102.006 36.8462 95.0866 36.8462 95.0866C36.8462 95.0866 39.4119 95.4085 39.3887 95.4548C39.3679 95.5011 40.8568 96.8719 41.4404 99.6205C42.0239 102.371 40.9841 105.701 40.9841 105.701L36.7189 103.096L33.7989 108.306C33.7989 108.306 28.1002 103.427 25.5022 100.454C22.9064 97.4832 22.4248 93.4009 22.4248 93.4009Z" fill="white"/>
<path d="M38.9425 89.5469C38.9425 89.5469 43.9001 89.232 46.2666 94.6296C48.6331 100.027 50.4138 107.064 50.4903 115.423C50.5458 121.523 49.2097 129.488 50.2402 133.828C51.127 137.563 56.0777 151.308 56.0777 151.308C56.0777 151.308 55.698 156.949 53.8733 159.179C51.516 162.055 48.9527 161.809 48.9527 161.809C48.9527 161.809 45.8845 144.766 45.5742 142.08C45.264 139.392 44.2544 125.2 44.5323 120.988C44.8101 116.776 42.3973 102.741 41.4433 99.6243C40.4892 96.5075 34.7559 90.1211 34.7559 90.1211L38.9425 89.5469Z" fill="#4A2151"/>
<path d="M37.9627 93.9908C37.9627 93.9908 39.6485 96.1489 41.0008 99.4069C42.3531 102.665 42.7884 109.825 43.1728 114.004C43.5595 118.184 44.4579 122.382 44.4579 122.382C44.4579 122.382 46.0372 117.837 46.3266 114.748C46.6161 111.661 47.012 109.283 47.012 109.283L44.8539 107.595L46.8522 102.767C46.8522 102.767 41.5797 91.2838 39.3544 90.6193C37.1315 89.9524 37.9627 93.9908 37.9627 93.9908Z" fill="#572D60"/>
<path d="M24.752 91.9736C24.752 91.9736 31.0341 100.233 32.8796 111.661C34.7274 123.086 33.5604 134.853 32.8796 143.018C32.0205 153.316 31.2564 167.964 31.2564 167.964C31.2564 167.964 21.0238 169.654 15.2858 168.439C9.15418 167.14 6.99609 161.138 6.99609 161.138C6.99609 161.138 6.99609 148.617 12.2061 133.422C13.9174 128.432 12.8313 117.605 10.8052 111.374C9.59878 107.669 11.3517 100.27 14.4661 96.8965C16.5895 94.5971 21.7764 93.6061 24.752 91.9736Z" fill="#4A2151"/>
<path d="M26.6945 90.3203C26.6945 90.3203 23.1077 90.5449 21.7461 93.275C22.3829 94.6852 23.888 96.5678 24.5641 100.083C25.2403 103.6 25.0041 107.537 25.0041 107.537L29.0494 109.345L26.6852 113.515L33.7014 122.593C33.7014 122.593 34.7527 110.635 31.9832 101.996C29.2138 93.3561 26.6945 90.3203 26.6945 90.3203Z" fill="#572D60"/>
<path d="M44.7316 75.5889C41.9367 72.1573 35.8259 71.3723 31.9658 73.711C31.0396 73.9866 30.1875 74.3988 29.4928 75.0171C26.9758 77.2539 27.2537 81.2598 28.0062 84.2168C29.1409 88.6766 35.4855 98.9277 41.3486 95.0931C44.4677 93.0554 46.4938 87.9912 46.9963 84.4484C47.4409 81.2992 46.767 78.0898 44.7316 75.5889Z" fill="#FFC9B6"/>
<path d="M48.7853 69.0174C46.8287 66.3869 41.8317 63.2354 38.5482 65.0693C37.4205 65.6992 36.7791 66.9936 36.8509 68.1583C33.6739 67.5771 27.9451 69.6426 26.5233 72.3727C24.1082 77.0154 25.7893 84.9601 27.9081 87.3475C30.1218 85.4186 33.5396 81.3178 34.4426 77.3836C38.0943 79.1388 43.082 79.3241 46.6666 77.2609C49.6768 75.5311 50.9435 71.9212 48.7853 69.0174Z" fill="#301333"/>
<path d="M33.4038 82.0214C33.4038 82.0214 31.6231 79.0667 29.9837 81.2272C27.4968 84.5014 31.1415 86.1038 31.1415 86.1038L33.4038 82.0214Z" fill="#FFC9B6"/>
<path d="M15.6343 95.9365C10.8086 96.7076 7.86789 97.5759 4.47093 105.345C1.2847 112.63 3.71836 115.758 2.17387 120.672C0.629377 125.585 1.27307 126.775 0.830793 130.744C0.388517 134.711 1.46527 135.274 2.94724 136.459C4.16523 137.434 2.48186 138.629 12.0174 143.005C18.1236 145.807 22.2453 144.99 22.2453 144.99L25.5103 137.207C25.5103 137.207 26.7283 137.246 22.4283 133.275C17.5632 128.783 13.9462 128.162 13.9462 128.162C13.9462 128.162 15.7246 122.302 18.1514 117.043C20.5781 111.782 19.0428 97.4139 15.6343 95.9365Z" fill="#3F1B44"/>
<path d="M25.5083 137.206C25.5083 137.206 23.0421 136.44 21.7107 139.645C20.7335 141.997 21.3796 144.065 22.241 144.991C23.5354 144.991 25.4967 145.424 26.842 146.404C29.8546 148.597 33.4321 152.82 36.0835 154.108C39.9181 155.969 40.937 153.508 41.2588 151.227C41.5807 148.946 39.6588 147.179 37.9452 145.843C36.0812 144.389 34.9488 143.201 35.6042 142.798C36.0395 142.532 38.1907 143.465 39.6703 142.798C41.2056 142.108 40.5572 140.999 38.0193 140.816C36.7295 140.721 36.1391 139.839 33.6962 139.522C31.7858 139.276 31.2185 140.23 30.6164 139.92C28.6181 138.887 26.6082 138.005 25.5083 137.206Z" fill="#FFC9B6"/>
<path d="M38.4952 222.947C38.4952 222.947 38.2729 224.823 37.6847 226.787C37.0966 228.748 37.819 231.485 37.819 231.485C37.819 231.485 38.2428 232.691 40.0605 233.048C41.7532 233.381 43.124 232.974 43.124 232.974C43.124 232.974 44.7889 234.986 46.9656 236.526C49.1422 238.066 53.9424 239.261 55.2484 239.061C57.3555 238.74 58.4832 237.098 58.3211 236.037C58.159 234.979 55.6768 232.043 53.6414 230.774C52.3168 229.947 49.3089 227.157 48.4081 226.187C46.9146 224.58 45.8124 222.804 45.8124 222.804L38.4952 222.947Z" fill="#301333"/>
<path d="M351.345 290.179L381.457 307.573L353.436 323.752L333.126 305.17L351.345 290.179Z" fill="#CDCDCD"/>
<path d="M320.256 311.603L320.279 308.97C320.284 308.398 320.876 251.421 328.045 211.118C333.288 181.646 347.047 162.547 347.628 161.748L377.74 179.145C377.74 179.145 364.935 204.086 358.308 237.259C356.27 247.459 354.221 271.59 352.713 292.548L352.85 292.787L352.688 292.879C351.289 312.353 350.365 329 350.365 329L320.256 311.603Z" fill="#CDCDCD"/>
<path d="M355.327 226.914C348.158 267.216 347.565 324.196 347.56 324.765L347.537 327.347L322.531 312.9L322.554 310.268C322.559 309.696 323.152 252.718 330.321 212.416C335.563 182.943 349.323 163.844 349.904 163.045L374.91 177.541C374.326 178.34 360.569 197.439 355.327 226.914Z" fill="#4F2556"/>
<path d="M381.465 307.588V311.046L350.367 329.001L350.39 326.368C350.395 325.796 350.988 268.819 358.157 228.516C363.402 199.043 377.158 179.944 377.742 179.146L380.173 180.919C380.034 181.109 366.236 200.294 361.121 229.044C354.876 264.153 353.651 312.074 353.44 323.756L381.458 307.579L381.465 307.588Z" fill="#AAAAAA"/>
<path d="M352.776 234.592L330.023 221.432C330.459 218.503 330.922 215.622 331.42 212.83C334.912 193.203 342.164 178.219 346.802 170.133L361.816 178.839L369.571 183.301C364.933 191.376 357.662 206.381 354.163 226.042C353.67 228.819 353.212 231.681 352.776 234.592Z" fill="#916A9B"/>
<path d="M337.987 188.982L360.756 202.128C358.176 208.975 355.77 217.01 354.163 226.043C353.67 228.82 353.209 231.682 352.776 234.592L330.023 221.433C330.459 218.504 330.922 215.623 331.42 212.831C333.022 203.825 335.416 195.813 337.987 188.982Z" fill="white"/>
<path d="M348.032 175.144C352.138 176.844 360.154 181.516 364.185 184.383C364.69 184.742 364.25 185.045 363.836 184.835C358.528 182.125 352.906 178.752 347.775 175.725C347.328 175.461 347.365 174.866 348.032 175.144Z" fill="#4F2556"/>
<path d="M337.481 202.775C341.587 204.474 349.603 209.147 353.634 212.014C354.139 212.373 353.699 212.676 353.285 212.465C347.978 209.756 342.355 206.382 337.224 203.356C336.775 203.094 336.812 202.499 337.481 202.775Z" fill="#4F2556"/>
<path d="M332.929 218.713C337.035 220.413 345.052 225.086 349.083 227.953C349.588 228.311 349.148 228.615 348.733 228.404C343.424 225.695 337.804 222.321 332.672 219.295C332.226 219.031 332.263 218.435 332.929 218.713Z" fill="#4F2556"/>
<path d="M344.064 180.418C348.17 182.118 350.61 183.419 354.644 186.286C355.147 186.645 354.709 186.948 354.295 186.738C348.987 184.028 348.939 184.026 343.807 181C343.36 180.738 343.397 180.143 344.064 180.418Z" fill="#4F2556"/>
<path d="M343.062 182.504C347.168 184.204 349.608 185.505 353.642 188.372C354.144 188.731 353.707 189.034 353.292 188.824C347.985 186.114 347.936 186.112 342.805 183.086C342.356 182.822 342.393 182.226 343.062 182.504Z" fill="#4F2556"/>
<path d="M342.085 184.692C346.191 186.392 348.631 187.693 352.663 190.56C353.168 190.919 352.728 191.225 352.313 191.012C347.003 188.302 346.957 188.3 341.826 185.274C341.381 185.01 341.418 184.414 342.085 184.692Z" fill="#4F2556"/>
<path d="M341.397 186.879C345.503 188.578 347.943 189.88 351.977 192.746C352.479 193.105 352.042 193.411 351.627 193.198C346.32 190.489 346.271 190.486 341.14 187.46C340.691 187.198 340.728 186.603 341.397 186.879Z" fill="#4F2556"/>
<path d="M338.797 198.067C339.179 196.981 339.382 196.677 340.867 196.835C342.154 196.971 344.085 198.24 345.199 198.37C347.313 197.601 349.143 198.768 350.108 199.398C350.724 199.801 352.641 201.04 353.614 203.911C354.11 205.372 354.971 205.771 353.978 207.257C353.762 207.581 353.172 207.732 352.868 207.535C352.12 207.051 351.755 206.84 350.995 206.373C350.076 207.655 347.857 206.407 348.552 204.763C347.306 204.027 345.076 202.83 343.833 202.086C342.821 203.703 340.793 202.348 341.561 200.554C341.119 200.271 338.426 199.12 338.797 198.067Z" fill="#916A9B"/>
<path d="M351.611 201.485C351.357 201.07 351.002 200.663 350.507 200.364C348.995 199.447 348.559 199.206 347.788 198.966C347.017 198.725 345.859 199.593 345.859 199.593L351.181 202.617C351.181 202.617 351.502 201.811 351.611 201.485Z" fill="white"/>
<path d="M336.701 208.924C338.065 208.206 340.258 209.616 341.52 210.287C341.617 210.338 341.708 210.385 341.791 210.426C343.206 211.119 348.824 214.525 350.278 215.382C351.216 215.935 351.22 216.959 350.903 218.091C350.669 218.922 350.347 220.015 349.919 221.231C349.25 223.137 347.92 223.012 346.223 222.104C344.387 221.122 338.614 217.528 336.757 216.482C335.115 215.555 334.557 215.183 334.56 213.585C334.56 212.3 335.393 209.614 336.701 208.924Z" fill="#916A9B"/>
<path d="M346.943 214.896L345.223 219.506C345.223 219.506 346.357 219.397 346.943 217.644C347.582 215.734 346.943 214.896 346.943 214.896Z" fill="white"/>
<path d="M342.451 212.42L340.518 217.202C340.518 217.202 338.913 216.48 338.828 215.875C338.742 215.269 339.953 212.15 340.638 212.057C341.321 211.962 342.451 212.42 342.451 212.42Z" fill="white"/>
<path d="M341.627 210.752C341.627 210.752 342.09 209.967 340.831 209.43C339.636 208.92 339.455 209.464 339.455 209.464L341.627 210.752Z" fill="#916A9B"/>
<path d="M348.272 214.215C348.272 214.215 348.735 213.43 347.475 212.893C346.28 212.383 346.1 212.927 346.1 212.927L348.272 214.215Z" fill="#916A9B"/>
<path d="M346.738 221.977C346.738 221.977 346.237 222.623 345.2 222.109C344.024 221.525 344.371 220.715 344.371 220.715L346.738 221.977Z" fill="#916A9B"/>
<path d="M339.99 218.118C339.99 218.118 339.441 218.722 338.445 218.127C337.318 217.454 337.725 216.671 337.725 216.671L339.99 218.118Z" fill="#916A9B"/>
</svg>
