<svg width="101" height="17" viewBox="0 0 101 17" fill="none" xmlns="http://www.w3.org/2000/svg">
<g clip-path="url(#clip0_3422_24805)">
<path d="M17.4194 0.459473H0.878906V17H17.4194V0.459473Z" fill="white"/>
<path d="M9.14466 11.6074L11.6602 10.9699L12.7112 14.2091L9.14466 11.6074ZM14.9338 7.42057H10.5058L9.14466 3.25098L7.78351 7.42057H3.35547L6.93925 10.005L5.5781 14.1746L9.16189 11.5902L11.3673 10.005L14.9338 7.42057Z" fill="#00C21A"/>
</g>
<g clip-path="url(#clip1_3422_24805)">
<path d="M38.0952 0.459473H21.5547V17H38.0952V0.459473Z" fill="white"/>
<path d="M29.8204 11.6074L32.336 10.9699L33.387 14.2091L29.8204 11.6074ZM35.6096 7.42057H31.1816L29.8204 3.25098L28.4593 7.42057H24.0312L27.615 10.005L26.2539 14.1746L29.8377 11.5902L32.0431 10.005L35.6096 7.42057Z" fill="#00C21A"/>
</g>
<g clip-path="url(#clip2_3422_24805)">
<path d="M58.7749 0.459473H42.2344V17H58.7749V0.459473Z" fill="white"/>
<path d="M50.5079 11.6074L53.0235 10.9699L54.0745 14.2091L50.5079 11.6074ZM56.2971 7.42057H51.8691L50.5079 3.25098L49.1468 7.42057H44.7188L48.3025 10.005L46.9414 14.1746L50.5252 11.5902L52.7306 10.005L56.2971 7.42057Z" fill="#00C21A"/>
</g>
<g clip-path="url(#clip3_3422_24805)">
<path d="M79.4468 0.459473H62.9062V17H79.4468V0.459473Z" fill="white"/>
<path d="M71.172 11.6074L73.6875 10.9699L74.7386 14.2091L71.172 11.6074ZM76.9612 7.42057H72.5331L71.172 3.25098L69.8109 7.42057H65.3828L68.9666 10.005L67.6054 14.1746L71.1892 11.5902L73.3946 10.005L76.9612 7.42057Z" fill="#00C21A"/>
</g>
<g clip-path="url(#clip4_3422_24805)">
<path d="M91.8523 0.459473H83.582V17H91.8523V0.459473Z" fill="white"/>
<path d="M100.122 0.459473H91.8516V17H100.122V0.459473Z" fill="white" fill-opacity="0.74"/>
<path d="M91.8556 11.6069L94.3711 10.9694L95.4221 14.2086L91.8556 11.6069ZM97.6448 7.42008H93.2167L91.8556 3.25049L90.4944 7.42008H86.0664L89.6502 10.0045L88.289 14.1741L91.8728 11.5897L94.0782 10.0045L97.6448 7.42008Z" fill="#00C21A"/>
</g>
<defs>
<clipPath id="clip0_3422_24805">
<rect width="16.5405" height="16.5405" fill="white" transform="translate(0.878906 0.459473)"/>
</clipPath>
<clipPath id="clip1_3422_24805">
<rect width="16.5405" height="16.5405" fill="white" transform="translate(21.5547 0.459473)"/>
</clipPath>
<clipPath id="clip2_3422_24805">
<rect width="16.5405" height="16.5405" fill="white" transform="translate(42.2305 0.459473)"/>
</clipPath>
<clipPath id="clip3_3422_24805">
<rect width="16.5405" height="16.5405" fill="white" transform="translate(62.9062 0.459473)"/>
</clipPath>
<clipPath id="clip4_3422_24805">
<rect width="16.5405" height="16.5405" fill="white" transform="translate(83.582 0.459473)"/>
</clipPath>
</defs>
</svg>
