<svg width="80" height="79" viewBox="0 0 80 79" fill="none" xmlns="http://www.w3.org/2000/svg">
<path fill-rule="evenodd" clip-rule="evenodd" d="M41.9777 1.29389C42.1053 1.29389 42.2146 1.31211 42.3422 1.31211C42.4698 1.31211 42.5791 1.33034 42.7067 1.33034L42.8707 1.34856L43.0712 1.36678C43.2716 1.38501 43.4903 1.40323 43.6908 1.42145C43.7819 1.42145 43.873 1.43968 43.9824 1.43968C44.2193 1.4579 44.4744 1.49435 44.7113 1.51257C44.8571 1.5308 45.0029 1.54902 45.1669 1.56724C45.2762 1.58547 45.3674 1.58547 45.4767 1.60369C45.6407 1.62192 45.8047 1.65836 45.987 1.67659L46.1145 1.69481C46.4972 1.74948 46.8799 1.82238 47.2626 1.89527H47.2991C57.9053 3.86344 66.999 10.1506 72.5025 18.8798L72.6301 19.0621C72.703 19.1896 72.7759 19.3172 72.867 19.4448L73.0857 19.8275C73.1404 19.9186 73.195 20.0279 73.2679 20.119C73.3955 20.3195 73.5048 20.5382 73.6142 20.7386L73.7053 20.8844C74.0516 21.5223 74.3796 22.1601 74.6894 22.8161C77.587 28.8664 78.8626 35.7186 78.0426 42.8258L78.0243 42.9716C77.5141 48.2018 75.9468 53.1223 73.5413 57.5142L73.3773 57.824C73.3044 57.9698 73.2133 58.0973 73.1404 58.2431C73.0492 58.3889 72.9764 58.5347 72.8852 58.6805L72.703 58.9721C72.5937 59.1361 72.4843 59.3183 72.375 59.4823L72.211 59.7375L71.8829 60.2295L71.7007 60.4847C71.5914 60.6487 71.4638 60.8127 71.3544 60.9949L71.1722 61.2501C71.0629 61.4141 70.9353 61.5599 70.826 61.7239C70.7531 61.815 70.6802 61.9061 70.6073 62.0155C70.4979 62.143 70.4068 62.2888 70.2975 62.4164C70.2063 62.5439 70.097 62.6715 70.0059 62.7991C69.933 62.8902 69.8419 62.9995 69.769 63.0907C69.6414 63.2547 69.5138 63.4187 69.368 63.5645L69.2587 63.692C63.4089 70.6353 55.1171 75.4828 45.6589 76.8496L45.5131 76.8678H45.4767C45.258 76.9043 45.0393 76.9225 44.8206 76.9589C44.6931 76.9772 44.5473 76.9954 44.4197 77.0136C44.2375 77.0318 44.0735 77.0501 43.8912 77.0683C43.7454 77.0865 43.5997 77.1047 43.4539 77.1047C43.2534 77.1229 43.0712 77.1412 42.8707 77.1412L42.5973 77.1594C42.1418 77.1958 41.6862 77.2141 41.2306 77.2323C33.8499 77.4328 26.8885 75.5193 20.9657 72.0385H20.9475C20.7288 71.911 20.5284 71.7834 20.3097 71.6558L20.0546 71.4918C19.9088 71.4007 19.7448 71.3096 19.599 71.2002C19.4714 71.1273 19.3621 71.0362 19.2345 70.9633C19.1069 70.8722 18.9794 70.7993 18.8518 70.7082C18.706 70.6171 18.5784 70.5259 18.4326 70.4166C18.3233 70.3437 18.2322 70.2708 18.1228 70.1979C17.977 70.0886 17.8313 69.9975 17.6855 69.8881C17.5761 69.8152 17.485 69.7423 17.3757 69.6512C17.2299 69.5419 17.1023 69.4507 16.9747 69.3414C16.8654 69.2503 16.7561 69.1592 16.6467 69.0863C16.5191 68.9952 16.3916 68.8858 16.2822 68.7947C16.1729 68.7036 16.0453 68.6125 15.936 68.5213L15.608 68.248C15.4622 68.1386 15.3346 68.0111 15.1888 67.8835L14.9883 67.7013C9.75813 63.0724 5.80357 57.0039 3.74429 50.1153C3.68962 49.9513 3.63495 49.7691 3.5985 49.6051V49.5868L3.58028 49.4957C3.54383 49.3682 3.50738 49.2224 3.47093 49.0948V49.0219L3.43449 48.8761L3.41626 48.8215L3.37981 48.6392C3.32514 48.4205 3.27047 48.2018 3.2158 48.0014L3.19758 47.9103L3.17935 47.8191C2.57797 45.1949 2.24994 42.4978 2.21349 39.7278V39.5456C2.0677 34.0602 3.12468 28.8118 5.18397 24.0736C5.23864 23.946 5.29331 23.8367 5.34798 23.7091L5.47555 23.4358C5.56667 23.2171 5.67601 23.0166 5.76713 22.8161L5.8218 22.6886C6.44141 21.4129 7.11569 20.1919 7.86286 18.9892C14.9155 7.70865 27.8725 0.601386 42.0871 1.31211L41.9777 1.29389ZM36.4742 34.8803H43.873C45.5678 34.8803 46.9528 36.2653 46.9528 37.9601V39.1993C46.9528 42.5889 44.1828 45.3772 40.775 45.3772H39.5358C36.1461 45.3772 33.3579 42.6072 33.3579 39.1993V37.9601C33.3579 36.2653 34.7429 34.8803 36.4377 34.8803H36.4742ZM39.3171 9.69504C39.8091 9.67682 40.2829 9.67682 40.775 9.67682C41.0483 9.67682 41.3035 9.69504 41.5768 9.69504C42.2329 9.73149 42.8889 9.78616 43.5632 9.85906C50.306 10.6427 55.6456 13.03 59.7095 16.4196C64.885 20.9391 68.0559 27.2445 69.2769 33.878C68.9489 34.7345 67.819 35.5546 65.9238 35.919H65.5411C65.5046 35.919 65.4682 35.919 65.4135 35.9008C65.377 35.9008 65.3224 35.8826 65.2859 35.8826C65.2495 35.8826 65.1948 35.8644 65.1584 35.8644C65.1219 35.8644 65.0672 35.8461 65.0308 35.8461C64.9944 35.8461 64.9397 35.8279 64.9032 35.8097C64.8668 35.7915 64.8121 35.7915 64.7757 35.7732C64.7392 35.755 64.6845 35.755 64.6481 35.7368L64.5205 35.7003L64.393 35.6639L64.2654 35.6274L64.1378 35.5728L64.0103 35.5181L63.8645 35.4634L63.7187 35.4088L63.5729 35.3541L63.4271 35.2994L63.2813 35.2265L63.1355 35.1536L62.9897 35.0807L62.8439 35.0078L62.6982 34.9349L62.5524 34.8621L62.4066 34.7892L62.2608 34.7163L62.115 34.6434L61.9692 34.5522L61.8234 34.4611L61.6594 34.37L61.4954 34.2789L61.3314 34.1878L61.1674 34.0967L61.0033 34.0055L60.8393 33.9144L60.6753 33.8233L60.5113 33.7322L60.3473 33.6411L60.1833 33.5499L60.0193 33.4588L59.8552 33.3677L59.6912 33.2766L59.5272 33.1855L59.3632 33.0943L59.1992 33.0032L59.017 32.9121L58.8347 32.821L58.6525 32.7299L58.4702 32.6388L58.288 32.5476L58.1058 32.4565L57.9235 32.3654L57.7413 32.2743L57.5591 32.1832L57.3768 32.092L57.1946 32.0009L57.0123 31.9098L56.8301 31.8187L56.6479 31.7276L56.4656 31.6364L56.2834 31.5453L56.1012 31.4724L55.9189 31.3995C55.7185 31.3084 55.4998 31.2355 55.2993 31.1444C55.0988 31.0533 54.8984 30.9804 54.6979 30.9075C54.4975 30.8346 54.297 30.7435 54.0965 30.6706C53.8961 30.5977 53.7138 30.5248 53.5134 30.4519C53.3129 30.379 53.1307 30.3061 52.9302 30.2332C52.748 30.1603 52.5475 30.0874 52.3653 30.0145C52.183 29.9416 52.0008 29.887 51.8003 29.8141C51.6181 29.7412 51.4359 29.6865 51.2536 29.6136C51.0714 29.5589 50.8892 29.486 50.7069 29.4314C50.5247 29.3767 50.3424 29.3038 50.1784 29.2491C49.9962 29.1945 49.8322 29.1398 49.6499 29.0851C49.4677 29.0305 49.3037 28.9758 49.1397 28.9211C48.9757 28.8664 48.7934 28.8118 48.6294 28.7753C45.8958 27.9735 43.3081 27.5725 40.7385 27.5543C38.1325 27.3356 35.4536 27.4997 32.5925 28.0646C32.4285 28.101 32.2463 28.1375 32.064 28.1739C31.8818 28.2104 31.7178 28.2468 31.5355 28.2833C31.3533 28.3197 31.171 28.3562 31.007 28.4108C30.8248 28.4473 30.6426 28.502 30.4603 28.5384C30.2781 28.5749 30.0958 28.6295 29.9136 28.6842C29.7314 28.7389 29.5491 28.7753 29.3487 28.83C29.1664 28.8847 28.966 28.9211 28.7837 28.9758C28.5833 29.0305 28.401 29.0851 28.2006 29.1398C28.0001 29.1945 27.7997 29.2491 27.6174 29.3038C27.417 29.3585 27.2165 29.4131 27.016 29.486C26.8156 29.5407 26.6151 29.6136 26.3964 29.6683C26.196 29.723 25.9773 29.7958 25.7768 29.8505C25.5581 29.9234 25.3577 29.9781 25.139 30.051L24.9385 30.1057L24.7381 30.1785L24.5376 30.2514L24.3371 30.3243L24.1367 30.3972L23.9362 30.4701L23.7358 30.543L23.5535 30.6159L23.3713 30.6888L23.189 30.7617L23.0068 30.8346L22.8246 30.9075L22.6423 30.9804L22.4601 31.0533L22.2779 31.1262L22.0956 31.1991L21.9134 31.272L21.7311 31.3449L21.5489 31.4178L21.3667 31.4907L21.1844 31.5636L21.0022 31.6364L20.82 31.7093L20.6377 31.7822L20.4555 31.8551L20.2915 31.928L20.1275 32.0009L19.9634 32.0738L19.7994 32.1467L19.6354 32.2196L19.4714 32.2925L19.3074 32.3654L19.1434 32.4383L18.9794 32.5112L18.8153 32.5841L18.6513 32.657L18.4873 32.7299L18.3233 32.8028L18.1593 32.8574L18.0135 32.9121L17.8677 32.9668L17.7219 33.0215L17.5761 33.0761L17.4303 33.1308L17.2845 33.1855L17.1388 33.2401L16.993 33.2948L16.8472 33.3313L16.7014 33.3677L16.5556 33.4042L16.4098 33.4406L16.264 33.477L16.1364 33.5135L16.0089 33.5317C15.9724 33.5317 15.9178 33.5499 15.8813 33.5499C15.8449 33.5499 15.7902 33.5682 15.7537 33.5682C15.7173 33.5682 15.6626 33.5864 15.6262 33.5864L15.4986 33.6046H14.8608C14.8243 33.6046 14.7879 33.6046 14.7332 33.5864C12.8744 33.0579 11.8174 32.1467 11.5623 31.2537C13.4393 24.4198 17.8677 18.0233 24.2278 13.9594L24.41 13.8501C28.5286 11.317 33.5037 9.73149 39.2806 9.56748L39.3171 9.69504ZM48.028 67.8288C47.9005 67.7742 47.7911 67.7013 47.6818 67.6284C47.5724 67.5555 47.4813 67.4826 47.372 67.3915C47.0804 67.1363 46.8253 66.8265 46.6066 66.4438C46.4608 66.1887 46.3332 65.9153 46.2239 65.5873C46.1692 65.4233 46.1145 65.2593 46.0781 65.0953C46.0416 64.9313 46.0052 64.749 45.9687 64.5486C45.9323 64.3663 45.9141 64.1659 45.8776 63.9654C45.8594 63.7649 45.8412 63.5462 45.823 63.3276C45.7683 57.3502 46.9164 54.5802 48.5201 53.0129C50.9621 52.1382 53.5863 52.0106 55.4633 48.4388C55.6638 48.1472 55.8642 47.8191 56.0465 47.4547C56.2105 47.1449 56.3745 46.7804 56.5203 46.3977H57.9782L58.1058 46.4159L58.2333 46.4341L58.3609 46.4524L58.4885 46.4706L58.616 46.4888L58.7436 46.507L58.8712 46.5253L58.9987 46.5435L59.1263 46.5617L59.2539 46.5799L59.3814 46.5982L59.509 46.6164L59.6366 46.6346L59.7641 46.6528L59.8917 46.671L60.0193 46.6893L60.1468 46.7075L60.2744 46.7257L60.402 46.7439L60.5295 46.7622L60.6571 46.7804L60.7847 46.7986L60.9122 46.8168L61.0398 46.8351L61.1674 46.8533L61.2949 46.8715L61.4225 46.8897L61.5501 46.9262L61.6776 46.9626L61.8052 46.9991L61.9328 47.0355L62.0603 47.072L62.1879 47.1084L62.3155 47.1449L62.443 47.1813L62.5706 47.2178L62.6982 47.2542L62.8257 47.2907L62.9533 47.3271L63.0809 47.3636L63.2084 47.4L63.336 47.4364L63.4636 47.4729L63.5911 47.5093L63.7187 47.5458L63.8463 47.5822L63.9738 47.6187L64.1014 47.6551L64.229 47.6916L64.3565 47.728L64.4841 47.7645L64.6116 47.8009L64.7392 47.8374L64.8668 47.8738L64.9944 47.9103L65.1219 47.9467L65.2495 47.9832L65.377 48.0196L65.4864 48.0743L65.5957 48.1289L65.7051 48.1836L65.8144 48.2383L65.9238 48.293L66.0331 48.3476L66.1424 48.4023L66.2336 48.457L66.3247 48.5117L66.4158 48.5663L66.5069 48.621L66.598 48.6757L66.6892 48.7303L66.7803 48.785L66.8714 48.8397L66.9443 48.8943L67.0172 48.949L67.0901 49.0037C67.1448 49.0401 67.1812 49.0948 67.2359 49.1313L67.3088 49.2042L67.3817 49.277L67.4546 49.3499L67.491 49.3864C67.4363 49.5322 67.3817 49.6962 67.327 49.842L67.3088 49.8967C67.2541 50.0242 67.2177 50.1336 67.163 50.2611L67.0901 50.4251C67.0536 50.5163 67.0172 50.6074 66.9807 50.6803L66.8714 50.9172L66.7985 51.0994C66.7438 51.2088 66.7074 51.3181 66.6527 51.4274L66.6163 51.5003C64.9397 55.1815 62.5524 58.4618 59.6001 61.1589L59.4725 61.2683C59.3997 61.3412 59.3085 61.4141 59.2356 61.487C59.1627 61.5599 59.0716 61.6328 58.9987 61.6874L58.8712 61.7968C55.9554 64.2934 52.5657 66.2069 48.8845 67.4279L48.8481 67.4461C48.7205 67.4826 48.593 67.5373 48.4654 67.5737L48.3196 67.6101C48.2285 67.6466 48.1374 67.6648 48.0463 67.7013L47.7911 67.7742L47.6089 67.8288L47.5178 67.8471L48.028 67.8288ZM11.6352 47.236L11.5987 47.0902L11.5805 47.0173L11.5623 46.9262L11.5987 46.8897L11.6716 46.8351L11.7445 46.7804L11.8174 46.7257L11.9814 46.6164L12.0725 46.5617L12.1637 46.507L12.2548 46.4524L12.3459 46.3977L12.437 46.343L12.5281 46.2883L12.6193 46.2337L12.7104 46.179L12.8015 46.1243L12.9108 46.0879L13.0202 46.0514L13.1295 46.015L13.2389 45.9785L13.3482 45.9421L13.4576 45.9057L13.5669 45.8692L13.6762 45.8328L13.8038 45.7963L13.9314 45.7599L14.0589 45.7234L14.1865 45.687L14.3141 45.6505L14.4416 45.6141L14.5692 45.5776L14.6968 45.5594L14.8426 45.5412L14.9883 45.523L15.1341 45.5047L15.2799 45.4865L15.4257 45.4683L15.5715 45.4501L15.7173 45.4318L15.8631 45.4136L16.0089 45.3954L16.1547 45.3772L16.3005 45.3589L16.4463 45.3407L16.592 45.3225L16.7378 45.3043L16.8836 45.286L17.0294 45.2678L17.1752 45.2496L17.321 45.2314L17.4668 45.2131L17.6126 45.1949L17.7584 45.1767L17.9042 45.1585L18.0499 45.1403L18.1957 45.122L18.3415 45.1038L18.4873 45.0856L18.6331 45.0674L18.7789 45.0491L18.9247 45.0309L19.0705 45.0127L19.2163 44.9945L19.3621 44.9762L19.5078 44.958L19.6536 44.9398H22.8792L23.0068 44.958L23.1344 44.9762L23.2619 44.9945H23.3166C23.4988 45.6323 23.7175 46.179 23.9909 46.6528C24.1549 47.072 24.3371 47.4547 24.5194 47.8009C26.1048 50.8807 28.5286 51.2452 30.7337 52.2657C32.1734 53.9788 33.0663 56.8217 32.5014 62.7626C32.4649 62.9813 32.4285 63.1818 32.392 63.4005C32.3556 63.6009 32.3009 63.8014 32.2645 63.9836C32.2098 64.1659 32.1551 64.3481 32.1005 64.5121C32.0458 64.6761 31.9729 64.8401 31.9182 64.9859C31.7907 65.2957 31.6266 65.5509 31.4626 65.806C31.2075 66.1705 30.9341 66.4621 30.6243 66.6807C30.515 66.7536 30.4057 66.8265 30.2963 66.8812C30.1687 66.9541 30.0594 67.0088 29.9318 67.0634L29.4945 66.8994L29.4216 66.863C29.3122 66.8265 29.2029 66.7719 29.0935 66.7354L28.9113 66.6625L28.6926 66.5714C28.6015 66.5349 28.5104 66.4985 28.4193 66.4438L28.2917 66.3892L27.909 66.2251L27.8908 66.2069C24.3736 64.585 21.2209 62.2706 18.6149 59.4641L18.5238 59.373C18.4509 59.2819 18.3597 59.209 18.2868 59.1179L18.1228 58.9356L17.977 58.7716C17.8859 58.6623 17.7766 58.5529 17.6855 58.4436L17.6672 58.4254C15.207 55.4913 13.3118 52.1017 12.1272 48.4023L12.0908 48.3112L11.9814 47.9832L11.9268 47.7827V47.7645L11.8903 47.6187L11.8356 47.4547L11.6352 47.236Z" fill="#19CA32"/>
</svg>
